<svg width="1180" height="457" viewBox="0 0 1180 457" fill="none" xmlns="http://www.w3.org/2000/svg">
<path d="M7.2 38.84C7.2 38.5217 7.32643 38.2165 7.55147 37.9915C7.77652 37.7664 8.08174 37.64 8.4 37.64C8.71826 37.64 9.02348 37.7664 9.24853 37.9915C9.47357 38.2165 9.6 38.5217 9.6 38.84H7.2ZM8.4 41.44V37.24H8.62H8.83H9.04H9.25H9.45L9.65 37.18L9.84 37L10 36.9L10.19 36.82L10.37 36.73L10.55 36.63L10.72 36.52L10.89 36.4L11.05 36.27L11.2 36.14L11.35 36L11.49 35.85L11.62 35.7L11.74 35.54L11.86 35.37L11.97 35.2L12.07 35.02L12.16 34.84L12.24 34.65L12.32 34.46L12.38 34.27L12.44 34.07V33.87V33.66V33.45V33.24V33H16.64V33.43V33.85L16.59 34.27L16.52 34.68L16.43 35.09L16.32 35.49L16.19 35.88L16.04 36.26L15.87 36.63L15.68 36.99L15.48 37.34L15.26 37.68L15.03 38.01L14.78 38.33L14.52 38.63L14.24 38.92L13.95 39.2L13.65 39.46L13.33 39.71L13.1 40L12.76 40.22L12.41 40.42L12 40.6L11.63 40.77L11.25 40.92L10.86 41.05L10.46 41.16L10.05 41.25L9.64 41.32L9.22 41.37H8.79L8.4 41.44ZM16.8 33H12.6V32.78V32.57V32.36V32.15V31.95L12.54 31.75L12.48 31.56L12.4 31.37L12.32 31.18L12.09 31L11.99 30.82L11.88 30.65L11.76 30.48L11.64 30.32L11.51 30.17L11.37 30.02L11.22 29.88L11.07 29.75L10.91 29.62L10.74 29.5L10.57 29.39L10.39 29.29L10.21 29.2L10 29.16L9.81 29.09L9.65 29H9.45H9.25H9.04H8.83H8.62H8.4V24.8H8.83H9.26L9.68 24.85L10.09 24.92L10.5 25.01L10.9 25.12L11.29 25.25L11.67 25.4L12.04 25.57L12.4 25.76L12.75 25.96L13.09 26.18L13.42 26.41L13.74 26.66L14.04 26.92L14.33 27.2L14.61 27.49L14.87 27.79L15.12 28.11L15.35 28.44L15.57 28.78L15.77 29.13L15.96 29.49L16.13 29.86L16.28 30.24L16.41 30.63L16.52 31.03L16.61 31.44L16.68 31.85L16.73 32.27V32.69L16.8 33ZM8.4 24.6V28.8H8.18H7.97H7.76H7.55H7.35L7.15 28.86L6.95 28.93L6.76 29L6.57 29.08L6.39 29.17L6.21 29.27L6.04 29.38L5.87 29.5L5.71 29.63L5.56 29.76L5.41 29.9L5.27 30.05L5.14 30.2L5 30.53L4.88 30.7L4.77 30.87L4.67 31.05L4.58 31.23L4.5 31.42L4.42 31.61L4.35 31.8L4.29 32V32.2V32.41V32.62V32.83V33H0V32.6V32.18L0.05 31.76L0.12 31.35L0.21 30.94L0.32 30.54L0.45 30.15L0.6 29.77L0.77 29.4L1 29L1.2 28.65L1.42 28.31L1.67 28L1.92 27.68L2.18 27.38L2.46 27.09L2.75 26.81L3.05 26.55L3.37 26.3L3.7 26.07L4 25.86L4.35 25.66L4.71 25.47L5.08 25.3L5.46 25.15L5.9 25L6.3 24.89L6.71 24.8L7.12 24.73L7.54 24.68H7.97L8.4 24.6ZM0 33H4.2V33.22V33.43V33.64V33.85V34.05L4.26 34.25L4.33 34.44L4.41 34.63L4.49 34.82L4.58 35L4.68 35.18L4.79 35.35L4.91 35.52L5.04 35.68L5.17 35.83L5.31 35.98L5.46 36.12L5.61 36.25L5.77 36.38L5.94 36.5L6.11 36.61L6.29 36.71L6.47 36.8L6.66 36.88L7 37L7.2 37.07L7.4 37.13H7.6H7.81H8.02H8.23H8.4V41.33H8H7.57L7.15 41.28L6.74 41.21L6.33 41.12L5.93 41.01L5.54 40.88L5.16 40.73L4.79 40.56L4.43 40.37L4 40.21L3.7 40L3.37 39.77L3.05 39.52L2.75 39.26L2.46 39L2.18 38.71L1.92 38.41L1.67 38.09L1.44 37.76L1.22 37.42L1 37L0.81 36.64L0.66 36.3L0.51 35.92L0.38 35.53L0.27 35.13L0.18 34.72L0.1 34.31L0 33.89V33.47V33ZM9.6 38.8V455.7H7.2V38.84L9.6 38.8ZM8.4 456.9C8.08174 456.9 7.77652 456.774 7.55147 456.549C7.32643 456.323 7.2 456.018 7.2 455.7C7.2 455.382 7.32643 455.077 7.55147 454.851C7.77652 454.626 8.08174 454.5 8.4 454.5V456.9ZM8.4 454.5H1178.4V456.9H8.4L7.2 455.7L8.4 454.5ZM1179.6 455.7C1179.6 456.018 1179.47 456.323 1179.25 456.549C1179.02 456.774 1178.72 456.9 1178.4 456.9C1178.08 456.9 1177.78 456.774 1177.55 456.549C1177.33 456.323 1177.2 456.018 1177.2 455.7H1179.6ZM1177.2 455.7V8.4H1179.6V455.7L1178.4 456.9L1177.2 455.7ZM1178.4 7.2C1178.72 7.2 1179.02 7.32643 1179.25 7.55147C1179.47 7.77652 1179.6 8.08174 1179.6 8.4C1179.6 8.71826 1179.47 9.02348 1179.25 9.24853C1179.02 9.47357 1178.72 9.6 1178.4 9.6V7.2ZM1178.4 9.6H14.2V7.2H1178.4L1179.6 8.4L1178.4 9.6ZM14.2 9.6C13.8817 9.6 13.5765 9.47357 13.3515 9.24853C13.1264 9.02348 13 8.71826 13 8.4C13 8.08174 13.1264 7.77652 13.3515 7.55147C13.5765 7.32643 13.8817 7.2 14.2 7.2V9.6ZM16.8 8.4V8.83V9.26L16.75 9.68L16.68 10.09L16.59 10.5L16.48 10.9L16.35 11.29L16.2 11.67L16 12L15.81 12.36L15.61 12.71L15.39 13.05L15.16 13.38L14.91 13.7L14.65 14L14.37 14.29L14.08 14.57L13.78 14.83L13.46 15.08L13.13 15.31L12.79 15.53L12.44 15.73L12 16L11.63 16.17L11.25 16.32L10.86 16.45L10.46 16.56L10.05 16.65L9.64 16.72L9.22 16.77H8.79H8.4V12.6H8.62H8.83H9.04H9.25H9.45L9.65 12.54L9.84 12.48L10.03 12.4L10.22 12.32L10.4 12.23L10.58 12.13L10.75 12.02L10.92 11.9L11.08 11.77L11.23 11.64L11.38 11.5L11.52 11.35L11.65 11.2L11.77 11.04L11.89 10.88L12 10.71L12.1 10.53L12.19 10.35L12.28 10.16L12.35 9.97L12.42 9.77L12.48 9.57V9.37V9.16V8.95V8.74V8.4H16.8ZM8.4 16.8H8H7.57L7.15 16.75L6.74 16.68L6.33 16.59L5.93 16.48L5.54 16.35L5.16 16.2L4.76 16L4.4 15.81L4 15.58L3.66 15.36L3.33 15.13L3.01 14.88L2.71 14.62L2.42 14.34L2.19 14L1.93 13.7L1.68 13.38L1.45 13.05L1.23 12.71L1 12.41L0.83 12L0.66 11.63L0.51 11.25L0.38 10.9L0.27 10.5L0.18 10.09L0.1 9.68L0 9.26V8.83V8.4H4.2V8.62V8.83V9.04V9.25V9.45L4.26 9.65L4.33 9.85L4.4 10.04L4.48 10.23L4.57 10.41L4.67 10.59L4.78 10.76L4.9 10.92L5.03 11.08L5.16 11.23L5.3 11.38L5.45 11.52L5.6 11.65L5.76 11.78L5.93 11.9L6.1 12.01L6.28 12.11L6.46 12.2L6.65 12.28L6.84 12.36L7.03 12.42L7.23 12.48H7.43H7.64H7.85H8.06H8.4V16.8ZM0 8.4V8V7.57L0.1 7.12L0.17 6.71L0.27 6.3L0.38 5.9L0.51 5.51L0.66 5.13L0.83 4.76L1 4.39L1.22 4L1.44 3.66L1.67 3.33L1.92 3.01L2.18 2.71L2.46 2.42L2.75 2.14L3.05 1.88L3.37 1.63L3.7 1.4L4 1.22L4.4 1L4.76 0.83L5.13 0.66L5.52 0.51L5.91 0.38L6.3 0.26L6.71 0.17L7.13 0.1L7.54 0H8H8.4V4.2H8.18L8 4.22H7.79H7.58H7.38L7.18 4.28L7 4.45L6.81 4.53L6.62 4.61L6.44 4.7L6.26 4.8L6.09 4.91L5.89 5L5.73 5.13L5.58 5.26L5.43 5.4L5.29 5.55L5.16 5.7L5 5.89L4.88 6.06L4.77 6.23L4.67 6.41L4.58 6.59L4.5 6.78L4.46 7L4.39 7.19L4.33 7.39V7.59V7.8V8.01V8.22V8.4H0ZM8.4 0H8.83H9.26L9.67 0.1L10.08 0.17L10.49 0.26L10.89 0.37L11.28 0.5L11.66 0.65L12 0.83L12.4 1L12.75 1.2L13.09 1.42L13.42 1.65L13.74 1.9L14.04 2.16L14.33 2.44L14.61 2.73L14.87 3.03L15.12 3.35L15.35 3.68L15.57 4.02L15.77 4.37L15.96 4.73L16.13 5.1L16.28 5.48L16.41 5.87L16.52 6.27L16.61 6.68L16.68 7.09L16.73 7.51V7.94V8.4H12.6V8.18V7.97V7.76V7.55V7.35L12.54 7.15L12.35 7L12.28 6.81L12.19 6.62L12.1 6.44L12 6.23L11.89 6.06L11.77 5.89L11.65 5.73L11.52 5.58L11.38 5.43L11.23 5.29L11.08 5.16L10.91 5L10.74 4.88L10.57 4.77L10.39 4.67L10.21 4.58L10 4.53L9.81 4.45L9.62 4.39L9.42 4.33H9.22L9 4.25H8.79H8.58H8.4V0Z" fill="#E6E6E6"/>
</svg>
