<svg xmlns="http://www.w3.org/2000/svg" viewBox="0 0 255.96 299.88">
  <title>Ресурс 8</title>
  <g id="Слой_2" data-name="Слой 2">
    <g id="Слой_1-2" data-name="Слой 1">
      <path d="M248.75,38.63h-2.38a1.19,1.19,0,0,1,2.38,0m-1.19,2.6V37h.22l.21,0,.21,0,.21,0,.2,0,.2-.06.19-.07.19-.07.19-.08.18-.09.18-.1.17-.11.17-.12.16-.13.15-.13.15-.14.14-.15.13-.15.13-.16.12-.17.11-.17.1-.18.09-.18.08-.19.08-.19.06-.19.06-.2,0-.2,0-.21,0-.21,0-.21v-.22H256v.43l0,.42-.05.42-.07.41-.09.41-.11.4-.13.39-.15.38-.17.37-.19.36-.2.35-.22.34-.23.33-.25.32-.26.3-.28.29-.29.28-.3.26-.32.25-.33.23-.34.22-.35.2-.36.19-.37.17-.38.15-.39.13-.4.11-.41.09-.41.07-.42.05-.43,0Zm8.4-8.4h-4.2v-.22l0-.21,0-.21,0-.21,0-.2-.06-.2-.06-.2-.08-.19-.08-.19-.09-.18-.1-.18-.11-.17-.12-.17-.13-.16-.13-.15-.14-.15-.15-.14-.15-.13-.16-.13-.17-.12-.17-.11-.18-.1-.18-.09-.19-.08-.19-.07-.19-.07-.2-.06-.2,0-.21,0-.21,0-.21,0h-.22v-4.2H248l.43,0,.42.05.41.07.41.09.4.11.39.13.38.15.37.17.36.19.35.2.34.22.33.23.32.25.3.26.29.28.28.29.26.3.25.32.23.33.22.34.2.35.19.36.17.37.15.38.13.39.11.4.09.41.07.41.05.42,0,.42Zm-8.4-8.4v4.2h-.22l-.21,0-.21,0-.21,0-.2,0-.2.06-.19.07-.19.07-.19.08-.18.09-.18.1-.17.11-.17.12-.16.13-.15.13-.15.14-.14.15-.13.15-.13.16-.12.17-.11.17-.1.18-.09.18-.08.19-.08.19-.06.2-.06.2,0,.2,0,.21,0,.21,0,.21v.22h-4.2v-.43l0-.42.05-.42.07-.41.09-.41.11-.4.13-.39.15-.38.17-.37.19-.36.2-.35.22-.34.23-.33.25-.32.26-.3.28-.29.29-.28.3-.26.32-.25.33-.23.34-.22.35-.2.36-.19.37-.17.38-.15.39-.13.4-.11.41-.09.41-.07.42-.05.43,0Zm-8.4,8.4h4.2V33l0,.21,0,.21,0,.21,0,.2.06.2.06.19.08.19.08.19.09.18.1.18.11.17.12.17.13.16.13.15.14.15.15.14.15.13.16.13.17.12.17.11.18.1.18.09.19.08.19.07.19.07.2.06.2,0,.21,0,.21,0,.21,0h.22v4.2h-.43l-.43,0-.42-.05-.41-.07-.41-.09-.4-.11-.39-.13-.38-.15-.37-.17-.36-.19-.35-.2-.34-.22-.33-.23-.32-.25-.3-.26-.29-.28-.28-.29-.26-.3-.25-.32-.23-.33-.22-.34-.2-.35-.19-.36-.17-.37-.15-.38-.13-.39-.11-.4-.09-.41-.07-.41-.05-.42,0-.42Zm7.21,5.8h2.38V298.69h-2.38Zm1.19,261.25V297.5a1.19,1.19,0,1,1,0,2.38Zm0-2.38,1.19,1.19-1.19,1.19H1.19V297.5ZM0,298.69H2.38a1.19,1.19,0,0,1-2.38,0Zm2.38,0-1.19,1.19L0,298.69V8.4H2.38ZM1.19,7.21V9.59a1.19,1.19,0,0,1,0-2.38Zm0,2.38L0,8.4,1.19,7.21H241.76V9.59Zm240.57,0V7.21a1.19,1.19,0,0,1,0,2.38Zm-2.6-1.19V8l0-.43.05-.42.07-.41.09-.41.11-.4.13-.39.15-.38.17-.37.19-.36.2-.35.22-.34.23-.33.25-.32.26-.3.28-.29.29-.28.3-.26.32-.25.33-.23.34-.22.35-.2.36-.19.37-.17.38-.15.39-.13.4-.11.41-.09.41-.07.42-.05.42,0h.43V4.2h-.22l-.21,0-.21,0-.21,0-.2,0-.2.06-.19.07-.19.08-.19.08-.18.09-.18.1-.17.11-.17.12-.16.13-.15.13-.15.14-.14.15-.13.15-.13.16-.12.17-.11.17-.1.18-.09.18-.09.19-.07.19-.07.2-.06.2,0,.2,0,.21,0,.21,0,.21V8.4Zm8.4-8.4H248l.43,0,.42.05.41.07.41.09.4.11.39.13.38.15.37.17.36.19.35.2.34.22.33.23.32.25.3.26.29.28.28.29.26.3.25.32.23.33.22.34.2.35.19.36.17.37.15.38.13.39.11.4.09.41.07.41.05.42L256,8V8.4h-4.2V8.18l0-.21,0-.21,0-.21,0-.2-.06-.2-.07-.2-.07-.19-.09-.19-.09-.18-.1-.18L251,6.06l-.12-.17-.12-.16-.13-.15-.14-.15-.15-.14-.15-.13L250.07,5l-.17-.12-.17-.11-.18-.1-.18-.09-.19-.08L249,4.45l-.19-.07-.2-.06-.2,0-.21,0-.21,0-.21,0h-.22ZM256,8.4h0v.43l0,.43-.05.42-.07.41-.09.41-.11.4-.13.39-.15.38-.17.37-.19.36-.2.35-.22.34-.23.33-.25.32-.26.3-.28.29-.29.28-.3.26-.32.25-.33.23-.34.22-.35.2-.36.19-.37.17-.38.15-.39.13-.4.11-.41.09-.41.07-.42.05-.43,0h-.43V12.6h.22l.21,0,.21,0,.21,0,.2,0,.2-.06.19-.06.19-.08.19-.08.18-.09.18-.1.17-.11.17-.12.16-.13.15-.13.15-.14.14-.15.13-.15.12-.16.12-.17.11-.17.1-.18.09-.18.09-.19.07-.19.07-.19.06-.2,0-.2,0-.21,0-.21,0-.21V8.4Zm-8.4,8.4h-.43l-.42,0-.42-.05-.41-.07-.41-.09-.4-.11-.39-.13-.38-.15-.37-.17-.36-.19-.35-.2-.34-.22-.33-.23-.32-.25-.3-.26-.29-.28-.28-.29-.26-.3-.25-.32-.23-.33-.22-.34-.2-.35L240,12l-.17-.37-.15-.38-.13-.39-.11-.4-.09-.41-.07-.41-.05-.42,0-.43V8.4h4.2v.22l0,.21,0,.21,0,.21,0,.2.06.2.07.19.07.19.09.19.09.18.1.18.11.17.12.17.13.16.13.15.14.15.15.14.15.13.16.13.17.12.17.11.18.1.18.09.19.08.19.08.19.06.2.06.2,0,.21,0,.21,0,.21,0h.22Z" style="fill: #e6e6e6"/>
    </g>
  </g>
</svg>
