<svg width="291" height="331" viewBox="0 0 291 331" fill="none" xmlns="http://www.w3.org/2000/svg">
<path d="M282.685 288.361C282.685 288.71 282.543 289.044 282.29 289.29C282.037 289.536 281.694 289.675 281.337 289.675C280.979 289.675 280.636 289.536 280.383 289.29C280.131 289.044 279.989 288.71 279.989 288.361H282.685ZM281.337 285.491V290.127H281.087H280.85H280.612H280.374H280.147L279.921 290.193L279.705 290.271L279.49 290.348L279.275 290.436L279.071 290.536L278.867 290.646L278.675 290.767L278.482 290.9L278.301 291.043L278.131 291.187L277.961 291.341L277.802 291.507L277.655 291.672L277.508 291.849L277.372 292.037L277.247 292.224L277.134 292.423L277.032 292.622L276.941 292.831L276.851 293.041L276.783 293.251L276.715 293.472V293.692V293.924V294.156V294.388V294.631H271.957V294.156V293.692L272.014 293.229L272.093 292.776L272.195 292.324L272.319 291.882L272.467 291.452L272.637 291.032L272.829 290.624L273.044 290.227L273.271 289.84L273.52 289.465L273.781 289.101L274.064 288.747L274.358 288.416L274.676 288.096L275.004 287.787L275.344 287.5L275.707 287.224L276.08 286.97L276.466 286.728L276.862 286.507L277.27 286.297L277.689 286.109L278.119 285.944L278.561 285.8L279.014 285.679L279.479 285.58L279.943 285.502L280.419 285.447H280.906L281.337 285.491ZM271.821 294.763H276.579V295.006V295.238V295.469V295.701V295.922L276.647 296.143L276.715 296.352L276.805 296.562L276.896 296.772L276.998 296.971L277.111 297.169L277.236 297.357L277.372 297.545L277.519 297.721L277.666 297.887L277.825 298.052L277.995 298.207L278.165 298.35L278.346 298.494L278.539 298.626L278.731 298.748L278.935 298.858L279.139 298.957L279.354 299.046L279.569 299.123L279.785 299.2L280.011 299.266H280.238H280.476H280.714H280.951H281.201V303.902H280.714H280.226L279.751 303.847L279.286 303.77L278.822 303.671L278.369 303.549L277.927 303.406L277.496 303.24L277.077 303.052L276.669 302.843L276.273 302.622L275.888 302.379L275.514 302.125L275.151 301.849L274.812 301.562L274.483 301.253L274.166 300.933L273.871 300.602L273.588 300.249L273.328 299.885L273.078 299.509L272.852 299.123L272.637 298.726L272.444 298.317L272.274 297.898L272.127 297.467L272.002 297.026L271.9 296.573L271.821 296.121L271.764 295.657V295.194L271.821 294.763ZM281.337 304.035V299.399H281.586H281.824H282.062H282.3H282.526L282.753 299.333L282.968 299.123L283.183 299.046L283.398 298.957L283.602 298.858L283.806 298.748L283.999 298.626L284.191 298.494L284.373 298.35L284.542 298.207L284.712 298.052L284.871 297.887L285.018 297.721L285.154 297.545L285.29 297.357L285.415 297.169L285.528 296.971L285.63 296.772L285.721 296.562L285.811 296.352L285.879 296.143L285.947 295.922V295.701V295.469V295.238V295.006V294.763H290.898V295.238V295.701L290.841 296.165L290.762 296.617L290.66 297.07L290.535 297.511L290.388 297.942L290.218 298.361L290.025 298.77L289.81 299.167L289.583 299.553L289.334 299.929L289.074 300.293L288.791 300.646L288.496 300.977L288.179 301.297L287.85 301.606L287.51 301.893L287.148 302.169L286.774 302.423L286.389 302.666L285.992 302.887L285.585 303.097L285.166 303.284L284.735 303.45L284.293 303.593L283.84 303.715L283.376 303.814L282.911 303.891L282.435 303.946H281.948L281.337 304.035ZM290.852 294.763H286.094V294.52V294.288V294.057V293.825V293.604L286.026 293.383L285.958 293.174L285.868 292.964L285.777 292.754L285.675 292.555L285.562 292.357L285.437 292.169L285.301 291.982L285.166 291.805L285.018 291.639L284.86 291.474L284.69 291.319L284.52 291.176L284.339 291.032L284.146 290.9L283.953 290.778L283.75 290.668L283.546 290.569L283.33 290.48L283.115 290.403L282.9 290.326L282.673 290.26H282.447H282.209H281.971H281.733H281.484V285.624H281.835H282.322L282.798 285.679L283.262 285.756L283.727 285.856L284.18 285.977L284.622 286.121L285.052 286.286L285.471 286.474L285.879 286.683L286.276 286.904L286.661 287.147L287.035 287.401L287.397 287.677L287.737 287.964L288.066 288.273L288.383 288.593L288.677 288.924L288.96 289.277L289.221 289.642L289.47 290.017L289.697 290.403L289.912 290.8L290.105 291.209L290.275 291.628L290.422 292.059L290.546 292.5L290.648 292.953L290.728 293.405L290.784 293.869V294.333L290.852 294.763ZM279.989 288.361V1.31349H282.685V288.361H279.989ZM281.337 0C281.694 0 282.037 0.138385 282.29 0.384713C282.543 0.63104 282.685 0.965132 282.685 1.31349C282.685 1.66185 282.543 1.99594 282.29 2.24227C282.037 2.4886 281.694 2.62698 281.337 2.62698V0ZM281.337 2.62698H2.2456V0H281.337L282.685 1.31349L281.337 2.62698ZM0.897552 1.31349C0.897552 0.965132 1.03958 0.63104 1.29239 0.384713C1.54519 0.138385 1.88808 0 2.2456 0C2.60312 0 2.946 0.138385 3.19881 0.384713C3.45162 0.63104 3.59365 0.965132 3.59365 1.31349H0.897552ZM3.59365 1.31349V321.728H0.897552V1.31349L2.2456 0L3.59365 1.31349ZM2.2456 323.042C1.88808 323.042 1.54519 322.903 1.29239 322.657C1.03958 322.411 0.897552 322.077 0.897552 321.728C0.897552 321.38 1.03958 321.046 1.29239 320.8C1.54519 320.553 1.88808 320.415 2.2456 320.415V323.042ZM2.2456 320.415H274.766V323.042H2.2456L0.897552 321.728L2.2456 320.415ZM274.766 320.415C275.124 320.415 275.467 320.553 275.72 320.8C275.972 321.046 276.114 321.38 276.114 321.728C276.114 322.077 275.972 322.411 275.72 322.657C275.467 322.903 275.124 323.042 274.766 323.042V320.415ZM271.821 321.728V321.198V320.724L271.878 320.26L271.957 319.808L272.059 319.355L272.183 318.914L272.331 318.483L272.501 318.064L272.693 317.655L272.908 317.258L273.135 316.872L273.384 316.496L273.645 316.132L273.928 315.779L274.223 315.448L274.54 315.128L274.868 314.819L275.208 314.532L275.571 314.256L275.944 314.002L276.33 313.759L276.726 313.538L277.134 313.329L277.553 313.141L277.983 312.975L278.425 312.832L278.878 312.71L279.343 312.611L279.807 312.534L280.283 312.479H280.77H281.257V317.114H281.008H280.77H280.532H280.294H280.068L279.841 317.181L279.626 317.247L279.411 317.335L279.196 317.424L278.992 317.523L278.788 317.633L278.595 317.755L278.403 317.887L278.221 318.031L278.051 318.174L277.882 318.329L277.723 318.494L277.576 318.66L277.44 318.836L277.304 319.024L277.179 319.212L277.066 319.41L276.964 319.609L276.862 319.819L276.783 320.028L276.703 320.238L276.635 320.459V320.68V320.911V321.143V321.375V321.618L271.821 321.728ZM281.337 312.457H281.835H282.322L282.798 312.512L283.262 312.589L283.727 312.688L284.18 312.81L284.622 312.953L285.052 313.119L285.471 313.306L285.879 313.516L286.276 313.737L286.661 313.98L287.035 314.234L287.397 314.51L287.737 314.797L288.066 315.106L288.383 315.426L288.677 315.757L288.96 316.11L289.221 316.474L289.47 316.85L289.697 317.236L289.912 317.633L290.105 318.042L290.275 318.461L290.422 318.892L290.546 319.333L290.648 319.786L290.728 320.238L290.784 320.702V321.176V321.651H286.026V321.408V321.176V320.945V320.713V320.492L285.958 320.271L285.879 320.062L285.8 319.852L285.698 319.642L285.596 319.443L285.483 319.245L285.358 319.057L285.222 318.87L285.075 318.693L284.928 318.527L284.769 318.362L284.599 318.207L284.429 318.064L284.248 317.92L284.055 317.788L283.863 317.666L283.659 317.556L283.455 317.457L283.24 317.368L283.025 317.28L282.809 317.214L282.583 317.148H282.356H282.118H281.88H281.642H281.393L281.337 312.457ZM290.852 321.728V322.203V322.678L290.796 323.141L290.716 323.594L290.614 324.046L290.49 324.488L290.342 324.918L290.173 325.338L289.98 325.746L289.765 326.143L289.538 326.53L289.289 326.905L289.028 327.269L288.745 327.622L288.451 327.954L288.133 328.274L287.805 328.583L287.465 328.87L287.103 329.146L286.729 329.4L286.344 329.642L285.947 329.863L285.539 330.073L285.12 330.26L284.69 330.426L284.248 330.569L283.795 330.691L283.33 330.79L282.866 330.868L282.39 330.923H281.903H281.416V326.287H281.665H281.903H282.141H282.379H282.605L282.832 326.221L283.047 326.143L283.262 326.055L283.478 325.967L283.682 325.867L283.885 325.757L284.078 325.636L284.271 325.503L284.452 325.36L284.622 325.216L284.792 325.062L284.95 324.896L285.098 324.731L285.245 324.554L285.381 324.366L285.505 324.179L285.619 323.98L285.721 323.781L285.823 323.572L285.902 323.362L285.981 323.152L286.049 322.931V322.711V322.479V322.247V322.015V321.772L290.852 321.728ZM281.337 331H280.85H280.362L279.887 330.945L279.422 330.868L278.958 330.768L278.505 330.647L278.063 330.503L277.632 330.338L277.213 330.15L276.805 329.94L276.409 329.72L276.024 329.477L275.65 329.223L275.287 328.947L274.948 328.66L274.619 328.351L274.302 328.031L274.007 327.7L273.724 327.346L273.464 326.982L273.214 326.607L272.988 326.221L272.773 325.823L272.58 325.415L272.41 324.995L272.263 324.565L272.138 324.123L272.036 323.671L271.957 323.218L271.9 322.755V322.28V321.806H276.658V322.048V322.28V322.512V322.744V322.965L276.726 323.185L276.805 323.395L276.885 323.605L276.987 323.814L277.089 324.013L277.202 324.212L277.326 324.399L277.462 324.587L277.598 324.764L277.746 324.929L277.904 325.095L278.074 325.249L278.244 325.393L278.425 325.536L278.618 325.669L278.81 325.79L279.014 325.901L279.218 326L279.433 326.088L279.649 326.176L279.864 326.254L280.091 326.32H280.317H280.555H280.793H281.031H281.28L281.337 331Z" fill="#E6E6E6"/>
</svg>
