<svg width="501" height="587" viewBox="0 0 501 587" fill="none" xmlns="http://www.w3.org/2000/svg">
<path d="M486.737 511.384C486.737 512.001 486.493 512.594 486.057 513.031C485.621 513.468 485.03 513.713 484.413 513.713C483.797 513.713 483.206 513.468 482.77 513.031C482.334 512.594 482.089 512.001 482.089 511.384H486.737ZM484.413 506.294V514.516H483.983H483.573H483.163H482.753H482.362L481.972 514.633L481.601 514.77L481.23 514.907L480.859 515.064L480.507 515.24L480.155 515.436L479.823 515.651L479.491 515.886L479.179 516.14L478.886 516.395L478.593 516.669L478.319 516.962L478.066 517.256L477.812 517.569L477.577 517.902L477.362 518.235L477.167 518.587L476.991 518.939L476.835 519.311L476.679 519.683L476.562 520.055L476.444 520.447V520.838V521.249V521.66V522.071V522.502H468.241V521.66V520.838L468.339 520.016L468.476 519.213L468.651 518.411L468.866 517.628L469.12 516.865L469.413 516.121L469.745 515.396L470.116 514.692L470.507 514.007L470.937 513.341L471.386 512.695L471.874 512.069L472.382 511.482L472.929 510.914L473.495 510.366L474.081 509.857L474.706 509.368L475.351 508.917L476.015 508.487L476.698 508.095L477.401 507.723L478.124 507.39L478.866 507.097L479.628 506.842L480.409 506.627L481.21 506.451L482.011 506.314L482.831 506.216H483.671L484.413 506.294ZM468.007 522.737H476.21V523.168V523.579V523.99V524.401V524.792L476.327 525.184L476.444 525.556L476.601 525.928L476.757 526.299L476.933 526.652L477.128 527.004L477.343 527.337L477.577 527.67L477.831 527.983L478.085 528.276L478.359 528.57L478.651 528.844L478.944 529.099L479.257 529.353L479.589 529.588L479.921 529.803L480.273 529.999L480.624 530.175L480.995 530.332L481.366 530.469L481.737 530.606L482.128 530.723H482.519H482.929H483.339H483.749H484.179V538.945H483.339H482.499L481.679 538.847L480.878 538.71L480.077 538.534L479.296 538.318L478.534 538.064L477.792 537.77L477.069 537.437L476.366 537.065L475.683 536.674L475.019 536.243L474.374 535.793L473.749 535.304L473.163 534.795L472.597 534.247L472.05 533.679L471.542 533.092L471.054 532.465L470.605 531.819L470.175 531.154L469.784 530.469L469.413 529.764L469.081 529.04L468.788 528.296L468.534 527.533L468.319 526.75L468.144 525.947L468.007 525.145L467.909 524.322V523.5L468.007 522.737ZM484.413 539.18V530.958H484.843H485.253H485.663H486.073H486.464L486.855 530.841L487.226 530.469L487.597 530.332L487.968 530.175L488.319 529.999L488.671 529.803L489.003 529.588L489.335 529.353L489.648 529.099L489.941 528.844L490.233 528.57L490.507 528.276L490.761 527.983L490.995 527.67L491.23 527.337L491.444 527.004L491.64 526.652L491.816 526.299L491.972 525.928L492.128 525.556L492.245 525.184L492.362 524.792V524.401V523.99V523.579V523.168V522.737H500.898V523.579V524.401L500.8 525.223L500.663 526.025L500.487 526.828L500.273 527.611L500.019 528.374L499.726 529.118L499.394 529.842L499.023 530.547L498.632 531.232L498.202 531.898L497.753 532.544L497.265 533.17L496.757 533.757L496.21 534.325L495.644 534.873L495.058 535.382L494.433 535.871L493.788 536.322L493.124 536.752L492.441 537.144L491.737 537.516L491.015 537.848L490.273 538.142L489.511 538.396L488.73 538.612L487.929 538.788L487.128 538.925L486.308 539.023H485.468L484.413 539.18ZM500.819 522.737H492.616V522.306V521.895V521.484V521.073V520.682L492.499 520.29L492.382 519.918L492.226 519.546L492.069 519.174L491.894 518.822L491.698 518.47L491.483 518.137L491.249 517.804L491.015 517.491L490.761 517.197L490.487 516.904L490.194 516.63L489.901 516.375L489.589 516.121L489.257 515.886L488.925 515.671L488.573 515.475L488.222 515.299L487.851 515.142L487.48 515.005L487.108 514.868L486.718 514.751H486.327H485.917H485.507H485.097H484.667V506.529H485.273H486.112L486.933 506.627L487.733 506.764L488.534 506.94L489.316 507.156L490.077 507.41L490.819 507.704L491.542 508.036L492.245 508.408L492.929 508.8L493.593 509.23L494.237 509.681L494.862 510.17L495.448 510.679L496.015 511.227L496.562 511.795L497.069 512.382L497.558 513.008L498.007 513.654L498.437 514.32L498.827 515.005L499.198 515.71L499.53 516.434L499.823 517.178L500.077 517.941L500.292 518.724L500.468 519.527L500.605 520.329L500.702 521.151V521.974L500.819 522.737ZM482.089 511.384V2.32937H486.737V511.384H482.089ZM484.413 0C485.03 0 485.621 0.245415 486.057 0.682255C486.493 1.1191 486.737 1.71158 486.737 2.32937C486.737 2.94715 486.493 3.53963 486.057 3.97647C485.621 4.41332 485.03 4.65873 484.413 4.65873V0ZM484.413 4.65873H3.22177V0H484.413L486.737 2.32937L484.413 4.65873ZM0.897552 2.32937C0.897552 1.71158 1.14242 1.1191 1.5783 0.682255C2.01418 0.245415 2.60535 0 3.22177 0C3.83819 0 4.42937 0.245415 4.86524 0.682255C5.30112 1.1191 5.54599 1.71158 5.54599 2.32937H0.897552ZM5.54599 2.32937V570.557H0.897552V2.32937L3.22177 0L5.54599 2.32937ZM3.22177 572.887C2.60535 572.887 2.01418 572.641 1.5783 572.205C1.14242 571.768 0.897552 571.175 0.897552 570.557C0.897552 569.94 1.14242 569.347 1.5783 568.91C2.01418 568.473 2.60535 568.228 3.22177 568.228V572.887ZM3.22177 568.228H473.085V572.887H3.22177L0.897552 570.557L3.22177 568.228ZM473.085 568.228C473.701 568.228 474.293 568.473 474.729 568.91C475.164 569.347 475.409 569.94 475.409 570.557C475.409 571.175 475.164 571.768 474.729 572.205C474.293 572.641 473.701 572.887 473.085 572.887V568.228ZM468.007 570.557V569.618V568.776L468.105 567.954L468.241 567.151L468.417 566.349L468.632 565.566L468.886 564.803L469.179 564.059L469.511 563.334L469.882 562.63L470.273 561.945L470.702 561.279L471.151 560.633L471.64 560.007L472.148 559.42L472.694 558.852L473.261 558.304L473.847 557.795L474.472 557.305L475.116 556.855L475.78 556.425L476.464 556.033L477.167 555.661L477.89 555.328L478.632 555.035L479.394 554.78L480.175 554.565L480.976 554.389L481.776 554.252L482.597 554.154H483.437H484.276V562.375H483.847H483.437H483.026H482.616H482.226L481.835 562.493L481.464 562.61L481.093 562.767L480.722 562.923L480.37 563.1L480.019 563.295L479.687 563.511L479.355 563.745L479.042 564L478.749 564.254L478.456 564.528L478.183 564.822L477.929 565.116L477.694 565.429L477.46 565.762L477.245 566.094L477.05 566.447L476.874 566.799L476.698 567.171L476.562 567.543L476.425 567.915L476.308 568.306V568.698V569.109V569.52V569.931V570.362L468.007 570.557ZM484.413 554.115H485.273H486.112L486.933 554.213L487.733 554.35L488.534 554.526L489.316 554.741L490.077 554.996L490.819 555.289L491.542 555.622L492.245 555.994L492.929 556.385L493.593 556.816L494.237 557.266L494.862 557.756L495.448 558.265L496.015 558.813L496.562 559.38L497.069 559.968L497.558 560.594L498.007 561.24L498.437 561.905L498.827 562.591L499.198 563.295L499.53 564.02L499.823 564.763L500.077 565.527L500.292 566.31L500.468 567.112L500.605 567.915L500.702 568.737V569.579V570.42H492.499V569.99V569.579V569.168V568.757V568.365L492.382 567.974L492.245 567.602L492.108 567.23L491.933 566.858L491.757 566.505L491.562 566.153L491.347 565.82L491.112 565.488L490.858 565.174L490.605 564.881L490.331 564.587L490.038 564.313L489.745 564.059L489.433 563.804L489.101 563.569L488.769 563.354L488.417 563.158L488.066 562.982L487.694 562.825L487.323 562.669L486.952 562.551L486.562 562.434H486.171H485.761H485.351H484.941H484.511L484.413 554.115ZM500.819 570.557V571.399V572.241L500.722 573.063L500.585 573.866L500.409 574.668L500.194 575.451L499.941 576.214L499.648 576.958L499.316 577.683L498.944 578.387L498.554 579.072L498.124 579.738L497.675 580.384L497.187 581.01L496.679 581.597L496.132 582.165L495.566 582.713L494.98 583.222L494.355 583.711L493.71 584.162L493.046 584.592L492.362 584.984L491.659 585.356L490.937 585.688L490.194 585.982L489.433 586.237L488.651 586.452L487.851 586.628L487.05 586.765L486.23 586.863H485.39H484.55V578.642H484.98H485.39H485.8H486.21H486.601L486.991 578.524L487.362 578.387L487.733 578.231L488.105 578.074L488.456 577.898L488.808 577.702L489.14 577.487L489.472 577.252L489.784 576.997L490.077 576.743L490.37 576.469L490.644 576.175L490.898 575.882L491.151 575.568L491.386 575.236L491.601 574.903L491.796 574.551L491.972 574.198L492.148 573.826L492.284 573.454L492.421 573.082L492.538 572.691V572.3V571.888V571.477V571.066V570.636L500.819 570.557ZM484.413 587H483.573H482.733L481.913 586.902L481.112 586.765L480.312 586.589L479.53 586.374L478.769 586.119L478.026 585.826L477.304 585.493L476.601 585.121L475.917 584.729L475.253 584.299L474.608 583.848L473.983 583.359L473.398 582.85L472.831 582.302L472.284 581.734L471.776 581.147L471.288 580.521L470.839 579.875L470.409 579.209L470.019 578.524L469.648 577.82L469.316 577.095L469.023 576.351L468.769 575.588L468.554 574.805L468.378 574.002L468.241 573.2L468.144 572.378V571.536V570.694H476.347V571.125V571.536V571.947V572.358V572.75L476.464 573.141L476.601 573.513L476.737 573.885L476.913 574.257L477.089 574.609L477.284 574.962L477.499 575.294L477.733 575.627L477.968 575.94L478.222 576.234L478.495 576.528L478.788 576.802L479.081 577.056L479.394 577.311L479.726 577.545L480.058 577.761L480.409 577.957L480.761 578.133L481.132 578.289L481.503 578.446L481.874 578.583L482.265 578.7H482.655H483.066H483.476H483.886H484.316L484.413 587Z" fill="#C16FD1"/>
</svg>
