<svg width="256" height="300" viewBox="0 0 256 300" fill="none" xmlns="http://www.w3.org/2000/svg">
<g clip-path="url(#clip0)">
<path d="M248.75 38.63H246.37C246.37 38.3144 246.495 38.0117 246.719 37.7885C246.942 37.5654 247.244 37.44 247.56 37.44C247.876 37.44 248.178 37.5654 248.401 37.7885C248.625 38.0117 248.75 38.3144 248.75 38.63ZM247.56 41.23V37H247.78H247.99H248.2H248.41H248.61L248.81 36.94L249 36.87L249.19 36.8L249.38 36.72L249.56 36.63L249.74 36.53L249.91 36.42L250.08 36.3L250.24 36.17L250.39 36.04L250.54 35.9L250.68 35.75L250.81 35.6L250.94 35.44L251.06 35.27L251.17 35.1L251.27 34.92L251.36 34.74L251.44 34.55L251.52 34.36L251.58 34.17L251.64 33.97V33.77V33.56V33.35V33.14V32.92H256V33.35V33.77L255.95 34.19L255.88 34.6L255.79 35.01L255.68 35.41L255.55 35.8L255.4 36.18L255.23 36.55L255.04 36.91L254.84 37.26L254.62 37.6L254.39 37.93L254.14 38.25L253.88 38.55L253.6 38.84L253.31 39.12L253.01 39.38L252.69 39.63L252.36 39.86L252.02 40.08L251.67 40.28L251.31 40.47L250.94 40.64L250.56 40.79L250.17 40.92L249.77 41.03L249.36 41.12L248.95 41.19L248.53 41.24H248.1L247.56 41.23ZM255.96 32.83H251.76V32.61V32.4V32.19V31.98V31.78L251.7 31.58L251.64 31.38L251.56 31.19L251.48 31L251.39 30.82L251.29 30.64L251.18 30.47L251.06 30.3L250.93 30.14L250.8 29.99L250.66 29.84L250.51 29.7L250.36 29.57L250.2 29.44L250.03 29.32L249.86 29.21L249.68 29.11L249.5 29.02L249.31 28.94L249.12 28.87L248.93 28.8L248.73 28.74H248.53H248.32H248.11H247.9H247.68V24.54H248H248.43L248.85 24.59L249.26 24.66L249.67 24.75L250.07 24.86L250.46 24.99L250.84 25.14L251.21 25.31L251.57 25.5L251.92 25.7L252.26 25.92L252.59 26.15L252.91 26.4L253.21 26.66L253.5 26.94L253.78 27.23L254.04 27.53L254.29 27.85L254.52 28.18L254.74 28.52L254.94 28.87L255.13 29.23L255.3 29.6L255.45 29.98L255.58 30.37L255.69 30.77L255.78 31.18L255.85 31.59L255.9 32.01V32.43L255.96 32.83ZM247.56 24.43V28.63H247.34H247.13H246.92H246.71H246.51L246.31 28.69L246.12 28.76L245.93 28.83L245.74 28.91L245.56 29L245.38 29.1L245.21 29.21L245.04 29.33L244.88 29.46L244.73 29.59L244.58 29.73L244.44 29.88L244.31 30.03L244.18 30.19L244.06 30.36L243.95 30.53L243.85 30.71L243.76 30.89L243.68 31.08L243.6 31.27L243.54 31.47L243.48 31.67V31.87V32.08V32.29V32.5V32.72H239.28V32.29V31.87L239.33 31.45L239.4 31.04L239.49 30.63L239.6 30.23L239.73 29.84L239.88 29.46L240.05 29.09L240.24 28.73L240.44 28.38L240.66 28.04L240.89 27.71L241.14 27.39L241.4 27.09L241.68 26.8L241.97 26.52L242.27 26.26L242.59 26.01L242.92 25.78L243.26 25.56L243.61 25.36L243.97 25.17L244.34 25L244.72 24.85L245.11 24.72L245.51 24.61L245.92 24.52L246.33 24.45L246.75 24.4H247.18L247.56 24.43ZM239.16 32.83H243.36V33V33.21V33.42V33.63V33.83L243.42 34.03L243.48 34.22L243.56 34.41L243.64 34.6L243.73 34.78L243.83 34.96L243.94 35.13L244.06 35.3L244.19 35.46L244.32 35.61L244.46 35.76L244.61 35.9L244.76 36.03L244.92 36.16L245.09 36.28L245.26 36.39L245.44 36.49L245.62 36.58L245.81 36.66L246 36.73L246.19 36.8L246.39 36.86H246.59H246.8H247.01H247.22H247.44V41.06H247.01H246.58L246.16 41.01L245.75 40.94L245.34 40.85L244.94 40.74L244.55 40.61L244.17 40.46L243.8 40.29L243.44 40.1L243.09 39.9L242.75 39.68L242.42 39.45L242.1 39.2L241.8 38.94L241.51 38.66L241.23 38.37L240.97 38.07L240.72 37.75L240.49 37.42L240.27 37.08L240.07 36.73L239.88 36.37L239.71 36L239.56 35.62L239.43 35.23L239.32 34.83L239.23 34.42L239.16 34.01L239.11 33.59V33.17L239.16 32.83ZM246.37 38.63H248.75V298.69H246.37V38.63ZM247.56 299.88V297.5C247.876 297.5 248.178 297.625 248.401 297.849C248.625 298.072 248.75 298.374 248.75 298.69C248.75 299.006 248.625 299.308 248.401 299.531C248.178 299.755 247.876 299.88 247.56 299.88ZM247.56 297.5L248.75 298.69L247.56 299.88H1.19V297.5H247.56ZM0 298.69H2.38C2.38 299.006 2.25463 299.308 2.03146 299.531C1.80829 299.755 1.50561 299.88 1.19 299.88C0.874392 299.88 0.571711 299.755 0.348543 299.531C0.125375 299.308 0 299.006 0 298.69H0ZM2.38 298.69L1.19 299.88L0 298.69V8.4H2.38V298.69ZM1.19 7.21V9.59C0.874392 9.59 0.571711 9.46463 0.348543 9.24146C0.125375 9.01829 0 8.71561 0 8.4C0 8.08439 0.125375 7.78171 0.348543 7.55854C0.571711 7.33537 0.874392 7.21 1.19 7.21V7.21ZM1.19 9.59L0 8.4L1.19 7.21H241.76V9.59H1.19ZM241.76 9.59V7.21C242.076 7.21 242.378 7.33537 242.601 7.55854C242.825 7.78171 242.95 8.08439 242.95 8.4C242.95 8.71561 242.825 9.01829 242.601 9.24146C242.378 9.46463 242.076 9.59 241.76 9.59V9.59ZM239.16 8.4V8V7.57L239.21 7.15L239.28 6.74L239.37 6.33L239.48 5.93L239.61 5.54L239.76 5.16L239.93 4.79L240.12 4.43L240.32 4.08L240.54 3.74L240.77 3.41L241.02 3.09L241.28 2.79L241.56 2.5L241.85 2.22L242.15 1.96L242.47 1.71L242.8 1.48L243.14 1.26L243.49 1.06L243.85 0.87L244.22 0.7L244.6 0.55L244.99 0.42L245.39 0.31L245.8 0.22L246.21 0.15L246.63 0.1H247.05H247.48V4.2H247.26H247.05H246.84H246.63H246.43L246.23 4.26L246.04 4.33L245.85 4.41L245.66 4.49L245.48 4.58L245.3 4.68L245.13 4.79L244.96 4.91L244.8 5.04L244.65 5.17L244.5 5.31L244.36 5.46L244.23 5.61L244.1 5.77L243.98 5.94L243.87 6.11L243.77 6.29L243.68 6.47L243.59 6.66L243.52 6.85L243.45 7.05L243.39 7.25V7.45V7.66V7.87V8.08V8.4H239.16ZM247.56 0H248H248.43L248.85 0.05L249.26 0.12L249.67 0.21L250.07 0.32L250.46 0.45L250.84 0.6L251.21 0.77L251.57 0.96L251.92 1.16L252.26 1.38L252.59 1.61L252.91 1.86L253.21 2.12L253.5 2.4L253.78 2.69L254.04 2.99L254.29 3.31L254.52 3.64L254.74 3.98L254.94 4.33L255.13 4.69L255.3 5.06L255.45 5.44L255.58 5.83L255.69 6.23L255.78 6.64L255.85 7.05L255.9 7.47L256 8V8.4H251.8V8.18V7.97V7.76V7.55V7.35L251.74 7.15L251.67 6.95L251.6 6.76L251.51 6.57L251.42 6.39L251.32 6.21L251 6.06L250.88 5.89L250.76 5.73L250.63 5.58L250.49 5.43L250.34 5.29L250.19 5.16L250.07 5L249.9 4.88L249.73 4.77L249.55 4.67L249.37 4.58L249.18 4.5L249 4.45L248.81 4.38L248.61 4.32H248.41H248.2H247.99H247.78H247.56V0ZM256 8.4V8.83V9.26L255.95 9.68L255.88 10.09L255.79 10.5L255.68 10.9L255.55 11.29L255.4 11.67L255.23 12.04L255.04 12.4L254.84 12.75L254.62 13.09L254.39 13.42L254.14 13.74L253.88 14.04L253.6 14.33L253.31 14.61L253.01 14.87L252.69 15.12L252.36 15.35L252.02 15.57L251.67 15.77L251.31 15.96L250.94 16.13L250.56 16.28L250.17 16.41L249.77 16.52L249.36 16.61L248.95 16.68L248.53 16.73H248.1H247.67V12.6H247.89H248.1H248.31H248.52H248.72L248.92 12.54L249.11 12.48L249.3 12.4L249.49 12.32L249.67 12.23L249.85 12.13L250.02 12.02L250.19 11.9L250.35 11.77L250.5 11.64L250.65 11.5L250.79 11.35L250.92 11.2L251.04 11.04L251.16 10.87L251.27 10.7L251.37 10.52L251.46 10.34L251.55 10.15L251.62 9.96L251.69 9.77L251.75 9.57V9.37V9.16V8.95V8.74V8.4H256ZM247.6 16.8H247.17H246.75L246.33 16.75L245.92 16.68L245.51 16.59L245.11 16.48L244.72 16.35L244.34 16.2L243.97 16.03L243.61 15.84L243.26 15.64L242.92 15.42L242.59 15.19L242.27 14.94L241.97 14.68L241.68 14.4L241.4 14.11L241.14 13.81L240.89 13.49L240.66 13.16L240.44 12.82L240.24 12.47L240 12L239.83 11.63L239.68 11.25L239.55 10.86L239.44 10.46L239.35 10.05L239.28 9.64L239.23 9.22V8.79V8.4H243.43V8.62V8.83V9.04V9.25V9.45L243.49 9.65L243.56 9.84L243.63 10.03L243.72 10.22L243.81 10.4L243.91 10.58L244.02 10.75L244.14 10.92L244.27 11.08L244.4 11.23L244.54 11.38L244.69 11.52L244.84 11.65L245 11.78L245.17 11.9L245.34 12.01L245.52 12.11L245.7 12.2L245.89 12.28L246.08 12.36L246.27 12.42L246.47 12.48H246.67H246.88H247.09H247.3H247.52L247.6 16.8Z" fill="#C16FD1"/>
</g>
<defs>
<clipPath id="clip0">
<rect width="255.96" height="299.88" fill="white"/>
</clipPath>
</defs>
</svg>
