<svg width="290" height="331" viewBox="0 0 290 331" fill="none" xmlns="http://www.w3.org/2000/svg">
<path d="M281.787 42.6388H279.091C279.091 42.2905 279.233 41.9564 279.486 41.71C279.739 41.4637 280.082 41.3253 280.439 41.3253C280.797 41.3253 281.139 41.4637 281.392 41.71C281.645 41.9564 281.787 42.2905 281.787 42.6388ZM280.439 45.5086V40.8397H280.688H280.926H281.164H281.402H281.629L281.855 40.7734L282.07 40.6962L282.286 40.6189L282.501 40.5306L282.705 40.4313L282.909 40.3209L283.101 40.1995L283.294 40.067L283.475 39.9235L283.645 39.78L283.815 39.6255L283.973 39.4599L284.121 39.2944L284.268 39.1178L284.404 38.9301L284.529 38.7425L284.642 38.5438L284.744 38.3451L284.834 38.1354L284.925 37.9257L284.993 37.716L285.061 37.4952V37.2745V37.0427V36.8109V36.5791V36.3363H290V36.8109V37.2745L289.943 37.7381L289.864 38.1906L289.762 38.6432L289.637 39.0847L289.49 39.5151L289.32 39.9346L289.128 40.343L288.912 40.7403L288.686 41.1266L288.437 41.5019L288.176 41.8662L287.893 42.2194L287.598 42.5505L287.281 42.8706L286.953 43.1797L286.613 43.4667L286.25 43.7426L285.877 43.9965L285.491 44.2393L285.095 44.46L284.687 44.6698L284.268 44.8574L283.837 45.023L283.396 45.1665L282.943 45.2879L282.478 45.3872L282.014 45.4645L281.538 45.5197H281.051L280.439 45.5086ZM289.955 36.2369H285.197V35.9941V35.7623V35.5305V35.2987V35.078L285.129 34.8572L285.061 34.6365L284.97 34.4267L284.88 34.217L284.778 34.0183L284.664 33.8197L284.54 33.632L284.404 33.4444L284.257 33.2678L284.109 33.1022L283.951 32.9366L283.781 32.7821L283.611 32.6386L283.43 32.4951L283.237 32.3627L283.045 32.2413L282.841 32.1309L282.637 32.0315L282.421 31.9432L282.206 31.866L281.991 31.7887L281.764 31.7225H281.538H281.3H281.062H280.824H280.575V27.0866H280.938H281.425L281.9 27.1418L282.365 27.2191L282.829 27.3184L283.282 27.4398L283.724 27.5833L284.155 27.7489L284.574 27.9365L284.982 28.1463L285.378 28.367L285.763 28.6098L286.137 28.8637L286.5 29.1397L286.839 29.4266L287.168 29.7357L287.485 30.0558L287.78 30.3869L288.063 30.7401L288.323 31.1044L288.573 31.4797L288.799 31.866L289.014 32.2633L289.207 32.6717L289.377 33.0912L289.524 33.5216L289.649 33.9632L289.751 34.4157L289.83 34.8682L289.887 35.3318V35.7954L289.955 36.2369ZM280.439 26.9652V31.6011H280.19H279.952H279.714H279.476H279.25L279.023 31.6673L278.808 31.7446L278.593 31.8218L278.377 31.9101L278.173 32.0095L277.97 32.1198L277.777 32.2413L277.584 32.3737L277.403 32.5172L277.233 32.6607L277.063 32.8152L276.905 32.9808L276.757 33.1464L276.61 33.323L276.474 33.5106L276.35 33.6982L276.236 33.8969L276.134 34.0956L276.044 34.3053L275.953 34.515L275.885 34.7358L275.817 34.9565V35.1773V35.4091V35.6409V35.8727V36.1155H271.059V35.6409V35.1773L271.116 34.7137L271.195 34.2612L271.297 33.8086L271.422 33.3671L271.569 32.9366L271.739 32.5172L271.932 32.1088L272.147 31.7114L272.373 31.3251L272.623 30.9498L272.883 30.5856L273.166 30.2324L273.461 29.9013L273.778 29.5812L274.107 29.2721L274.446 28.9851L274.809 28.7092L275.183 28.4553L275.568 28.2125L275.964 27.9917L276.372 27.782L276.791 27.5944L277.222 27.4288L277.664 27.2853L278.117 27.1639L278.581 27.0646L279.046 26.9873L279.521 26.9321H280.009L280.439 26.9652ZM270.923 36.2369H275.681V36.4246V36.6564V36.8882V37.1199V37.3407L275.749 37.5615L275.817 37.7712L275.908 37.9809L275.998 38.1906L276.1 38.3893L276.214 38.588L276.338 38.7756L276.474 38.9632L276.621 39.1399L276.769 39.3054L276.927 39.471L277.097 39.6255L277.267 39.769L277.448 39.9125L277.641 40.0449L277.834 40.1664L278.038 40.2767L278.241 40.3761L278.457 40.4644L278.672 40.5416L278.887 40.6189L279.114 40.6851H279.34H279.578H279.816H280.054H280.303V45.321H279.816H279.329L278.853 45.2658L278.389 45.1885L277.924 45.0892L277.471 44.9678L277.029 44.8243L276.599 44.6587L276.18 44.4711L275.772 44.2614L275.375 44.0406L274.99 43.7978L274.616 43.5439L274.254 43.268L273.914 42.981L273.586 42.6719L273.268 42.3518L272.974 42.0207L272.691 41.6675L272.43 41.3033L272.181 40.928L271.954 40.5416L271.739 40.1443L271.546 39.7359L271.377 39.3165L271.229 38.886L271.105 38.4445L271.003 37.9919L270.923 37.5394L270.867 37.0758V36.6122L270.923 36.2369ZM279.091 42.6388H281.787V329.686H279.091V42.6388ZM280.439 331V328.373C280.797 328.373 281.139 328.511 281.392 328.758C281.645 329.004 281.787 329.338 281.787 329.686C281.787 330.035 281.645 330.369 281.392 330.615C281.139 330.862 280.797 331 280.439 331ZM280.439 328.373L281.787 329.686L280.439 331H1.34805V328.373H280.439ZM0 329.686H2.69609C2.69609 330.035 2.55407 330.369 2.30126 330.615C2.04845 330.862 1.70557 331 1.34805 331C0.990523 331 0.647642 330.862 0.394834 330.615C0.142026 330.369 0 330.035 0 329.686H0ZM2.69609 329.686L1.34805 331L0 329.686V9.27171H2.69609V329.686ZM1.34805 7.95822V10.5852C0.990523 10.5852 0.647642 10.4468 0.394834 10.2005C0.142026 9.95416 0 9.62007 0 9.27171C0 8.92335 0.142026 8.58926 0.394834 8.34293C0.647642 8.0966 0.990523 7.95822 1.34805 7.95822V7.95822ZM1.34805 10.5852L0 9.27171L1.34805 7.95822H273.869V10.5852H1.34805ZM273.869 10.5852V7.95822C274.226 7.95822 274.569 8.0966 274.822 8.34293C275.075 8.58926 275.217 8.92335 275.217 9.27171C275.217 9.62007 275.075 9.95416 274.822 10.2005C274.569 10.4468 274.226 10.5852 273.869 10.5852V10.5852ZM270.923 9.27171V8.8302V8.35558L270.98 7.89199L271.059 7.43944L271.161 6.98689L271.286 6.54538L271.433 6.11491L271.603 5.69548L271.796 5.28708L272.011 4.88972L272.238 4.5034L272.487 4.12812L272.747 3.76387L273.03 3.41066L273.325 3.07953L273.642 2.75944L273.971 2.45038L274.311 2.1634L274.673 1.88745L275.047 1.63359L275.432 1.39076L275.829 1.17L276.236 0.960284L276.655 0.772642L277.086 0.607076L277.528 0.463585L277.981 0.34217L278.445 0.24283L278.91 0.165566L279.386 0.110377H279.861H280.348V4.63585H280.099H279.861H279.623H279.386H279.159L278.932 4.70208L278.717 4.77934L278.502 4.86765L278.287 4.95595L278.083 5.05529L277.879 5.16567L277.686 5.28708L277.494 5.41953L277.313 5.56302L277.143 5.70652L276.973 5.86104L276.814 6.02661L276.667 6.19218L276.52 6.36878L276.384 6.55642L276.259 6.74406L276.146 6.94274L276.044 7.14142L275.942 7.35114L275.863 7.56086L275.783 7.78161L275.715 8.00237V8.22312V8.45491V8.68671V8.9185V9.27171H270.923ZM280.439 0H280.938H281.425L281.9 0.0551887L282.365 0.132453L282.829 0.231793L283.282 0.353208L283.724 0.496699L284.155 0.662265L284.574 0.849907L284.982 1.05962L285.378 1.28038L285.763 1.52321L286.137 1.77708L286.5 2.05302L286.839 2.34L287.168 2.64906L287.485 2.96915L287.78 3.30029L288.063 3.65349L288.323 4.01774L288.573 4.39302L288.799 4.77934L289.014 5.1767L289.207 5.5851L289.377 6.00453L289.524 6.43501L289.649 6.87652L289.751 7.32906L289.83 7.78161L289.887 8.2452L290 8.8302V9.27171H285.242V9.02888V8.79708V8.56529V8.3335V8.11274L285.174 7.89199L285.095 7.67123L285.016 7.46152L284.914 7.2518L284.812 7.05312L284.698 6.85444L284.336 6.68888L284.2 6.50123L284.064 6.32463L283.917 6.15906L283.758 5.9935L283.588 5.83897L283.418 5.69548L283.282 5.51887L283.09 5.38642L282.897 5.26501L282.693 5.15463L282.489 5.05529L282.274 4.96699L282.07 4.9118L281.855 4.83453L281.629 4.76831H281.402H281.164H280.926H280.688H280.439V0ZM290 9.27171V9.74633V10.221L289.943 10.6845L289.864 11.1371L289.762 11.5896L289.637 12.0311L289.49 12.4616L289.32 12.8811L289.128 13.2894L288.912 13.6868L288.686 14.0731L288.437 14.4484L288.176 14.8127L287.893 15.1659L287.598 15.497L287.281 15.8171L286.953 16.1261L286.613 16.4131L286.25 16.6891L285.877 16.9429L285.491 17.1858L285.095 17.4065L284.687 17.6162L284.268 17.8039L283.837 17.9695L283.396 18.1129L282.943 18.2344L282.478 18.3337L282.014 18.411L281.538 18.4662H281.051H280.564V13.9076H280.813H281.051H281.289H281.527H281.753L281.98 13.8413L282.195 13.7751L282.41 13.6868L282.625 13.5985L282.829 13.4992L283.033 13.3888L283.226 13.2674L283.418 13.1349L283.6 12.9914L283.77 12.8479L283.939 12.6934L284.098 12.5278L284.245 12.3623L284.381 12.1857L284.517 11.998L284.642 11.8104L284.755 11.6117L284.857 11.413L284.959 11.2033L285.038 10.9936L285.118 10.7839L285.186 10.5631V10.3424V10.1106V9.87878V9.64699V9.27171H290ZM280.484 18.5434H279.997H279.521L279.046 18.4882L278.581 18.411L278.117 18.3116L277.664 18.1902L277.222 18.0467L276.791 17.8812L276.372 17.6935L275.964 17.4838L275.568 17.263L275.183 17.0202L274.809 16.7663L274.446 16.4904L274.107 16.2034L273.778 15.8944L273.461 15.5743L273.166 15.2431L272.883 14.8899L272.623 14.5257L272.373 14.1504L272.147 13.7641L271.875 13.2453L271.682 12.8369L271.512 12.4175L271.365 11.987L271.241 11.5455L271.139 11.0929L271.059 10.6404L271.003 10.1768V9.70218V9.27171H275.761V9.51454V9.74633V9.97812V10.2099V10.4307L275.829 10.6514L275.908 10.8611L275.987 11.0709L276.089 11.2806L276.191 11.4793L276.304 11.6779L276.429 11.8656L276.565 12.0532L276.712 12.2298L276.859 12.3954L277.018 12.561L277.188 12.7155L277.358 12.859L277.539 13.0025L277.732 13.1349L277.924 13.2563L278.128 13.3667L278.332 13.4661L278.547 13.5544L278.763 13.6427L278.978 13.7089L279.204 13.7751H279.431H279.669H279.907H280.145H280.394L280.484 18.5434Z" fill="#C16FD1"/>
</svg>
