<svg width="290" height="331" viewBox="0 0 290 331" fill="none" xmlns="http://www.w3.org/2000/svg">
<g clip-path="url(#clip0)">
<path d="M8.16886 288.361H10.8654C10.8654 288.71 10.7233 289.044 10.4705 289.29C10.2176 289.536 9.8747 289.675 9.51712 289.675C9.15954 289.675 8.8166 289.536 8.56375 289.29C8.3109 289.044 8.16886 288.71 8.16886 288.361ZM9.51712 285.491V290.16H9.26786H9.02992H8.792H8.55407H8.32747L8.10088 290.227L7.88561 290.304L7.67034 290.381L7.45507 290.469L7.25114 290.569L7.04719 290.679L6.85458 290.801L6.66198 290.933L6.48069 291.076L6.31075 291.22L6.14081 291.374L5.98219 291.54L5.8349 291.706L5.68761 291.882L5.55165 292.07L5.42702 292.258L5.31372 292.456L5.21175 292.655L5.12111 292.865L5.03047 293.074L4.96249 293.284L4.89452 293.505V293.726V293.957V294.189V294.421V294.664H-0.0453186V294.189V293.726L0.0113343 293.262L0.0906346 292.809L0.192617 292.357L0.317246 291.915L0.464523 291.485L0.634482 291.065L0.827088 290.657L1.04236 290.26L1.26895 289.873L1.51821 289.498L1.7788 289.134L2.06204 288.781L2.35661 288.449L2.67385 288.129L3.00243 287.82L3.34233 287.533L3.70487 287.257L4.07876 287.004L4.46397 286.761L4.86053 286.54L5.26841 286.33L5.68761 286.143L6.11815 285.977L6.56001 285.834L7.0132 285.712L7.47773 285.613L7.94226 285.536L8.41811 285.48H8.90529L9.51712 285.491ZM-6.62923e-06 294.763H4.75856V295.006V295.238V295.469V295.701V295.922L4.82654 296.143L4.89452 296.364L4.98516 296.573L5.0758 296.783L5.17776 296.982L5.29107 297.18L5.4157 297.368L5.55165 297.556L5.69895 297.732L5.84622 297.898L6.00484 298.063L6.1748 298.218L6.34474 298.361L6.52602 298.505L6.71863 298.637L6.91124 298.759L7.11518 298.869L7.31911 298.968L7.53438 299.057L7.74965 299.134L7.96493 299.211L8.19152 299.278H8.41811H8.65603H8.89397H9.1319H9.38116V303.913H9.0186H8.53142L8.05555 303.858L7.59104 303.781L7.12651 303.682L6.6733 303.56L6.23144 303.417L5.80091 303.251L5.38169 303.063L4.97382 302.854L4.57728 302.633L4.19207 302.39L3.81818 302.136L3.45561 301.86L3.11571 301.573L2.78716 301.264L2.46992 300.944L2.17535 300.613L1.8921 300.26L1.6315 299.896L1.38224 299.52L1.15565 299.134L0.940377 298.737L0.747771 298.328L0.577829 297.909L0.430535 297.478L0.305905 297.037L0.20394 296.584L0.124623 296.132L0.0679873 295.668V295.205L-6.62923e-06 294.763ZM9.51712 304.035V299.399H9.76637H10.0043H10.2422H10.4801H10.7068L10.9334 299.333L11.1486 299.255L11.3639 299.178L11.5791 299.09L11.7831 298.991L11.987 298.88L12.1796 298.759L12.3723 298.626L12.5535 298.483L12.7235 298.339L12.8934 298.185L13.052 298.019L13.1993 297.854L13.3466 297.677L13.4826 297.489L13.6072 297.302L13.7205 297.103L13.8225 296.904L13.9131 296.695L14.0037 296.485L14.0717 296.264L14.1397 296.043V295.823V295.591V295.359V295.127V294.884H18.8983V295.359V295.823L18.8416 296.286L18.7623 296.739L18.6603 297.191L18.5357 297.633L18.3884 298.063L18.2185 298.483L18.0259 298.891L17.8106 299.289L17.584 299.675L17.3347 300.05L17.0742 300.414L16.7909 300.768L16.4963 301.099L16.1791 301.419L15.8505 301.728L15.5106 302.015L15.1481 302.291L14.7742 302.545L14.389 302.788L13.9924 303.008L13.5845 303.218L13.1653 303.406L12.7348 303.571L12.2929 303.715L11.8397 303.836L11.3752 303.935L10.9107 304.013L10.4348 304.068H9.94766L9.51712 304.035ZM19.0342 294.763H14.2757V294.575V294.344V294.112V293.88V293.659L14.2077 293.439L14.1397 293.229L14.0491 293.019L13.9584 292.809L13.8565 292.611L13.7432 292.412L13.6185 292.224L13.4826 292.037L13.3353 291.86L13.188 291.695L13.0294 291.529L12.8594 291.374L12.6895 291.231L12.5082 291.088L12.3156 290.955L12.123 290.834L11.919 290.723L11.7151 290.624L11.4998 290.536L11.2846 290.458L11.0693 290.381L10.8427 290.315H10.6161H10.3782H10.1403H9.90233H9.65307V285.679H10.1403H10.6274L11.1033 285.734L11.5678 285.811L12.0324 285.911L12.4855 286.032L12.9274 286.176L13.3579 286.341L13.7772 286.529L14.185 286.739L14.5816 286.959L14.9668 287.202L15.3407 287.456L15.7032 287.732L16.0431 288.019L16.3717 288.328L16.6889 288.648L16.9835 288.979L17.2668 289.333L17.5273 289.697L17.7766 290.072L18.0032 290.458L18.2185 290.856L18.4111 291.264L18.581 291.684L18.7283 292.114L18.8529 292.556L18.9549 293.008L19.0342 293.461L19.0909 293.924V294.388L19.0342 294.763ZM10.8654 288.361H8.16886V1.31351H10.8654V288.361ZM9.51712 1.17861e-05V2.627C9.15954 2.627 8.8166 2.48862 8.56375 2.24229C8.3109 1.99596 8.16886 1.66187 8.16886 1.31351C8.16886 0.965147 8.3109 0.63105 8.56375 0.384723C8.8166 0.138395 9.15954 1.17861e-05 9.51712 1.17861e-05ZM9.51712 2.627L8.16886 1.31351L9.51712 1.17861e-05H288.652V2.627H9.51712ZM290 1.31351H287.303C287.303 0.965147 287.446 0.63105 287.698 0.384723C287.951 0.138395 288.294 1.17861e-05 288.652 1.17861e-05C289.009 1.17861e-05 289.352 0.138395 289.605 0.384723C289.858 0.63105 290 0.965147 290 1.31351V1.31351ZM287.303 1.31351L288.652 1.17861e-05L290 1.31351V321.728H287.303V1.31351ZM288.652 323.042V320.415C289.009 320.415 289.352 320.553 289.605 320.8C289.858 321.046 290 321.38 290 321.728C290 322.077 289.858 322.411 289.605 322.657C289.352 322.903 289.009 323.042 288.652 323.042V323.042ZM288.652 320.415L290 321.728L288.652 323.042H16.0885V320.415H288.652ZM16.0885 320.415V323.042C15.7309 323.042 15.3879 322.903 15.1351 322.657C14.8822 322.411 14.7402 322.077 14.7402 321.728C14.7402 321.38 14.8822 321.046 15.1351 320.8C15.3879 320.553 15.7309 320.415 16.0885 320.415V320.415ZM19.0342 321.728V322.17V322.644L18.9776 323.108L18.8983 323.561L18.7963 324.013L18.6717 324.455L18.5244 324.885L18.3544 325.305L18.1618 325.713L17.9466 326.11L17.7199 326.497L17.4707 326.872L17.2101 327.236L16.9269 327.589L16.6323 327.92L16.3151 328.241L15.9865 328.55L15.6466 328.837L15.284 329.113L14.9101 329.366L14.5249 329.609L14.1284 329.83L13.7205 330.04L13.3013 330.227L12.8708 330.393L12.4289 330.536L11.9757 330.658L11.5112 330.757L11.0466 330.834L10.5708 330.89H10.0949H9.60776V326.364H9.85702H10.0949H10.3329H10.5708H10.7974L11.024 326.298L11.2393 326.221L11.4545 326.132L11.6698 326.044L11.8737 325.945L12.0777 325.834L12.2703 325.713L12.4629 325.58L12.6442 325.437L12.8141 325.293L12.9841 325.139L13.1427 324.973L13.29 324.808L13.4372 324.631L13.5732 324.444L13.6978 324.256L13.8111 324.057L13.9131 323.859L14.0151 323.649L14.0944 323.439L14.1737 323.218L14.2417 322.998V322.777V322.545V322.313V322.081V321.728H19.0342ZM9.51712 331H9.0186H8.53142L8.05555 330.945L7.59104 330.868L7.12651 330.768L6.6733 330.647L6.23144 330.503L5.80091 330.338L5.38169 330.15L4.97382 329.94L4.57728 329.72L4.19207 329.477L3.81818 329.223L3.45561 328.947L3.11571 328.66L2.78716 328.351L2.46992 328.031L2.17535 327.7L1.8921 327.347L1.6315 326.982L1.38224 326.607L1.15565 326.221L0.940377 325.823L0.747771 325.415L0.577829 324.995L0.430535 324.565L0.305905 324.123L0.20394 323.671L0.124623 323.218L0.0679873 322.755L-0.0453186 322.17V321.728H4.71323V321.971V322.203V322.435V322.667V322.887L4.78121 323.108L4.86053 323.329L4.93983 323.538L5.04181 323.748L5.14378 323.947L5.25706 324.146L5.61963 324.311L5.75558 324.499L5.89155 324.675L6.03883 324.841L6.19745 325.007L6.36741 325.161L6.53735 325.305L6.6733 325.481L6.86592 325.614L7.05853 325.735L7.26246 325.845L7.46641 325.945L7.68168 326.033L7.88561 326.088L8.10088 326.165L8.32747 326.232H8.55407H8.792H9.02992H9.26786H9.51712V331ZM-0.0453186 321.728V321.254V320.779L0.0113343 320.315L0.0906346 319.863L0.192617 319.41L0.317246 318.969L0.464523 318.538L0.634482 318.119L0.827088 317.711L1.04236 317.313L1.26895 316.927L1.51821 316.552L1.7788 316.187L2.06204 315.834L2.35661 315.503L2.67385 315.183L3.00243 314.874L3.34233 314.587L3.70487 314.311L4.07876 314.057L4.46397 313.814L4.86053 313.593L5.26841 313.384L5.68761 313.196L6.11815 313.031L6.56001 312.887L7.0132 312.766L7.47773 312.666L7.94226 312.589L8.41811 312.534H8.90529H9.39249V317.092H9.14323H8.90529H8.66737H8.42944H8.20284L7.97625 317.159L7.76098 317.225L7.54571 317.313L7.33044 317.401L7.12651 317.501L6.92256 317.611L6.72995 317.733L6.53735 317.865L6.35607 318.009L6.18612 318.152L6.01618 318.307L5.85756 318.472L5.71027 318.638L5.57432 318.814L5.43835 319.002L5.31372 319.19L5.20043 319.388L5.09845 319.587L4.99648 319.797L4.91718 320.006L4.83786 320.216L4.76989 320.437V320.658V320.889V321.121V321.353V321.728H-0.0453186ZM9.47179 312.457H9.95898H10.4348L10.9107 312.512L11.3752 312.589L11.8397 312.688L12.2929 312.81L12.7348 312.953L13.1653 313.119L13.5845 313.306L13.9924 313.516L14.389 313.737L14.7742 313.98L15.1481 314.234L15.5106 314.51L15.8505 314.797L16.1791 315.106L16.4963 315.426L16.7909 315.757L17.0742 316.11L17.3347 316.474L17.584 316.85L17.8106 317.236L18.0825 317.755L18.2751 318.163L18.4451 318.583L18.5924 319.013L18.717 319.455L18.819 319.907L18.8983 320.36L18.9549 320.823V321.298V321.728H14.1964V321.485V321.254V321.022V320.79V320.569L14.1284 320.349L14.0491 320.139L13.9698 319.929L13.8678 319.719L13.7658 319.521L13.6525 319.322L13.5279 319.134L13.3919 318.947L13.2446 318.77L13.0974 318.605L12.9387 318.439L12.7688 318.285L12.5988 318.141L12.4176 317.998L12.225 317.865L12.0324 317.744L11.8284 317.633L11.6245 317.534L11.4092 317.446L11.1939 317.357L10.9787 317.291L10.7521 317.225H10.5255H10.2875H10.0496H9.81169H9.56243L9.47179 312.457Z" fill="#C16FD1"/>
</g>
<defs>
<clipPath id="clip0">
<rect width="290" height="331" fill="white" transform="translate(290 331) rotate(-180)"/>
</clipPath>
</defs>
</svg>
