<svg width="290" height="331" viewBox="0 0 290 331" fill="none" xmlns="http://www.w3.org/2000/svg">
<g clip-path="url(#clip0)">
<path d="M8.16886 42.6388H10.8654C10.8654 42.2905 10.7233 41.9564 10.4705 41.71C10.2176 41.4637 9.8747 41.3253 9.51712 41.3253C9.15954 41.3253 8.8166 41.4637 8.56375 41.71C8.3109 41.9564 8.16886 42.2905 8.16886 42.6388ZM9.51712 45.5086V40.8397H9.26786H9.02992H8.792H8.55407H8.32747L8.10088 40.7734L7.88561 40.6962L7.67034 40.6189L7.45507 40.5306L7.25114 40.4313L7.04719 40.3209L6.85458 40.1995L6.66198 40.067L6.48069 39.9235L6.31075 39.78L6.14081 39.6255L5.98219 39.4599L5.8349 39.2944L5.68761 39.1178L5.55165 38.9301L5.42702 38.7425L5.31372 38.5438L5.21175 38.3451L5.12111 38.1354L5.03047 37.9257L4.96249 37.716L4.89452 37.4952V37.2745V37.0427V36.8109V36.5791V36.3363H-0.0453186V36.8109V37.2745L0.0113343 37.7381L0.0906346 38.1906L0.192617 38.6432L0.317246 39.0847L0.464523 39.5151L0.634482 39.9346L0.827088 40.343L1.04236 40.7403L1.26895 41.1266L1.51821 41.5019L1.7788 41.8662L2.06204 42.2194L2.35661 42.5505L2.67385 42.8706L3.00243 43.1797L3.34233 43.4667L3.70487 43.7426L4.07876 43.9965L4.46397 44.2393L4.86053 44.46L5.26841 44.6698L5.68761 44.8574L6.11815 45.023L6.56001 45.1665L7.0132 45.2879L7.47773 45.3872L7.94226 45.4645L8.41811 45.5197H8.90529L9.51712 45.5086ZM-6.62923e-06 36.2369H4.75856V35.9941V35.7623V35.5305V35.2987V35.078L4.82654 34.8572L4.89452 34.6365L4.98516 34.4267L5.0758 34.217L5.17776 34.0183L5.29107 33.8197L5.4157 33.632L5.55165 33.4444L5.69895 33.2678L5.84622 33.1022L6.00484 32.9366L6.1748 32.7821L6.34474 32.6386L6.52602 32.4951L6.71863 32.3627L6.91124 32.2413L7.11518 32.1309L7.31911 32.0315L7.53438 31.9432L7.74965 31.866L7.96493 31.7887L8.19152 31.7225H8.41811H8.65603H8.89397H9.1319H9.38116V27.0866H9.0186H8.53142L8.05555 27.1418L7.59104 27.2191L7.12651 27.3184L6.6733 27.4398L6.23144 27.5833L5.80091 27.7489L5.38169 27.9365L4.97382 28.1463L4.57728 28.367L4.19207 28.6098L3.81818 28.8637L3.45561 29.1397L3.11571 29.4266L2.78716 29.7357L2.46992 30.0558L2.17535 30.3869L1.8921 30.7401L1.6315 31.1044L1.38224 31.4797L1.15565 31.866L0.940377 32.2633L0.747771 32.6717L0.577829 33.0912L0.430535 33.5216L0.305905 33.9632L0.20394 34.4157L0.124623 34.8682L0.0679873 35.3318V35.7954L-6.62923e-06 36.2369ZM9.51712 26.9652V31.6011H9.76637H10.0043H10.2422H10.4801H10.7068L10.9334 31.6673L11.1486 31.7446L11.3639 31.8218L11.5791 31.9101L11.7831 32.0095L11.987 32.1198L12.1796 32.2413L12.3723 32.3737L12.5535 32.5172L12.7235 32.6607L12.8934 32.8152L13.052 32.9808L13.1993 33.1464L13.3466 33.323L13.4826 33.5106L13.6072 33.6982L13.7205 33.8969L13.8225 34.0956L13.9131 34.3053L14.0037 34.515L14.0717 34.7358L14.1397 34.9565V35.1773V35.4091V35.6409V35.8727V36.1155H18.8983V35.6409V35.1773L18.8416 34.7137L18.7623 34.2612L18.6603 33.8086L18.5357 33.3671L18.3884 32.9366L18.2185 32.5172L18.0259 32.1088L17.8106 31.7114L17.584 31.3251L17.3347 30.9498L17.0742 30.5856L16.7909 30.2324L16.4963 29.9013L16.1791 29.5812L15.8505 29.2721L15.5106 28.9851L15.1481 28.7092L14.7742 28.4553L14.389 28.2125L13.9924 27.9917L13.5845 27.782L13.1653 27.5944L12.7348 27.4288L12.2929 27.2853L11.8397 27.1639L11.3752 27.0646L10.9107 26.9873L10.4348 26.9321H9.94766L9.51712 26.9652ZM19.0342 36.2369H14.2757V36.4246V36.6564V36.8882V37.1199V37.3407L14.2077 37.5615L14.1397 37.7712L14.0491 37.9809L13.9584 38.1906L13.8565 38.3893L13.7432 38.588L13.6185 38.7756L13.4826 38.9632L13.3353 39.1399L13.188 39.3054L13.0294 39.471L12.8594 39.6255L12.6895 39.769L12.5082 39.9125L12.3156 40.0449L12.123 40.1664L11.919 40.2767L11.7151 40.3761L11.4998 40.4644L11.2846 40.5416L11.0693 40.6189L10.8427 40.6851H10.6161H10.3782H10.1403H9.90233H9.65307V45.321H10.1403H10.6274L11.1033 45.2658L11.5678 45.1885L12.0324 45.0892L12.4855 44.9678L12.9274 44.8243L13.3579 44.6587L13.7772 44.4711L14.185 44.2614L14.5816 44.0406L14.9668 43.7978L15.3407 43.5439L15.7032 43.268L16.0431 42.981L16.3717 42.6719L16.6889 42.3518L16.9835 42.0207L17.2668 41.6675L17.5273 41.3033L17.7766 40.928L18.0032 40.5416L18.2185 40.1443L18.4111 39.7359L18.581 39.3165L18.7283 38.886L18.8529 38.4445L18.9549 37.9919L19.0342 37.5394L19.0909 37.0758V36.6122L19.0342 36.2369ZM10.8654 42.6388H8.16886V329.686H10.8654V42.6388ZM9.51712 331V328.373C9.15954 328.373 8.8166 328.511 8.56375 328.758C8.3109 329.004 8.16886 329.338 8.16886 329.686C8.16886 330.035 8.3109 330.369 8.56375 330.615C8.8166 330.862 9.15954 331 9.51712 331ZM9.51712 328.373L8.16886 329.686L9.51712 331H288.652V328.373H9.51712ZM290 329.686H287.303C287.303 330.035 287.446 330.369 287.698 330.615C287.951 330.862 288.294 331 288.652 331C289.009 331 289.352 330.862 289.605 330.615C289.858 330.369 290 330.035 290 329.686V329.686ZM287.303 329.686L288.652 331L290 329.686V9.27171H287.303V329.686ZM288.652 7.95822V10.5852C289.009 10.5852 289.352 10.4468 289.605 10.2005C289.858 9.95416 290 9.62007 290 9.27171C290 8.92335 289.858 8.58926 289.605 8.34293C289.352 8.0966 289.009 7.95822 288.652 7.95822V7.95822ZM288.652 10.5852L290 9.27171L288.652 7.95822H16.0885V10.5852H288.652ZM16.0885 10.5852V7.95822C15.7309 7.95822 15.3879 8.0966 15.1351 8.34293C14.8822 8.58926 14.7402 8.92335 14.7402 9.27171C14.7402 9.62007 14.8822 9.95416 15.1351 10.2005C15.3879 10.4468 15.7309 10.5852 16.0885 10.5852V10.5852ZM19.0342 9.27171V8.8302V8.35558L18.9776 7.89199L18.8983 7.43944L18.7963 6.98689L18.6717 6.54538L18.5244 6.11491L18.3544 5.69548L18.1618 5.28708L17.9466 4.88972L17.7199 4.5034L17.4707 4.12812L17.2101 3.76387L16.9269 3.41066L16.6323 3.07953L16.3151 2.75944L15.9865 2.45038L15.6466 2.1634L15.284 1.88745L14.9101 1.63359L14.5249 1.39076L14.1284 1.17L13.7205 0.960284L13.3013 0.772642L12.8708 0.607076L12.4289 0.463585L11.9757 0.34217L11.5112 0.24283L11.0466 0.165566L10.5708 0.110377H10.0949H9.60776V4.63585H9.85702H10.0949H10.3329H10.5708H10.7974L11.024 4.70208L11.2393 4.77934L11.4545 4.86765L11.6698 4.95595L11.8737 5.05529L12.0777 5.16567L12.2703 5.28708L12.4629 5.41953L12.6442 5.56302L12.8141 5.70652L12.9841 5.86104L13.1427 6.02661L13.29 6.19218L13.4372 6.36878L13.5732 6.55642L13.6978 6.74406L13.8111 6.94274L13.9131 7.14142L14.0151 7.35114L14.0944 7.56086L14.1737 7.78161L14.2417 8.00237V8.22312V8.45491V8.68671V8.9185V9.27171H19.0342ZM9.51712 0H9.0186H8.53142L8.05555 0.0551887L7.59104 0.132453L7.12651 0.231793L6.6733 0.353208L6.23144 0.496699L5.80091 0.662265L5.38169 0.849907L4.97382 1.05962L4.57728 1.28038L4.19207 1.52321L3.81818 1.77708L3.45561 2.05302L3.11571 2.34L2.78716 2.64906L2.46992 2.96915L2.17535 3.30029L1.8921 3.65349L1.6315 4.01774L1.38224 4.39302L1.15565 4.77934L0.940377 5.1767L0.747771 5.5851L0.577829 6.00453L0.430535 6.43501L0.305905 6.87652L0.20394 7.32906L0.124623 7.78161L0.0679873 8.2452L-0.0453186 8.8302V9.27171H4.71323V9.02888V8.79708V8.56529V8.3335V8.11274L4.78121 7.89199L4.86053 7.67123L4.93983 7.46152L5.04181 7.2518L5.14378 7.05312L5.25706 6.85444L5.61963 6.68888L5.75558 6.50123L5.89155 6.32463L6.03883 6.15906L6.19745 5.9935L6.36741 5.83897L6.53735 5.69548L6.6733 5.51887L6.86592 5.38642L7.05853 5.26501L7.26246 5.15463L7.46641 5.05529L7.68168 4.96699L7.88561 4.9118L8.10088 4.83453L8.32747 4.76831H8.55407H8.792H9.02992H9.26786H9.51712V0ZM-0.0453186 9.27171V9.74633V10.221L0.0113343 10.6845L0.0906346 11.1371L0.192617 11.5896L0.317246 12.0311L0.464523 12.4616L0.634482 12.8811L0.827088 13.2894L1.04236 13.6868L1.26895 14.0731L1.51821 14.4484L1.7788 14.8127L2.06204 15.1659L2.35661 15.497L2.67385 15.8171L3.00243 16.1261L3.34233 16.4131L3.70487 16.6891L4.07876 16.9429L4.46397 17.1858L4.86053 17.4065L5.26841 17.6162L5.68761 17.8039L6.11815 17.9695L6.56001 18.1129L7.0132 18.2344L7.47773 18.3337L7.94226 18.411L8.41811 18.4662H8.90529H9.39249V13.9076H9.14323H8.90529H8.66737H8.42944H8.20284L7.97625 13.8413L7.76098 13.7751L7.54571 13.6868L7.33044 13.5985L7.12651 13.4992L6.92256 13.3888L6.72995 13.2674L6.53735 13.1349L6.35607 12.9914L6.18612 12.8479L6.01618 12.6934L5.85756 12.5278L5.71027 12.3623L5.57432 12.1857L5.43835 11.998L5.31372 11.8104L5.20043 11.6117L5.09845 11.413L4.99648 11.2033L4.91718 10.9936L4.83786 10.7839L4.76989 10.5631V10.3424V10.1106V9.87878V9.64699V9.27171H-0.0453186ZM9.47179 18.5434H9.95898H10.4348L10.9107 18.4882L11.3752 18.411L11.8397 18.3116L12.2929 18.1902L12.7348 18.0467L13.1653 17.8812L13.5845 17.6935L13.9924 17.4838L14.389 17.263L14.7742 17.0202L15.1481 16.7663L15.5106 16.4904L15.8505 16.2034L16.1791 15.8944L16.4963 15.5743L16.7909 15.2431L17.0742 14.8899L17.3347 14.5257L17.584 14.1504L17.8106 13.7641L18.0825 13.2453L18.2751 12.8369L18.4451 12.4175L18.5924 11.987L18.717 11.5455L18.819 11.0929L18.8983 10.6404L18.9549 10.1768V9.70218V9.27171H14.1964V9.51454V9.74633V9.97812V10.2099V10.4307L14.1284 10.6514L14.0491 10.8611L13.9698 11.0709L13.8678 11.2806L13.7658 11.4793L13.6525 11.6779L13.5279 11.8656L13.3919 12.0532L13.2446 12.2298L13.0974 12.3954L12.9387 12.561L12.7688 12.7155L12.5988 12.859L12.4176 13.0025L12.225 13.1349L12.0324 13.2563L11.8284 13.3667L11.6245 13.4661L11.4092 13.5544L11.1939 13.6427L10.9787 13.7089L10.7521 13.7751H10.5255H10.2875H10.0496H9.81169H9.56243L9.47179 18.5434Z" fill="#E6E6E6"/>
</g>
<defs>
<clipPath id="clip0">
<rect width="290" height="331" fill="white" transform="matrix(-1 0 0 1 290 0)"/>
</clipPath>
</defs>
</svg>
