<svg width="1647" height="453" viewBox="0 0 1647 453" fill="none" xmlns="http://www.w3.org/2000/svg">
<path fill-rule="evenodd" clip-rule="evenodd" d="M84.0442 86.603C120.684 86.603 150.662 116.581 150.662 153.221C150.662 189.86 120.684 219.838 84.0442 219.838C47.4045 219.838 17.4265 189.86 17.4265 153.221C17.4265 116.581 47.4045 86.603 84.0442 86.603Z" fill="#C16FD1"/>
<path fill-rule="evenodd" clip-rule="evenodd" d="M211.728 305.331C248.368 305.331 277.235 335.309 277.235 370.838C277.235 407.478 248.368 437.456 211.728 437.456C175.088 437.456 145.11 407.478 145.11 370.838C145.11 335.309 175.088 305.331 211.728 305.331Z" fill="#1C8FC9"/>
<path fill-rule="evenodd" clip-rule="evenodd" d="M338.301 86.603C374.941 86.603 404.919 116.581 404.919 153.221C404.919 189.86 374.941 219.838 338.301 219.838C301.662 219.838 271.684 189.86 271.684 153.221C271.684 116.581 301.662 86.603 338.301 86.603Z" fill="#E3B1E8"/>
<path d="M545.926 179.868C570.353 179.868 589.228 169.875 589.228 142.118C589.228 113.25 571.463 105.478 545.926 105.478H517.059V179.868H545.926ZM545.926 119.912C559.25 119.912 568.132 127.684 568.132 142.118C568.132 157.662 560.36 164.324 545.926 164.324H537.044V119.912H545.926ZM599.221 179.868H619.206V105.478H599.221V179.868ZM672.5 180.978C679.162 180.978 689.154 180.978 701.368 177.647V136.566H671.39V149.89L681.382 151V165.434C679.162 165.434 676.941 166.544 674.721 166.544C660.287 166.544 650.294 157.662 650.294 143.228C650.294 125.463 663.618 118.801 679.162 118.801C684.713 118.801 692.485 119.912 699.147 123.243V107.699C691.375 104.368 681.382 104.368 675.831 104.368C649.184 104.368 629.199 115.471 629.199 143.228C629.199 170.985 651.404 180.978 672.5 180.978ZM712.471 179.868H733.566V105.478H712.471V179.868ZM785.75 121.022H810.176V105.478H740.228V121.022H764.654V179.868H785.75V121.022ZM857.919 179.868H880.125L852.368 105.478H826.831L799.074 179.868H819.059L824.61 164.324H852.368L857.919 179.868ZM839.044 121.022L847.926 149.89H829.051L839.044 121.022ZM885.676 179.868H936.75V164.324H905.662V105.478H885.676V179.868ZM1004.48 154.331C1023.35 154.331 1034.46 145.449 1034.46 129.904C1034.46 113.25 1023.35 105.478 1004.48 105.478H976.721V179.868H997.816V154.331H1004.48ZM1001.15 119.912C1007.81 119.912 1013.36 122.132 1013.36 129.904C1013.36 137.676 1007.81 139.897 1001.15 139.897H996.706V119.912H1001.15ZM1087.75 179.868H1109.96L1081.09 105.478H1055.55L1027.79 179.868H1048.89L1054.44 164.324H1082.2L1087.75 179.868ZM1068.88 121.022L1077.76 149.89H1058.88L1067.76 121.022H1068.88ZM1143.26 121.022H1168.8V105.478H1098.85V121.022H1123.28V179.868H1143.26V121.022ZM1226.54 179.868H1246.52V105.478H1226.54V133.235H1195.45V105.478H1174.35V179.868H1195.45V148.779H1226.54V179.868ZM1297.6 180.978C1322.02 180.978 1338.68 165.434 1338.68 142.118C1338.68 119.912 1322.02 104.368 1297.6 104.368C1273.17 104.368 1256.51 118.801 1256.51 142.118C1256.51 165.434 1274.28 180.978 1297.6 180.978ZM1297.6 118.801C1310.92 118.801 1317.58 129.904 1317.58 142.118C1317.58 154.331 1310.92 166.544 1297.6 166.544C1285.38 166.544 1277.61 155.441 1277.61 142.118C1277.61 129.904 1284.27 118.801 1297.6 118.801ZM1348.67 179.868H1399.74V164.324H1368.65V105.478H1348.67V179.868ZM1446.38 180.978C1470.8 180.978 1487.46 165.434 1487.46 142.118C1487.46 119.912 1470.8 104.368 1446.38 104.368C1421.95 104.368 1404.18 118.801 1404.18 142.118C1404.18 165.434 1421.95 180.978 1446.38 180.978ZM1446.38 118.801C1458.59 118.801 1466.36 129.904 1466.36 142.118C1466.36 154.331 1458.59 166.544 1446.38 166.544C1433.05 166.544 1425.28 155.441 1425.28 142.118C1425.28 129.904 1433.05 118.801 1446.38 118.801ZM1537.42 180.978C1545.19 180.978 1554.07 180.978 1566.29 177.647V136.566H1536.31V149.89L1546.3 151V165.434C1545.19 165.434 1541.86 166.544 1539.64 166.544C1525.21 166.544 1515.21 157.662 1515.21 143.228C1515.21 125.463 1528.54 118.801 1544.08 118.801C1549.63 118.801 1557.4 119.912 1564.07 123.243V107.699C1556.29 104.368 1547.41 104.368 1540.75 104.368C1514.1 104.368 1494.12 115.471 1494.12 143.228C1494.12 170.985 1517.43 180.978 1537.42 180.978ZM1619.58 152.11L1646.23 105.478H1624.02L1609.59 135.456L1595.15 105.478H1571.84L1598.49 152.11V179.868H1619.58V152.11Z" fill="#171717"/>
<path d="M543.706 222.059H563.691V215.397H517.059V222.059H537.044V269.801H543.706V222.059ZM604.772 269.801H614.765L597 246.485C604.772 245.375 610.324 237.603 610.324 232.051C610.324 218.728 600.331 215.397 590.338 215.397H577.015V269.801H583.676V247.595H589.228L604.772 269.801ZM591.449 222.059C598.11 222.059 602.551 225.39 602.551 232.051C602.551 237.603 598.11 242.044 590.338 242.044H583.676V222.059H591.449ZM668.059 269.801H675.831L652.515 215.397H644.743L621.426 269.801H629.199L634.75 256.478H662.507L668.059 269.801ZM648.074 222.059L660.287 249.816H636.971L648.074 222.059ZM688.044 269.801H695.816V215.397H688.044V269.801ZM753.551 269.801H762.434V215.397H755.772V260.919H754.662L723.574 215.397H714.691V269.801H721.353V224.279L753.551 269.801ZM781.309 269.801H787.971V215.397H781.309V269.801ZM845.706 269.801H854.588V215.397H847.926V260.919H846.816L816.838 215.397H806.846V269.801H813.507V224.279H814.618L845.706 269.801ZM901.221 270.912C908.993 270.912 914.544 269.801 918.985 268.691V242.044H899V247.595H911.213V264.25C908.993 264.25 906.772 265.36 901.221 265.36C889.007 265.36 879.015 256.478 879.015 243.154C879.015 229.831 889.007 220.948 901.221 220.948C907.882 220.948 913.434 222.059 917.875 224.279V217.618C913.434 215.397 908.993 214.287 901.221 214.287C884.566 214.287 871.243 225.39 871.243 243.154C871.243 259.809 883.456 270.912 901.221 270.912ZM1006.7 270.912C1010.03 270.912 1016.69 270.912 1020.02 268.691V262.029C1017.8 263.14 1011.14 265.36 1006.7 265.36C994.485 265.36 984.493 256.478 984.493 243.154C984.493 229.831 994.485 220.948 1007.81 220.948C1011.14 220.948 1016.69 222.059 1020.02 224.279V216.507C1016.69 215.397 1011.14 214.287 1006.7 214.287C990.044 214.287 976.721 225.39 976.721 243.154C976.721 259.809 990.044 270.912 1006.7 270.912ZM1035.57 269.801H1068.88V264.25H1042.23V245.375H1064.43V238.713H1042.23V222.059H1068.88V215.397H1035.57V269.801ZM1123.28 269.801H1132.16V215.397H1125.5V260.919H1124.39L1093.3 215.397H1084.42V269.801H1091.08V224.279L1123.28 269.801ZM1172.13 222.059H1191.01V215.397H1144.38V222.059H1164.36V269.801H1172.13V222.059ZM1204.33 269.801H1237.64V264.25H1210.99V245.375H1234.31V238.713H1210.99V222.059H1237.64V215.397H1204.33V269.801ZM1282.05 269.801H1290.93L1274.28 246.485C1282.05 245.375 1286.49 237.603 1286.49 232.051C1286.49 218.728 1277.61 215.397 1266.51 215.397H1253.18V269.801H1259.85V247.595H1265.4L1282.05 269.801ZM1267.62 222.059C1275.39 222.059 1278.72 225.39 1278.72 232.051C1278.72 237.603 1275.39 242.044 1266.51 242.044H1259.85V222.059H1267.62ZM551.478 348.632C559.25 348.632 564.801 347.522 568.132 346.412V319.765H549.257V325.316H561.471V341.97C559.25 341.97 555.919 343.081 551.478 343.081C539.265 343.081 528.162 334.198 528.162 320.875C528.162 307.551 538.154 298.669 551.478 298.669C558.14 298.669 563.691 299.779 567.022 302V295.338C562.581 293.118 558.14 292.007 551.478 292.007C534.824 292.007 520.39 303.11 520.39 320.875C520.39 337.529 533.713 348.632 551.478 348.632ZM585.897 347.522H618.096V341.97H593.669V293.118H585.897V347.522ZM658.066 348.632C675.831 348.632 686.934 337.529 686.934 320.875C686.934 304.22 675.831 292.007 658.066 292.007C641.412 292.007 630.309 304.22 630.309 320.875C630.309 337.529 641.412 348.632 658.066 348.632ZM658.066 298.669C671.39 298.669 679.162 308.662 679.162 320.875C679.162 331.978 671.39 343.081 658.066 343.081C644.743 343.081 636.971 331.978 636.971 320.875C636.971 308.662 644.743 298.669 658.066 298.669ZM716.912 347.522C728.015 347.522 736.897 345.301 736.897 333.088C736.897 325.316 732.456 320.875 724.684 319.765C731.346 317.544 735.787 314.213 735.787 306.441C735.787 296.448 728.015 293.118 716.912 293.118H702.478V347.522H716.912ZM718.022 298.669C722.463 298.669 729.125 300.89 729.125 307.551C729.125 315.323 721.353 316.434 714.691 316.434H710.25V298.669H718.022ZM714.691 323.095C722.463 323.095 730.235 324.206 730.235 333.088C730.235 340.86 722.463 341.97 715.801 341.97H710.25V323.095H714.691ZM794.632 347.522H802.404L779.088 293.118H771.316L748 347.522H755.772L761.324 334.198H789.081L794.632 347.522ZM774.647 299.779L785.75 327.537H763.544L774.647 299.779ZM814.618 347.522H846.816V341.97H822.39V293.118H814.618V347.522Z" fill="#808080"/>
<path d="M127.346 370.838L126.235 371.949H125.125C105.14 384.162 82.9339 386.382 62.9486 380.831C49.6251 377.5 37.4118 370.838 27.4192 360.846L54.0662 345.301C59.6177 348.632 64.0589 350.853 69.6104 351.963C81.8236 355.294 95.1471 355.294 107.36 349.743C109.581 347.522 112.912 346.412 115.132 345.301C126.235 337.529 134.007 326.426 137.338 314.213C140.669 300.89 138.449 285.346 131.787 273.132C124.015 259.809 111.802 250.926 98.478 247.596C85.1545 243.154 69.6104 245.375 57.3971 253.147C44.0736 259.809 35.1912 272.022 31.8604 285.346C29.6398 290.897 29.6398 297.559 29.6398 303.11L2.9927 318.654C-0.338178 305.331 -0.338178 290.897 4.103 278.684C8.54417 258.699 21.8677 239.824 40.7427 228.721L44.0736 226.5L42.9633 225.39C22.978 214.287 9.65447 196.522 4.103 174.316C-0.338178 162.103 -0.338178 147.669 2.9927 134.346L29.6398 149.89C29.6398 155.441 29.6398 162.103 31.8604 167.654C32.9706 174.316 36.3015 180.978 40.7427 186.529C54.0662 203.184 77.3824 212.066 98.478 205.404C111.802 202.074 124.015 193.191 131.787 179.868C138.449 167.654 140.669 152.11 137.338 138.787C132.897 125.463 124.015 113.25 111.802 105.478C98.478 98.8162 84.0442 96.5956 69.6104 101.037C64.0589 102.147 59.6177 104.368 54.0662 107.699L27.4192 92.1544C37.4118 82.1618 49.6251 76.6103 62.9486 72.1691C82.9339 66.6176 105.14 68.8382 125.125 81.0515H126.235L127.346 82.1618C127.346 81.0515 127.346 81.0515 127.346 79.9412C127.346 56.625 137.338 35.5294 151.772 21.0956C161.765 11.1029 173.978 4.44118 187.302 0V31.0882C182.86 33.3088 178.419 36.6397 173.978 39.9706C172.868 41.0809 171.757 42.1912 170.647 43.3015C161.765 53.2941 157.324 65.5074 157.324 79.9412C157.324 93.2647 161.765 105.478 169.537 114.36C171.757 116.581 172.868 118.801 175.088 121.022C185.081 128.794 197.294 134.346 211.728 134.346C226.162 134.346 239.485 127.684 249.478 118.801C259.471 108.809 266.132 94.375 266.132 79.9412C266.132 66.6176 260.581 54.4044 252.809 45.5221C248.368 38.8603 241.706 34.4191 235.044 31.0882V0C248.368 4.44118 260.581 11.1029 270.574 21.0956C285.007 35.5294 295 56.625 295 79.9412C295 81.0515 295 81.0515 295 82.1618C298.331 79.9412 301.662 77.7206 304.993 76.6103C322.757 68.8382 341.632 67.7279 359.397 72.1691C372.721 75.5 384.934 82.1618 394.927 92.1544L368.279 107.699C363.838 104.368 358.287 102.147 352.735 101.037C322.757 93.2647 293.89 109.919 286.118 138.787C277.235 172.096 300.552 205.404 334.971 207.625C360.507 209.846 383.824 192.081 390.485 167.654C392.706 162.103 392.706 155.441 392.706 149.89L419.353 134.346C422.684 147.669 422.684 162.103 419.353 174.316C413.802 193.191 402.699 210.956 384.934 222.059C382.713 223.169 380.493 225.39 378.272 226.5C380.493 227.61 383.824 229.831 386.044 230.941C402.699 243.154 413.802 259.809 419.353 278.684C422.684 290.897 422.684 305.331 419.353 318.654L392.706 303.11C392.706 297.559 392.706 290.897 390.485 285.346C382.713 256.478 352.735 239.824 323.868 247.596C295 255.368 278.346 285.346 286.118 314.213C293.89 343.081 322.757 359.735 352.735 351.963C358.287 350.853 363.838 348.632 368.279 345.301L394.927 360.846C384.934 370.838 372.721 377.5 359.397 380.831C339.412 386.382 316.096 384.162 296.11 371.949L295 370.838C295 371.949 295 371.949 295 373.059C295 396.375 285.007 417.471 270.574 431.904C260.581 441.897 248.368 448.559 235.044 453V421.912C253.919 413.029 266.132 394.154 266.132 373.059C266.132 358.625 259.471 344.191 249.478 334.199C239.485 325.316 226.162 318.654 211.728 318.654C180.64 318.654 157.324 343.081 157.324 373.059C157.324 394.154 168.427 413.029 187.302 421.912V453C173.978 448.559 161.765 441.897 151.772 431.904C137.338 417.471 127.346 396.375 127.346 373.059C127.346 371.949 127.346 371.949 127.346 370.838ZM253.919 184.309C230.603 160.993 191.743 160.993 169.537 184.309C146.221 207.625 146.221 245.375 168.427 268.691C179.529 279.794 195.074 286.456 211.728 286.456C227.272 286.456 242.816 279.794 253.919 268.691C276.125 245.375 276.125 207.625 253.919 184.309Z" fill="#171717"/>
</svg>
