<?xml version="1.0" encoding="utf-8"?><svg xmlns="http://www.w3.org/2000/svg" xmlns:xlink="http://www.w3.org/1999/xlink"><symbol viewBox="0 0 373 629" id="course-3" xmlns="http://www.w3.org/2000/svg"><path d="M32.7 142.67a1.151 1.151 0 11-.21-2.29h.21v2.29zm2.6-1.15h-4.2v-1.05l-.06-.2-.07-.19-.07-.19-.09-.19-.09-.18-.1-.18-.11-.17-.12-.17-.13-.16-.13-.15-.14-.15-.15-.14-.15-.13-.16-.12-.17-.12-.17-.11-.18-.1-.18-.09-.19-.08-.19-.08-.19-.06-.2-.06H26.9v-4.2h.86l.42.05.41.07.41.09.4.11.39.13.38.15.37.17.36.19.35.2.34.22.33.23.32.25.3.26.29.28.28.29.26.3.25.32.23.33.22.34.2.35.19.36.17.37.15.38.13.39.11.4.09.41.07.41v.85l.12.37zm-8.4-8.4v4.2h-1l-.2.06-.19.06-.19.08-.19.08-.18.09-.18.1-.17.11-.16.12-.16.12-.15.13-.15.14-.14.15-.13.15-.12.16-.12.17-.11.17-.1.18-.09.18-.09.19-.08.24-.07.19-.06.2v1H18.5v-.86l.05-.42.07-.41.09-.41.11-.4.13-.39.15-.38.17-.37.19-.36.2-.35.22-.34.23-.33.25-.32.26-.3.28-.29.29-.28.3-.26.32-.25.33-.23.34-.22.35-.2.36-.19.37-.17.38-.15.39-.13.4-.11.41-.09.41-.07.42-.05h.43l.5.06zm-8.4 8.4h4.2v1l.06.2.07.2.07.19.09.19.09.18.1.18.11.17.12.17.12.16.13.15.14.15.15.14.15.13.16.13.16.12.17.11.18.1.18.09.19.08.19.08.19.07.2.06h1.05v4.2h-1.28l-.41-.07-.41-.09-.4-.11-.39-.13-.38-.15-.37-.17-.36-.19-.35-.2-.34-.22-.33-.23-.32-.25-.3-.26-.29-.28-.28-.29-.26-.3-.25-.32-.23-.33-.22-.34-.2-.35-.19-.36-.17-.37-.15-.38-.13-.39-.11-.4-.09-.41-.07-.41v-.85l.01-.4zm8.4 8.4v-4.2H28l.2-.06.19-.07.19-.08.19-.08.18-.09.18-.1.17-.11.17-.12.16-.13.15-.13.15-.14.14-.15.13-.15.13-.16.12-.17.11-.17.1-.18.09-.18.09-.19.07-.19.07-.2.06-.2v-1h4.2v1.23l-.07.41-.09.41-.11.4-.13.39-.15.38-.17.37-.19.36-.2.35-.22.34-.23.33-.25.32-.26.3-.28.29-.29.28-.3.26-.32.25-.33.23-.34.22-.35.2-.36.19-.37.17-.38.15-.39.13-.4.11-.41.09-.41.07-.42.05h-.43l-.49-.03zm5.8-7.25v-2.29h275.54v2.29H32.7zm275.53 0a1.151 1.151 0 01-.743-1.919c.193-.212.458-.344.743-.371v2.29zm0 0v-2.29h3.88l3.76.09 3.64.16 3.53.24 3.41.32 3.29.4 3.17.49 3 .59 2.94.69 2.82.8 2.7.92 2.58 1 2.46 1.16 2.34 1.29L354 150l2.1 1.57 2 1.72 1.84 1.87 1.72 2 1.59 2.19 1.46 2.35 1.33 2.52 1.2 2.69 1.07 2.86.94 3 .82 3.22.69 3.41.56 3.61.44 3.81.31 4 .19 4.22.06 4.43H370l-.06-4.37-.18-4.15-.3-3.93-.46-3.72-.55-3.51-.67-3.31-.81-3-.9-2.92-1-2.73-1.1-2.56-1.26-2.38-1.37-2.21-1.49-2-1.61-1.9-1.72-1.78-1.84-1.61-2-1.47-2.09-1.35-2.21-1.22-2.33-1.1-2.46-1-2.59-.88-2.71-.77-2.84-.67-3-.57-3.09-.48-3.22-.39-3.34-.31-3.4-.18-3.6-.16-3.72-.09-3.85-.08zM370 199.59a1.15 1.15 0 112.29-.21c.01.07.01.14 0 .21H370zm0 0h2.29v362.66H370V199.59zm0 362.66h2.29V566l-.06 3.68-.11 3.58-.16 3.49-.23 3.39-.31 3.29-.39 3.19-.48 3.09-.59 3-.7 2.88-.82 2.78-1 2.67-1.09 2.57-1.24 2.45-1.4 2.34-1.57 2.22-1.74 2.1-1.93 2-2.12 1.85-2.35 1.74-2.52 1.59-2.73 1.45-2.95 1.32-3.17 1.18-3.41 1-3.65.91-3.89.77-4.15.63-4.42.49-4.7.35-5 .21-5.28.07V626l5.21-.07 4.91-.21 4.62-.35 4.33-.48 4.06-.62 3.79-.75 3.53-.88 3.28-1 3-1.13 2.81-1.26 2.59-1.37 2.37-1.5 2.17-1.61 2-1.73 1.8-1.84 1.63-2 1.47-2.08 1.32-2.2 1.17-2.31 1-2.43.91-2.55.9-2.63.68-2.78.57-2.89.47-3 .38-3.12.3-3.23.23-3.34.16-3.44.1-3.55.11-3.65v-3.75zM308.24 626a1.15 1.15 0 11.21 2.29h-.21V626zm0 0v2.29H65.15V626h243.09zm-243.09 0a1.151 1.151 0 11.21 2.29h-.21V626zm0 0v2.29h-4.83l-4.6-.13-4.37-.23-4.15-.33-3.94-.43-3.73-.54-3.53-.7-3.33-.78-3.14-.9-3-1-2.77-1.17-2.59-1.31-2.41-1.46-2.25-1.61-2.08-1.77-1.85-1.93-1.75-2.08-1.6-2.25-1.44-2.41-1.3-2.58-1.16-2.75-1-2.92-.9-3.1-.78-3.28-.65-3.49-.55-3.66-.45-3.86-.36-4.06-.3-4.26-.18-4.47-.16-4.7v-4.91h2.31v4.88l.1 4.65.18 4.43.26 4.21.35 4 .45 3.79.54 3.58.65 3.38.75 3.18.86 3 1 2.8 1.1 2.61 1.22 2.44 1.35 2.26 1.49 2.1 1.63 1.94 1.76 1.76 2 1.64 2.09 1.5 2.27 1.37 2.42 1.26 2.63 1.11 2.82 1 3 .87 3.22.75 3.43.64 3.65.53 3.86.42 4.09.32 4.32.23 4.55.13h4.8zM2.31 559.22a1.15 1.15 0 01-2.29 0h2.29zm0 0H0v-364h2.31v364zm0-364a1.15 1.15 0 01-2.29 0h2.29zm0 0H0v-18l.08-4 .13-3.83.21-3.67.3-3.53.41-3.4.53-3.28.67-3.18.82-3.09 1-3 1.18-2.95 1.38-2.89 1.59-2.85 1.82-2.82 2.07-2.8 2.32-2.79 2.59-2.8 2.9-2.78 3.18-2.85 3.49-2.9 3.82-3 4.17-3 4.53-3.13 4.9-3.23 5.29-3.35 5.7-3.48L61.21 95l6.56-3.79 7-4 1.12 2-7 4L62.37 97l-6.1 3.61-5.67 3.47-5.26 3.33-4.87 3.21L36 113.7l-4.12 3-3.77 2.92-3.43 2.85-3.11 2.79-2.81 2.74-2.51 2.71-2.25 2.68-2 2.69-1.74 2.7-1.52 2.72-1.31 2.76-1.12 2.81-.95 2.93-.79 3-.63 3-.51 3.18-.43 3.3-.29 3.46-.21 3.61-.13 3.79-.07 4v17.88h.01zm73.6-106a1.15 1.15 0 01-1.12-2l1.12 2zm0 0l-1.12-2 1.89-1.06 1.89-1.06 1.89-1.1 1.89-1 1.88-1 1.89-1.06L88 79.87l1.89-1.06 1.89-1.06 1.89-1.06 1.89-1.06 1.89-1.06 1.89-1.06 1.89-1.06 1.89-1.06 1.88-1 1.89-1.06 1.89-1.06 1.89-1.06 1.89-1.06 1.89-1.06 1.88-1.09 1.89-1 1.89-1.06 1.89-1.08 1.89-1.06 1.89-1.06 1.89-1.06 1.89-1.06 1.89-1.06 1.89-1.06 1.89-1.06 1.12 2-1.89 1.06-1.89 1.06-1.89 1.06-1.89 1.06-1.89 1.06-1.9 1.06-1.89 1.06-1.89 1.06-1.88 1.08-1.89 1-1.89 1.06-1.89 1.06-1.89 1.06-1.89 1.06-1.89 1.07-1.89 1.06-1.89 1.06-1.89 1.06-1.89 1.06-1.89 1.06-1.89 1.06-1.87 1-1.89 1.09-1.9 1-1.89 1.06-1.89 1.06L85.35 84l-1.89 1-1.89 1.06-1.89 1.06-1.88 1.08-1.89 1.02zm60.41-33.79a1.152 1.152 0 01-1.787-.842 1.148 1.148 0 01.667-1.158l1.12 2zm-1.12-2l77.3-43.2 1.12 2-77.29 43.24-1.13-2.04zm77.3-43.2a1.152 1.152 0 011.787.842 1.148 1.148 0 01-.667 1.158l-1.12-2zm-1.71 2.27l-.2-.38-.18-.39-.16-.39-.14-.4-.12-.4-.1-.4-.08-.41-.05-.41v-2l.06-.4.08-.39.1-.39.12-.38.14-.38.15-.37.17-.36.19-.36.21-.35.23-.34.24-.33.26-.32.28-.31.29-.29.31-.28.32-.27.34-.25.36-.23.37-.22L216 4.75l-.19.11-.18.12-.17.13-.16.13-.15.14-.15.14-.14.15-.13.16-.12.16-.11.17-.1.17-.1.18-.09.18-.08.19-.07.19-.06.19-.05.2v2l.06.2.07.2.08.2.09.2.1.19-3.56 2.05zM214 1.07l.38-.2.39-.18.39-.16.4-.14.4-.12.4-.1.41-.08.43-.09h2l.4.06.39.08.39.1.38.12.38.14.37.15.37.17.36.19.35.21.34.23.33.24.32.26.31.28.29.29.28.31.27.33.25.34.24.36.22.37-3.67 2.05-.11-.19-.1-.09-.12-.17-.13-.16-.14-.15-.17-.17-.15-.14-.16-.13-.15-.08-.17-.11-.18-.1-.18-.1-.18-.09-.19-.08-.19-.07-.19-.06h-2.21l-.2.06-.2.07-.19.08-.19.09-.19.1L214 1.07zm11.46 3.23l.2.38.18.39.16.39.14.4.12.4.1.4.08.41.05.41v2l-.06.4-.08.39-.1.39-.12.38-.14.38-.15.37-.17.36-.19.36-.21.35-.23.34-.24.33-.26.32-.28.31-.29.29-.31.28-.33.27-.34.25-.36.24-.37.22-2-3.67.19-.11.18-.12.17-.13.16-.13.15-.14.15-.15.14-.15.13-.16.12-.16.11-.17.1-.17.1-.18.09-.18.08-.19.07-.19.06-.19v-2.2l-.06-.2-.07-.2-.08-.2-.09-.2-.1-.19 3.6-2.03zm-3.23 11.43l-.38.2-.39.18-.39.16-.4.14-.4.12-.4.1-.41.08-.41.05h-2l-.4-.06-.39-.08-.39-.1-.38-.12-.38-.14-.37-.15-.36-.17-.36-.19-.35-.21-.34-.23L213 15l-.32-.26-.31-.28-.29-.29-.28-.31-.27-.33-.25-.34-.24-.36-.22-.37 3.67-2.05.11.19.12.18.13.17.13.16.14.15.15.15.15.14.16.13.16.12.17.11.17.1.18.1.18.09.19.08.19.07.19.06h2.21l.2-.06.2-.07.19-.08.19-.09.19-.1 2.04 3.72z"/></symbol><symbol viewBox="0 0 64 132" id="course-4" xmlns="http://www.w3.org/2000/svg"><path d="M5.6 31.514a.2.2 0 110-.392v.392zm.623-.2H5.21v-.103l-.01-.047-.009-.049-.011-.049-.014-.048-.016-.047-.018-.046-.02-.044-.022-.043-.026-.038-.026-.041-.028-.04-.03-.038-.032-.036-.033-.035-.035-.034-.037-.032-.043-.034-.04-.028-.041-.026-.042-.024-.043-.022-.044-.02-.046-.018-.044-.017-.047-.014-.049-.011-.05-.009-.05-.007H4.2V29.3h.1l.1.008.1.013.1.018.1.022.1.027.094.032.092.036.089.041.087.044.084.049.082.052.079.056.076.06.073.063.07.067.067.07.063.073.06.076.056.079.052.082.049.084.045.087.041.089.036.092.032.094.027.1.023.1.018.1.013.1.008.1.007.1zM4.2 29.3v1.01h-.101l-.05.007-.049.014-.049.011-.047.014-.047.016-.046.018-.045.02-.043.022-.042.024-.041.026-.04.028-.038.03-.037.032-.035.034-.034.035-.032.036-.03.038-.028.04-.026.045-.024.042-.022.043-.02.044-.018.046-.016.047-.014.048-.011.049-.009.049-.006.051v.103H2.186v-.1l.008-.1.013-.1.018-.1.023-.1.027-.1.032-.094.036-.092.04-.089.045-.087.049-.084.053-.082.056-.079.06-.076.064-.073.067-.07.07-.067.073-.063L3 29.7l.079-.056.082-.052.084-.049.087-.044.089-.041.092-.036.094-.032.1-.027.1-.022.1-.018.1-.013.1-.008.093-.002zm-2.014 2.018h1.008v.103l.006.051.009.049.011.048.014.048.016.047.018.046.02.044.022.043.024.042.026.041.028.04.03.038.039.042.034.035.035.034.037.032.038.03.04.028.041.026.042.024.043.022.045.02.046.018.047.016.047.014.048.007.05.009.05.007h.103v1.008h-.1L4 33.324l-.1-.013-.1-.018-.1-.022-.1-.027-.094-.032-.092-.036-.089-.041-.087-.044-.084-.048-.082-.052L3 32.933l-.076-.06-.073-.063-.07-.067-.067-.07-.066-.073-.06-.076-.056-.079-.053-.082-.049-.084-.045-.087-.04-.089-.036-.092-.032-.094-.027-.1-.023-.1-.018-.1-.013-.1-.008-.1-.002-.099zM4.2 33.334v-1.008h.103l.05-.007.05-.009.049-.011.047-.014.047-.016.046-.018.044-.02.043-.022.042-.024.041-.026.04-.028.038-.03.037-.032.035-.034.036-.035.032-.037.03-.038.028-.04.026-.041.024-.042.022-.043.02-.044.018-.046.016-.047.014-.048.011-.048.009-.049.006-.051v-.103h1.014v.1l-.008.1-.013.1-.018.1-.023.1-.027.1-.032.094-.036.092-.041.089-.045.087-.049.084-.052.082-.056.079-.06.076-.063.073-.067.07-.07.067-.073.063-.076.06-.079.056-.082.052-.084.048-.087.044-.089.041-.092.036-.094.032-.1.027-.1.022-.1.018-.1.013-.1.008-.102-.002zm1.4-1.82v-.392h47.134v.392H5.6zm47.139 0a.2.2 0 010-.392v.392zm0 0v-.392l.664.005.644.016.624.028.6.041.583.054.563.069.542.084.522.1.5.118.482.137.462.156.441.177.421.2.4.221.38.245.359.27.337.295.315.32.294.347.271.374.25.4.227.431.205.459.183.49.161.52.139.552.118.584.1.617.075.651.053.686.032.722.011.759H63.3l-.01-.747-.031-.709-.052-.672-.073-.636-.094-.6-.114-.566-.134-.532-.155-.5-.175-.467-.195-.437-.215-.407-.235-.378-.255-.351-.275-.325-.294-.3-.315-.275-.336-.252-.357-.23-.378-.209-.4-.188-.421-.169-.442-.15-.464-.132-.48-.118-.507-.1-.529-.082-.551-.067-.572-.054-.594-.04-.615-.028-.637-.016-.656.001zM63.3 41.251a.2.2 0 01.392 0H63.3zm0 0h.392V120.5H63.3V41.251zm0 79.245h.392v.645l-.01.629-.018.612-.028.6-.04.58-.052.563-.067.546-.083.529-.1.511-.12.494-.14.476-.163.457-.187.439-.212.42-.24.4-.268.38-.3.359-.33.338-.363.316-.4.294-.431.271-.467.249-.5.225-.543.2-.582.179-.624.155-.667.132-.711.109-.756.084-.8.06-.852.036-.9.012v-.396l.891-.012.84-.036.79-.06.742-.083.694-.106.649-.128.6-.151.562-.172.52-.194.481-.215.442-.236.407-.256.372-.276.339-.3.308-.316.279-.336.251-.355.225-.376.2-.4.177-.416.155-.436.135-.456.115-.476.1-.5.08-.515.065-.534.052-.552.039-.571.027-.589.018-.607.01-.624-.003-.62zM52.734 131.4a.2.2 0 110 .392v-.392zm0 0v.392H11.146v-.392h41.588zm-41.588 0a.202.202 0 01.115.069.202.202 0 010 .254.202.202 0 01-.115.069v-.392zm0 0v.392l-.827-.008-.787-.023-.748-.039-.711-.056-.673-.066-.638-.093-.6-.112-.569-.133-.537-.154-.5-.177-.473-.2-.443-.225-.413-.249-.384-.275-.355-.3-.327-.329-.3-.357-.273-.384-.247-.413-.222-.441-.2-.47-.175-.5-.154-.531-.133-.562-.119-.595-.095-.626-.078-.66-.065-.698-.046-.729-.031-.766-.018-.8-.005-.843h.395l.006.834.018.8.031.758.045.72.06.683.076.648.093.613.11.578.129.544.148.511.168.479.188.447.209.417.232.387.255.359.279.332.3.306.33.281.358.257.388.234.418.211.45.19.482.169.516.148.551.128.587.109.623.09.661.072.7.056.738.039.779.023.823-.001zM.395 119.978a.2.2 0 01-.392 0h.392zm0 0H0V19.176h.395v100.802zm0-100.8a.2.2 0 01-.392 0h.392zm0 0H0v-2.826l.009-.634.016-.609.025-.586.037-.564.05-.545.066-.527.084-.51.1-.5.132-.477.149-.472.175-.462.2-.454.232-.447.264-.441.3-.437.332-.435.369-.434.407-.436.448-.438.49-.443.534-.45L5 5.589l.629-.468.679-.48.731-.494.785-.51.842-.527.9-.546.2.336-.9.544-.837.524-.78.506-.725.49-.672.475-.616.46-.571.452-.525.44-.479.434-.437.427-.395.422-.356.419-.319.418-.284.419-.252.422-.218.428-.193.432-.166.441L.9 11.5l-.12.464-.1.479-.08.5-.064.514-.05.533-.036.555-.025.578-.016.6-.009.63v2.82l-.005.005zm9.17-16.615a.2.2 0 01.2.336l-.2-.336zm-.434.488l-.051-.09-.046-.092-.041-.093-.036-.095-.031-.1L8.9 2.49l-.021-.1-.016-.1-.011-.1-.007-.1v-.2l.008-.1.013-.1.017-.1.021-.094.026-.093.03-.092.04-.062.039-.09.043-.086.045-.085.051-.083.056-.08.06-.078.065-.076L9.427.6 9.5.529l.075-.066.08-.063.083-.059.087-.055.518.865-.044.028-.042.03-.04.031-.038.033-.036.034-.034.036-.032.038-.03.039-.028.04-.024.04-.024.043-.022.043-.02.045-.017.045-.012.047-.013.047-.011.047-.008.048-.006.048v.194l.006.049.008.048.01.048.013.048.015.047.018.047.02.047.023.046.025.046-.869.518zM9.825.286l.09-.051.092-.046.093-.04.094-.036.1-.031.1-.026.1-.021.1-.016.1-.011.1-.006h.2l.1.008.1.012.1.017.094.021.093.026.092.03.09.035.089.039.048.043.085.047.083.052.081.056.078.06.073.064.073.068.07.072.066.076.063.08.059.084.055.087-.865.518-.021-.043-.03-.042-.031-.04-.039-.038-.031-.034-.036-.034-.033-.034-.039-.03-.04-.028-.041-.026-.042-.024-.049-.024-.045-.02-.044-.014-.046-.015-.047-.013-.047-.01-.048-.01-.048-.005h-.197l-.049.006-.048.008-.048.01-.048.013-.047.015-.047.018-.046.021-.046.023-.045.026-.518-.867zm2.766.694l.051.09.046.092.041.093.036.095.031.1.026.1.021.1.016.1.011.1.007.1v.2l-.008.1-.013.1-.017.1-.021.094-.028.056-.03.092-.035.09-.039.089-.043.087-.048.085-.052.083-.056.081-.06.078-.064.075-.068.073-.072.07-.076.066-.08.063-.083.059-.087.055-.518-.865.044-.028.042-.03.04-.031.038-.033.036-.034.034-.036.032-.038.03-.039.028-.04.026-.041.024-.043.022-.043.02-.045.017-.045.015-.046.013-.047.011-.047.009-.048.006-.048v-.195l-.006-.05-.008-.047-.01-.048-.013-.048-.015-.047-.018-.047-.02-.046-.023-.046-.027-.045.865-.52zM11.9 3.745l-.089.05-.092.047-.093.041-.094.036-.1.03-.1.027L11.24 4l-.1.016-.1.011-.1.006h-.2l-.1-.008-.1-.012-.1-.017-.094-.021-.093-.026-.092-.03-.061-.04-.089-.038L9.92 3.8l-.085-.047-.083-.053-.081-.056-.078-.06-.076-.064-.072-.07-.07-.072-.066-.078-.063-.08-.059-.084-.055-.087.868-.516.028.044.03.042.031.04.033.038.035.036.036.034.038.032.039.03.04.028.041.026.043.023.044.022.045.019.046.018.046.015.047.013.047.01.048.008.048.006h.198L11 3.013l.048-.008L11.1 3l.048-.013.047-.015.047-.018.046-.02.046-.023.045-.025.521.859z"/></symbol><symbol viewBox="0 0 110 110" id="course-6" xmlns="http://www.w3.org/2000/svg"><path d="M54 0h2v110h-2z"/><path d="M0 54h110v2H0z"/></symbol><symbol viewBox="0 0 1179.6 456.9" id="info-1" xmlns="http://www.w3.org/2000/svg"><g data-name="Слой 2"><path d="M7.2 38.84a1.2 1.2 0 112.4 0zm1.2 2.6v-4.2h1.05l.2-.06.19-.18.16-.1.19-.08.18-.09.18-.1.17-.11.17-.12.16-.13.15-.13.15-.14.14-.15.13-.15.12-.16.12-.17.11-.17.1-.18.09-.18.08-.19.08-.19.06-.19.06-.2V33h4.2v.85l-.05.42-.07.41-.09.41-.11.4-.13.39-.15.38-.17.37-.19.36-.2.35-.22.34-.23.33-.25.32-.26.3-.28.29-.29.28-.3.26-.32.25-.23.29-.34.22-.35.2-.41.18-.37.17-.38.15-.39.13-.4.11-.41.09-.41.07-.42.05h-.43zM16.8 33h-4.2v-1.05l-.06-.2-.06-.19-.08-.19-.08-.19-.23-.18-.1-.18-.11-.17-.12-.17-.12-.16-.13-.15-.14-.15-.15-.14-.15-.13-.16-.13-.17-.12-.17-.11-.18-.1-.18-.09-.21-.04-.19-.07-.16-.09H8.4v-4.2h.86l.42.05.41.07.41.09.4.11.39.13.38.15.37.17.36.19.35.2.34.22.33.23.32.25.3.26.29.28.28.29.26.3.25.32.23.33.22.34.2.35.19.36.17.37.15.38.13.39.11.4.09.41.07.41.05.42v.42zm-8.4-8.4v4.2H7.35l-.2.06-.2.07-.19.07-.19.08-.18.09-.18.1-.17.11-.17.12-.16.13-.15.13-.15.14-.14.15-.13.15-.14.33-.12.17-.11.17-.1.18-.09.18-.08.19-.08.19-.07.19-.06.2v1H0v-.82l.05-.42.07-.41.09-.41.11-.4.13-.39.15-.38.17-.37L1 29l.2-.35.22-.34.25-.31.25-.32.26-.3.28-.29.29-.28.3-.26.32-.25.33-.23.3-.21.35-.2.36-.19.37-.17.38-.15.44-.15.4-.11.41-.09.41-.07.42-.05h.43zM0 33h4.2v1.05l.06.2.07.19.08.19.08.19.09.18.1.18.11.17.12.17.13.16.13.15.14.15.15.14.15.13.16.13.17.12.17.11.18.1.18.09.19.08L7 37l.2.07.2.06h1v4.2h-.83l-.42-.05-.41-.07-.41-.09-.4-.11-.39-.13-.38-.15-.37-.17-.36-.19-.43-.16-.3-.21-.33-.23-.32-.25-.3-.26-.29-.26-.28-.29-.26-.3-.25-.32-.23-.33-.22-.34L1 37l-.19-.36-.15-.34-.15-.38-.13-.39-.11-.4-.09-.41-.08-.41-.1-.42v-.42zm9.6 5.8v416.9H7.2V38.84zM8.4 456.9a1.2 1.2 0 010-2.4zm0-2.4h1170v2.4H8.4l-1.2-1.2zm1171.2 1.2a1.2 1.2 0 01-2.4 0zm-2.4 0V8.4h2.4v447.3l-1.2 1.2zm1.2-448.5a1.2 1.2 0 010 2.4zm0 2.4H14.2V7.2h1164.2l1.2 1.2zM14.2 9.6a1.2 1.2 0 110-2.4zm2.6-1.2v.86l-.05.42-.07.41-.09.41-.11.4-.13.39-.15.38-.2.33-.19.36-.2.35-.22.34-.23.33-.25.32-.26.3-.28.29-.29.28-.3.26-.32.25-.33.23-.34.22-.35.2L12 16l-.37.17-.38.15-.39.13-.4.11-.41.09-.41.07-.42.05H8.4V12.6h1.05l.2-.06.19-.06.19-.08.19-.08.18-.09.18-.1.17-.11.17-.12.16-.13.15-.13.15-.14.14-.15.13-.15.12-.16.12-.16.11-.17.1-.18.09-.18.09-.19.07-.19.07-.2.06-.2V8.4zm-8.4 8.4h-.83l-.42-.05-.41-.07-.41-.09-.4-.11-.39-.13-.38-.15-.4-.2-.36-.19-.4-.23-.34-.22-.33-.23-.32-.25-.3-.26-.29-.28-.23-.34-.26-.3-.25-.32-.23-.33-.22-.34-.23-.3L.83 12l-.17-.37-.15-.38-.13-.35-.11-.4-.09-.41-.08-.41-.1-.42V8.4h4.2v1.05l.06.2.07.2.07.19.08.19.09.18.1.18.11.17.12.16.13.16.13.15.14.15.15.14.15.13.16.13.17.12.17.11.18.1.18.09.19.08.19.08.19.06.2.06H8.4zM0 8.4v-.83l.1-.45.07-.41.1-.41.11-.4.13-.39.15-.38.17-.37.17-.37.22-.39.22-.34.23-.33.25-.32.26-.3.28-.29.29-.28.3-.26.32-.25.33-.23.3-.18.4-.22.36-.17.37-.17.39-.15.39-.13.39-.12.41-.09.42-.07.41-.1h.86v4.2h-.22L8 4.22h-.62l-.2.06-.18.17-.19.08-.19.08-.18.09-.18.1-.17.11-.2.09-.16.13-.15.13-.15.14-.14.15-.13.15-.16.19-.12.17-.11.17-.1.18-.09.18-.08.19-.04.22-.07.19-.06.2V8.4zM8.4 0h.86l.41.1.41.07.41.09.4.11.39.13.38.15.34.18.4.17.35.2.34.22.33.23.32.25.3.26.29.28.28.29.26.3.25.32.23.33.22.34.2.35.19.36.17.37.15.38.13.39.11.4.09.41.07.41.05.42v.89H12.6V7.35l-.06-.2-.19-.15-.07-.19-.09-.19-.09-.18-.1-.21-.11-.17-.12-.17-.12-.16-.13-.15-.14-.15-.15-.14-.15-.13-.17-.16-.17-.12-.17-.11-.18-.1-.18-.09-.21-.05-.19-.08-.19-.06-.2-.06h-.2L9 4.25h-.6z" data-name="Слой 1"/></g></symbol><symbol viewBox="0 0 500 587" id="lecturers-1" xmlns="http://www.w3.org/2000/svg"><path d="M485.916 75.616h-4.649a2.324 2.324 0 114.649 0zm-2.325 5.09v-8.28h2.051l.391-.118.371-.137.371-.137.371-.156.352-.177.352-.195.332-.216.332-.235.312-.254.293-.255.293-.274.274-.293.254-.294.254-.313.234-.333.215-.332.195-.353.176-.352.157-.372.156-.372.117-.372.117-.391V64.44h8.517v1.662l-.098.822-.136.803-.176.802-.215.783-.254.764-.293.743-.332.725-.371.704-.391.686-.43.665-.449.646-.488.626-.508.588-.547.567-.567.548-.586.51-.625.489-.644.45-.664.43-.684.392-.703.372-.723.333-.743.293-.761.255-.782.215-.801.176-.801.137-.82.098h-.84l-1.055-.02zM500 64.263h-8.204v-2.055l-.118-.392-.117-.391-.156-.372-.156-.372-.176-.352-.196-.353-.214-.332-.235-.333-.254-.313-.254-.294-.273-.294-.293-.274-.293-.254-.313-.255-.332-.235-.332-.215-.352-.196-.351-.176-.371-.156-.371-.137-.372-.138-.39-.117h-2.051v-8.221h1.465l.82.098.801.137.801.176.781.215.762.255.742.293.723.333.703.372.684.392.664.43.645.45.625.49.586.509.567.548.547.567.507.588.489.626.449.646.43.666.391.685.371.704.332.724.293.744.254.764.215.783.175.802.137.803.098.822v.822l.117.783zM483.591 47.82v8.222h-2.051l-.391.117-.371.137-.371.137-.371.157-.352.176-.351.196-.332.215-.332.235-.313.255-.293.254-.293.274-.273.294-.254.293-.254.313-.235.333-.215.333-.195.352-.176.353-.156.371-.156.372-.118.392-.117.391v2.055h-8.204v-1.662l.097-.822.137-.803.176-.802.215-.783.254-.764.293-.743.332-.725.371-.705.391-.685.43-.665.449-.646.488-.627.508-.587.547-.567.567-.548.586-.51.625-.489.644-.45.664-.43.684-.392.703-.372.723-.333.742-.293.762-.255.782-.215.801-.176.8-.137.821-.098h.84l.742.059zm-16.409 16.443h8.205v1.958l.117.391.117.372.156.372.157.372.176.352.195.352.215.333.234.333.254.313.254.294.274.293.293.274.293.255.312.254.332.235.332.216.352.195.352.176.371.157.371.137.371.137.391.118h2.051v8.22h-1.68l-.821-.097-.801-.137-.8-.176-.782-.216-.762-.254-.742-.294-.723-.332-.703-.372-.684-.392-.664-.43-.644-.45-.626-.49-.586-.509-.566-.548-.547-.568-.508-.587-.488-.626-.45-.646-.429-.666-.391-.685-.371-.705-.332-.724-.293-.744-.254-.763-.215-.783-.176-.803-.137-.802-.097-.822v-.822l.097-.666zm14.085 11.353h4.649v509.055h-4.649V75.616zM483.591 587v-4.659a2.325 2.325 0 012.325 2.33c0 .617-.245 1.21-.681 1.647a2.321 2.321 0 01-1.644.682zm0-4.659l2.325 2.33-2.325 2.329H2.325v-4.659H483.59zM0 584.671h4.65c0 .617-.246 1.21-.682 1.647a2.321 2.321 0 01-3.287 0A2.333 2.333 0 010 584.671zm4.65 0L2.324 587 0 584.671V16.443h4.65V584.67zM2.324 14.113v4.659A2.322 2.322 0 01.68 18.09a2.332 2.332 0 011.644-3.977zm0 4.659L0 16.442l2.325-2.329H472.26v4.659H2.325zm469.936 0v-4.659a2.332 2.332 0 010 4.659zm-5.079-2.33v-1.624l.098-.822.137-.803.176-.802.214-.783.254-.764.293-.744.333-.724.371-.704.39-.686.43-.665.449-.646.489-.626.508-.588.547-.567.566-.548.586-.51.625-.489.645-.45.664-.43.684-.392.703-.372.723-.333.742-.293.762-.255.781-.215.801-.176.801-.137.821-.098h1.66V8.22h-2.051l-.391.118-.371.137-.371.156-.371.157-.352.176-.352.196-.332.215-.332.235-.312.255-.293.254-.293.274-.274.294-.254.293-.254.313-.234.333-.215.333-.195.352-.176.353-.176.372-.137.371-.136.392-.118.391v2.252h-8.263zM483.591 0h1.7l.82.098.801.137.801.176.781.215.762.255.742.293.723.333.703.372.684.392.664.43.645.45.625.49.586.509.567.548.547.568.507.587.489.626.449.646.43.666.391.685.371.704.332.725.293.744.254.763.215.783.175.803.137.802.098.822.195 1.038v.783h-8.204v-2.056l-.117-.391-.137-.392-.137-.372-.176-.372-.176-.352-.195-.352-.625-.294-.234-.333-.235-.313-.254-.293-.273-.294-.293-.274-.293-.255-.235-.313-.332-.235-.332-.215-.351-.196-.352-.176-.371-.156-.352-.098-.371-.137-.391-.118h-2.051V0zm16.487 16.443v1.683l-.098.822-.136.803-.176.802-.215.783-.254.764-.293.743-.332.725-.371.704-.391.686-.43.665-.449.646-.488.626-.508.588-.547.567-.567.548-.586.51-.625.489-.644.45-.664.43-.684.392-.703.372-.723.333-.743.293-.761.255-.782.215-.801.176-.801.137-.82.098h-1.68v-8.084h2.051l.391-.118.371-.117.371-.157.371-.156.352-.176.352-.196.332-.215.332-.235.312-.255.293-.254.293-.274.274-.294.254-.294.234-.313.235-.332.214-.333.196-.353.176-.352.175-.372.137-.372.137-.372.117-.391v-2.29h8.302zm-16.409 16.442h-1.66l-.821-.098-.8-.137-.801-.176-.782-.215-.762-.255-.742-.293-.723-.333-.703-.372-.684-.392-.664-.43-.644-.45-.625-.49-.586-.509-.567-.548-.547-.567-.508-.588-.488-.626-.449-.646-.43-.666-.391-.685-.469-.92-.332-.724-.293-.744-.254-.763-.215-.783-.175-.803-.137-.802-.098-.822v-1.605h8.205v2.055l.117.391.136.372.137.372.176.372.176.353.195.352.215.333.234.332.254.314.254.293.274.294.293.274.293.254.312.255.333.235.332.215.351.196.352.176.371.157.371.156.371.117.391.118h2.051l.156 8.456z"/></symbol><symbol viewBox="0 0 501 587" id="lecturers-2" xmlns="http://www.w3.org/2000/svg"><path d="M486.737 511.384a2.321 2.321 0 01-3.967 1.647 2.333 2.333 0 01-.681-1.647h4.648zm-2.324-5.09v8.222h-2.051l-.39.117-.371.137-.371.137-.371.157-.352.176-.352.196-.332.215-.332.235-.312.254-.293.255-.293.274-.274.293-.253.294-.254.313-.235.333-.215.333-.195.352-.176.352-.156.372-.156.372-.117.372-.118.392v2.055h-8.203v-1.664l.098-.822.137-.803.175-.802.215-.783.254-.763.293-.744.332-.725.371-.704.391-.685.43-.666.449-.646.488-.626.508-.587.547-.568.566-.548.586-.509.625-.489.645-.451.664-.43.683-.392.703-.372.723-.333.742-.293.762-.255.781-.215.801-.176.801-.137.82-.098h.84l.742.078zm-16.406 16.443h8.203v2.055l.117.392.117.372.157.372.156.371.176.353.195.352.215.333.234.333.254.313.254.293.274.294.292.274.293.255.313.254.332.235.332.215.352.196.351.176.371.157.371.137.371.137.391.117h2.051v8.222h-1.68l-.82-.098-.801-.137-.801-.176-.781-.216-.762-.254-.742-.294-.723-.333-.703-.372-.683-.391-.664-.431-.645-.45-.625-.489-.586-.509-.566-.548-.547-.568-.508-.587-.488-.627-.449-.646-.43-.665-.391-.685-.371-.705-.332-.724-.293-.744-.254-.763-.215-.783-.175-.803-.137-.802-.098-.823v-.822l.098-.763zm16.406 16.443v-8.222h2.051l.391-.117.371-.372.371-.137.371-.157.351-.176.352-.196.332-.215.332-.235.313-.254.293-.255.292-.274.274-.294.254-.293.234-.313.235-.333.214-.333.196-.352.176-.353.156-.371.156-.372.117-.372.117-.392v-2.055h8.536v1.664l-.098.822-.137.802-.176.803-.214.783-.254.763-.293.744-.332.724-.371.705-.391.685-.43.666-.449.646-.488.626-.508.587-.547.568-.566.548-.586.509-.625.489-.645.451-.664.43-.683.392-.704.372-.722.332-.742.294-.762.254-.781.216-.801.176-.801.137-.82.098h-.84l-1.055.157zm16.406-16.443h-8.203v-2.055l-.117-.392-.117-.372-.156-.372-.157-.372-.175-.352-.196-.352-.215-.333-.234-.333-.234-.313-.254-.294-.274-.293-.293-.274-.293-.255-.312-.254-.332-.235-.332-.215-.352-.196-.351-.176-.371-.157-.371-.137-.372-.137-.39-.117h-2.051v-8.222h1.445l.821.098.8.137.801.176.782.216.761.254.742.294.723.332.703.372.684.392.664.43.644.451.625.489.586.509.567.548.547.568.507.587.489.626.449.646.43.666.39.685.371.705.332.724.293.744.254.763.215.783.176.803.137.802.097.822v.823l.117.763zm-18.73-11.353V2.329h4.648v509.055h-4.648zM484.413 0a2.322 2.322 0 012.324 2.33 2.322 2.322 0 01-2.324 2.33V0zm0 4.659H3.222V0h481.191l2.324 2.33-2.324 2.329zM.898 2.329a2.322 2.322 0 114.648 0H.898zm4.648 0v568.228H.898V2.329L3.222 0l2.324 2.33zM3.222 572.887a2.325 2.325 0 01-2.324-2.33c0-.617.244-1.21.68-1.647a2.32 2.32 0 011.644-.682v4.659zm0-4.659h469.863v4.659H3.222l-2.324-2.33 2.324-2.329zm469.863 0a2.323 2.323 0 012.324 2.329 2.327 2.327 0 01-2.324 2.33v-4.659zm-5.078 2.329v-1.781l.098-.822.136-.803.176-.802.215-.783.254-.763.293-.744.332-.725.371-.704.391-.685.429-.666.449-.646.489-.626.508-.587.546-.568.567-.548.586-.509.625-.49.644-.45.664-.43.684-.392.703-.372.723-.333.742-.293.762-.255.781-.215.801-.176.8-.137.821-.098h1.679v8.221h-2.05l-.391.118-.371.117-.371.157-.371.156-.352.177-.351.195-.332.216-.332.234-.313.255-.293.254-.293.274-.273.294-.254.294-.235.313-.234.333-.215.332-.195.353-.176.352-.176.372-.136.372-.137.372-.117.391v2.056l-8.301.195zm16.406-16.442h1.699l.821.098.8.137.801.176.782.215.761.255.742.293.723.333.703.372.684.391.664.431.644.45.625.49.586.509.567.548.547.567.507.588.489.626.449.646.43.665.39.686.371.704.332.725.293.743.254.764.215.783.176.802.137.803.097.822v1.683h-8.203v-2.055l-.117-.391-.137-.372-.137-.372-.175-.372-.176-.353-.195-.352-.215-.333-.235-.332-.254-.314-.253-.293-.274-.294-.293-.274-.293-.254-.312-.255-.332-.235-.332-.215-.352-.196-.351-.176-.372-.157-.371-.156-.371-.118-.39-.117h-2.051l-.098-8.319zm16.406 16.442v1.684l-.097.822-.137.803-.176.802-.215.783-.253.763-.293.744-.332.725-.372.704-.39.685-.43.666-.449.646-.488.626-.508.587-.547.568-.566.548-.586.509-.625.489-.645.451-.664.43-.684.392-.703.372-.722.332-.743.294-.761.255-.782.215-.8.176-.801.137-.82.098h-1.68v-8.221h2.051l.39-.118.371-.137.371-.156.372-.157.351-.176.352-.196.332-.215.332-.235.312-.255.293-.254.293-.274.274-.294.254-.293.253-.314.235-.332.215-.333.195-.352.176-.353.176-.372.136-.372.137-.372.117-.391v-2.055l8.281-.079zM484.413 587h-1.68l-.82-.098-.801-.137-.8-.176-.782-.215-.761-.255-.743-.293-.722-.333-.703-.372-.684-.392-.664-.43-.645-.451-.625-.489-.585-.509-.567-.548-.547-.568-.508-.587-.488-.626-.449-.646-.43-.666-.39-.685-.371-.704-.332-.725-.293-.744-.254-.763-.215-.783-.176-.803-.137-.802-.097-.822v-1.684h8.203v2.056l.117.391.137.372.136.372.176.372.176.352.195.353.215.332.234.333.235.313.254.294.273.294.293.274.293.254.313.255.332.234.332.216.351.196.352.176.371.156.371.157.371.137.391.117h2.051l.097 8.3z"/></symbol><symbol viewBox="0 0 500 587" id="lecturers-3" xmlns="http://www.w3.org/2000/svg"><path d="M14.084 511.384h4.65c0 .618-.246 1.21-.682 1.647a2.321 2.321 0 01-3.287 0 2.331 2.331 0 01-.68-1.647zm2.325-5.09v8.28h-2.051l-.391.118-.371.137-.371.137-.371.156-.352.177-.352.195-.332.216-.332.235-.312.254-.293.255-.293.274-.274.293-.254.294-.254.313-.234.333-.215.333-.195.352-.176.352-.157.372-.156.372-.117.372-.117.391v2.056H-.078v-1.664l.098-.822.136-.803.176-.802.215-.783.254-.764.293-.744.332-.724.371-.704.39-.686.43-.665.45-.646.488-.626.508-.588.547-.567.567-.548.586-.509.625-.49.644-.45.664-.431.684-.391.703-.372.723-.333.743-.293.761-.255.782-.215.8-.176.802-.137.82-.098h.84l1.055.019zM0 522.737h8.204v2.055l.118.392.117.391.156.372.156.372.176.352.196.353.214.333.235.332.254.313.254.294.273.294.293.274.293.254.313.255.332.235.332.215.351.196.352.176.371.156.371.137.372.137.39.118h2.051v8.221H14.71l-.82-.098-.801-.137-.8-.176-.782-.215-.762-.255-.742-.293-.723-.333-.703-.372-.684-.391-.664-.431-.645-.45-.625-.49-.586-.509-.567-.548-.547-.567-.507-.588-.489-.626-.45-.646-.429-.665-.39-.686-.372-.704-.332-.725-.293-.743-.254-.764-.215-.783-.175-.802-.137-.803-.098-.822v-.822L0 522.737zm16.409 16.443v-8.222h2.05l.392-.117.37-.137.372-.137.371-.157.352-.176.351-.196.332-.215.332-.235.313-.254.293-.255.293-.274.273-.294.254-.293.254-.313.235-.333.215-.333.195-.352.176-.353.156-.372.156-.371.118-.392.117-.391v-2.056h8.204v1.664l-.097.822-.137.803-.176.802-.215.783-.254.764-.293.744-.332.724-.371.704-.39.686-.43.665-.45.646-.488.626-.508.588-.547.567-.567.548-.586.509-.625.49-.644.45-.664.431-.684.391-.703.372-.723.333-.743.293-.761.255-.782.215-.8.176-.802.137-.82.098h-.84l-.742-.058zm16.409-16.443h-8.205v-1.958l-.117-.391-.117-.372-.157-.372-.156-.372-.176-.352-.195-.352-.215-.333-.234-.333-.254-.313-.254-.294-.274-.293-.293-.274-.293-.255-.312-.254-.332-.235-.332-.216-.352-.195-.352-.177-.37-.156-.372-.137-.371-.137-.39-.118h-2.052v-8.221h1.68l.82.098.802.137.8.176.782.216.762.254.742.294.723.332.703.372.684.392.664.43.644.451.625.489.586.509.567.548.547.568.508.587.488.626.45.646.43.666.39.685.371.705.332.724.293.744.254.763.215.783.176.803.137.802.097.822v.822l-.097.666zm-14.085-11.353h-4.649V2.329h4.65v509.055zM16.41 0v4.659a2.322 2.322 0 01-1.644-.682A2.332 2.332 0 0116.41 0zm0 4.659l-2.325-2.33L16.41 0h481.266v4.659H16.409zM500 2.329h-4.649c0-.617.245-1.21.681-1.647a2.321 2.321 0 013.287 0c.436.437.681 1.03.681 1.647zm-4.649 0L497.675 0 500 2.33v568.227h-4.649V2.329zm2.324 570.558v-4.659c.617 0 1.208.245 1.644.682a2.333 2.333 0 010 3.295 2.325 2.325 0 01-1.644.682zm0-4.659l2.325 2.329-2.325 2.33H27.739v-4.659h469.936zm-469.936 0v4.659a2.325 2.325 0 01-2.325-2.33c0-.617.245-1.21.681-1.647a2.321 2.321 0 011.644-.682zm5.079 2.329v1.625l-.098.822-.137.803-.176.802-.214.783-.254.764-.293.744-.332.724-.372.704-.39.686-.43.665-.45.646-.488.626-.508.588-.547.567-.566.548-.586.509-.625.49-.645.45-.664.431-.684.391-.703.372-.723.333-.742.293-.762.255-.781.215-.801.176-.801.137-.82.098h-1.661v-8.025h2.051l.39-.118.372-.137.371-.156.371-.157.352-.176.351-.196.333-.215.332-.235.312-.255.293-.254.293-.274.274-.294.254-.293.254-.313.234-.333.215-.333.195-.352.176-.353.176-.372.137-.372.136-.391.118-.392v-2.251h8.263zM16.408 587H14.71l-.82-.098-.801-.137-.8-.176-.782-.215-.762-.255-.742-.293-.723-.333-.703-.372-.684-.392-.664-.43-.645-.45-.625-.49-.586-.509-.567-.548-.547-.568-.507-.587-.489-.626-.45-.646-.429-.666-.39-.685-.372-.704-.332-.725-.293-.744-.254-.763-.215-.783-.175-.802-.137-.803-.098-.822-.195-1.038v-.783h8.204v2.056l.117.391.137.392.137.372.176.372.176.352.195.352.625.294.234.333.235.313.254.293.273.294.293.274.293.255.235.313.332.235.332.215.351.196.352.176.371.156.352.098.371.137.39.118h2.052V587zM-.077 570.557v-1.683l.098-.822.136-.803.176-.802.215-.783.254-.764.293-.743.332-.725.371-.704.39-.685.43-.666.45-.646.488-.626.508-.588.547-.567.567-.548.586-.509.625-.49.644-.45.664-.43.684-.392.703-.372.723-.333.743-.293.761-.255.782-.215.8-.176.802-.137.82-.098h1.68v8.084h-2.051l-.39.118-.372.117-.371.157-.371.156-.352.176-.352.196-.332.215-.332.235-.312.255-.293.254-.293.274-.274.294-.254.294-.234.313-.235.333-.214.332-.196.353-.176.352-.175.372-.137.372-.137.372-.117.391v2.29H-.078zm16.409-16.442h1.66l.82.098.801.137.801.176.782.215.761.255.743.293.723.333.703.372.684.391.664.431.644.45.625.49.586.509.567.548.547.567.508.588.488.626.45.646.43.665.39.686.469.92.332.724.293.744.254.763.215.783.175.803.137.802.098.822v1.605h-8.204v-2.055l-.118-.391-.137-.372-.136-.372-.176-.372-.176-.352-.195-.353-.215-.333-.235-.332-.253-.314-.254-.293-.274-.294-.293-.274-.293-.254-.312-.255-.332-.235-.333-.215-.351-.196-.352-.176-.371-.156-.371-.157-.371-.118-.391-.117h-2.051l-.156-8.456z"/></symbol><symbol viewBox="0 0 500 587" id="lecturers-4" xmlns="http://www.w3.org/2000/svg"><path d="M14.084 75.616h4.65c0-.617-.246-1.21-.682-1.647a2.322 2.322 0 00-3.968 1.647zm2.325 5.09v-8.28h-2.051l-.391-.118-.371-.137-.371-.137-.371-.156-.352-.177-.352-.195-.332-.216-.332-.235-.312-.254-.293-.255-.293-.274-.274-.293-.254-.294-.254-.313-.234-.333-.215-.332-.195-.353-.176-.352-.157-.372-.156-.372-.117-.372-.117-.391V64.44H-.078v1.662l.098.822.136.803.176.802.215.783.254.764.293.743.332.725.371.704.39.686.43.665.45.646.488.626.508.588.547.567.567.548.586.51.625.489.644.45.664.43.684.392.703.372.723.333.743.293.761.255.782.215.8.176.802.137.82.098h.84l1.055-.02zM0 64.263h8.204v-2.055l.118-.392.117-.391.156-.372.156-.372.176-.352.196-.353.214-.332.235-.333.254-.313.254-.294.273-.294.293-.274.293-.254.313-.255.332-.235.332-.215.351-.196.352-.176.371-.156.371-.137.372-.138.39-.117h2.051v-8.221H14.71l-.82.098-.801.137-.8.176-.782.215-.762.255-.742.293-.723.333-.703.372-.684.392-.664.43-.645.45-.625.49-.586.509-.567.548-.547.567-.507.588-.489.626-.45.646-.429.666-.39.685-.372.704-.332.724-.293.744-.254.764-.215.783-.175.802-.137.803-.098.822v.822L0 64.263zM16.409 47.82v8.222h2.05l.392.117.37.137.372.137.371.157.352.176.351.196.332.215.332.235.313.255.293.254.293.274.273.294.254.293.254.313.235.333.215.333.195.352.176.353.156.371.156.372.118.392.117.391v2.055h8.204v-1.662l-.097-.822-.137-.803-.176-.802-.215-.783-.254-.764-.293-.743-.332-.725-.371-.705-.39-.685-.43-.665-.45-.646-.488-.627-.508-.587-.547-.567-.567-.548-.586-.51-.625-.489-.644-.45-.664-.43-.684-.392-.703-.372-.723-.333-.743-.293-.761-.255-.782-.215-.8-.176-.802-.137-.82-.098h-.84l-.742.059zm16.409 16.443h-8.205v1.958l-.117.391-.117.372-.157.372-.156.372-.176.352-.195.352-.215.333-.234.333-.254.313-.254.294-.274.293-.293.274-.293.255-.312.254-.332.235-.332.216-.352.195-.352.176-.37.157-.372.137-.371.137-.39.118h-2.052v8.22h1.68l.82-.097.802-.137.8-.176.782-.216.762-.254.742-.294.723-.332.703-.372.684-.392.664-.43.644-.45.625-.49.586-.509.567-.548.547-.568.508-.587.488-.626.45-.646.43-.666.39-.685.371-.705.332-.724.293-.744.254-.763.215-.783.176-.803.137-.802.097-.822v-.822l-.097-.666zM18.733 75.616h-4.649v509.055h4.65V75.616zM16.41 587v-4.659a2.325 2.325 0 00-2.325 2.33c0 .617.245 1.21.681 1.647a2.321 2.321 0 001.644.682zm0-4.659l-2.325 2.33L16.41 587h481.266v-4.659H16.409zm483.59 2.33h-4.649c0 .617.245 1.21.681 1.647a2.32 2.32 0 003.287 0c.436-.437.681-1.03.681-1.647zm-4.649 0l2.324 2.329 2.325-2.329V16.443h-4.649V584.67zm2.324-570.558v4.659c.617 0 1.208-.245 1.644-.682a2.332 2.332 0 00-1.644-3.977zm0 4.659l2.325-2.33-2.325-2.329H27.739v4.659h469.936zm-469.936 0v-4.659a2.331 2.331 0 000 4.659zm5.079-2.33v-1.624l-.098-.822-.137-.803-.176-.802-.214-.783-.254-.764-.293-.744-.332-.724-.372-.704-.39-.686-.43-.665-.45-.646-.488-.626-.508-.588-.547-.567-.566-.548-.586-.51-.625-.489-.645-.45-.664-.43-.684-.392-.703-.372-.723-.333-.742-.293-.762-.255-.781-.215-.801-.176-.801-.137-.82-.098h-1.661V8.22h2.051l.39.118.372.137.371.156.371.157.352.176.351.196.333.215.332.235.312.255.293.254.293.274.274.294.254.293.254.313.234.333.215.333.195.352.176.353.176.372.137.371.136.392.118.391v2.252h8.263zM16.408 0H14.71l-.82.098-.801.137-.8.176-.782.215-.762.255-.742.293-.723.333-.703.372-.684.392-.664.43-.645.45-.625.49-.586.509-.567.548-.547.568-.507.587-.489.626-.45.646-.429.666-.39.685-.372.704-.332.725-.293.744-.254.763-.215.783-.175.803-.137.802-.098.822-.195 1.038v.783h8.204v-2.056l.117-.391.137-.392.137-.372.176-.372.176-.352.195-.352.625-.294.234-.333.235-.313.254-.293.273-.294.293-.274.293-.255.235-.313.332-.235.332-.215.351-.196.352-.176.371-.156.352-.098.371-.137.39-.118h2.052V0zM-.077 16.443v1.683l.098.822.136.803.176.802.215.783.254.764.293.743.332.725.371.704.39.686.43.665.45.646.488.626.508.588.547.567.567.548.586.51.625.489.644.45.664.43.684.392.703.372.723.333.743.293.761.255.782.215.8.176.802.137.82.098h1.68v-8.084h-2.051l-.39-.118-.372-.117-.371-.157-.371-.156-.352-.176-.352-.196-.332-.215-.332-.235-.312-.255-.293-.254-.293-.274-.274-.294-.254-.294-.234-.313-.235-.332-.214-.333-.196-.353-.176-.352-.175-.372-.137-.372-.137-.372-.117-.391v-2.29H-.078zM16.33 32.885h1.66l.82-.098.801-.137.801-.176.782-.215.761-.255.743-.293.723-.333.703-.372.684-.392.664-.43.644-.45.625-.49.586-.509.567-.548.547-.567.508-.588.488-.626.45-.646.43-.666.39-.685.469-.92.332-.724.293-.744.254-.763.215-.783.175-.803.137-.802.098-.822v-1.605h-8.204v2.055l-.118.391-.137.372-.136.372-.176.372-.176.353-.195.352-.215.333-.235.332-.253.314-.254.293-.274.294-.293.274-.293.254-.312.255-.332.235-.333.215-.351.196-.352.176-.371.157-.371.156-.371.117-.391.118h-2.051l-.156 8.456z"/></symbol><symbol viewBox="0 0 1927 530" id="logo" xmlns="http://www.w3.org/2000/svg"><path fill-rule="evenodd" clip-rule="evenodd" d="M344.257 96.275c3.89-2.917 7.78-4.862 11.67-6.807 21.394-8.752 43.761-9.725 64.183-4.862 15.56 4.862 30.147 12.642 41.817 23.339l-32.092 18.477c-5.835-3.89-11.67-6.807-18.477-8.752-34.037-8.753-69.046 10.697-77.798 44.734-10.698 38.899 16.532 77.798 57.376 80.715 30.147 1.945 57.376-17.504 66.128-47.651.973-5.835 1.945-13.615 1.945-20.422l31.119-17.505c3.89 15.56 2.918 32.092-.972 46.679-5.835 22.367-19.45 41.817-38.899 55.431l-8.752 5.835c2.917.973 5.834 2.918 9.724 4.863 19.45 13.614 32.092 34.036 37.927 55.431 3.89 15.559 4.862 31.119.972 47.651l-31.119-18.477c0-6.807-.972-13.615-1.945-20.422-9.725-34.037-44.734-54.459-78.77-44.734-34.037 8.752-53.487 43.762-44.734 77.798 8.752 34.037 43.761 54.459 77.798 44.734 6.807-1.945 12.642-3.89 18.477-7.78l32.092 17.505c-11.67 11.67-26.257 19.45-41.817 23.34-24.312 6.807-50.569 3.889-73.908-9.725l-1.945-.973v1.945c0 27.23-10.697 51.541-29.174 69.046-10.698 11.67-24.312 19.45-39.872 24.312v-35.982c21.395-10.697 35.009-33.064 35.009-57.376 0-17.504-6.807-33.064-18.477-44.734-11.67-11.669-28.202-18.477-45.706-18.477-35.009 0-63.211 28.202-63.211 63.211 0 24.312 13.614 46.679 35.009 57.376V530c-15.56-4.862-29.174-12.642-40.844-24.312-17.505-17.505-28.202-41.816-28.202-69.046v-1.945l-1.945.973h-.972c-23.34 13.614-49.597 16.532-73.909 9.725-14.587-3.89-29.174-11.67-40.844-23.34l31.12-17.505c5.834 3.89 12.642 5.835 18.477 7.78 14.587 3.89 30.146 2.918 43.761-3.89 2.917-.972 6.807-2.917 8.752-4.862 13.615-8.752 22.367-21.395 26.257-35.982 3.89-15.559 1.945-33.064-6.807-48.624-8.752-15.559-22.367-25.284-38.899-29.174-15.56-4.862-33.064-2.917-47.652 5.835-15.56 8.752-26.256 23.339-30.146 38.899-1.945 6.807-1.945 13.615-1.945 20.422l-31.12 18.477c-3.89-16.532-3.89-32.092 0-47.651 6.808-23.34 21.395-44.734 43.762-58.349l4.862-1.945-2.917-1.945c-22.367-12.642-38.9-34.036-45.707-59.321-3.89-14.587-3.89-31.119 0-46.679l31.12 17.505c0 6.807 0 14.587 1.945 20.422 1.945 7.78 5.834 15.56 10.697 22.367 15.56 20.422 42.789 30.147 67.101 23.339 16.532-4.862 30.147-14.587 38.899-30.146 8.752-15.56 10.697-32.092 6.807-48.624-4.862-15.56-14.587-29.175-30.147-37.927-14.587-8.752-32.091-10.697-48.623-6.807-5.835 1.945-12.643 4.862-18.477 8.752l-31.12-18.477c11.67-10.697 26.257-18.477 40.844-23.34 24.312-5.834 50.569-3.89 73.909 9.725h.972l1.945 1.945v-2.917c0-27.23 10.697-51.542 28.202-69.046C188.661 13.615 202.275 4.862 217.835 0v35.982c-4.863 2.917-10.697 6.807-14.587 10.697-1.945.972-2.918 2.917-3.89 3.89-10.697 11.67-16.532 26.257-16.532 42.789 0 15.559 5.835 30.147 14.587 40.844 1.945 2.917 4.862 4.862 6.807 7.78 11.67 9.724 26.257 15.559 41.817 15.559 17.504 0 34.036-7.78 45.706-19.449 11.67-10.698 18.477-27.23 18.477-44.734 0-15.56-5.835-29.175-14.587-40.844-5.835-6.808-12.642-12.642-20.422-16.532V0c15.56 4.862 29.174 13.615 39.872 24.312 18.477 17.504 29.174 41.816 29.174 69.046v2.917zM636 259.651h23.339v-7.779h-54.458v7.779h22.367v56.404H636v-56.404zm70.991 56.404h10.697l-19.449-28.202c9.724-.972 14.587-9.725 14.587-16.532 0-15.56-10.698-19.449-23.34-19.449h-15.559v64.183h8.752v-26.257h5.835l18.477 26.257zm-15.56-56.404c7.78 0 12.642 3.89 12.642 11.67 0 6.807-3.89 11.67-14.587 11.67h-6.807v-23.34h8.752zm89.468 56.404h8.752l-26.256-64.183h-9.725l-27.23 64.183h8.753L742 299.523h32.092l6.807 16.532zm-22.367-56.404l12.642 33.065h-26.257l13.615-33.065zm46.679 56.404h7.78v-64.183h-7.78v64.183zm75.853 0h10.697v-64.183h-8.752v53.486l-36.954-53.486h-10.697v64.183h7.78v-53.486h.972l36.954 53.486zm32.092 0h8.752v-64.183h-8.752v64.183zm75.853 0h10.697v-64.183h-8.752v53.486l-35.982-53.486h-11.669v64.183h8.752v-53.486l36.954 53.486zM1054.17 318c9.72 0 15.55-1.945 20.42-3.89v-31.119h-22.37v6.807h13.61v18.477c-2.91.973-5.83 1.945-11.66 1.945-14.59 0-26.26-10.697-26.26-26.257 0-14.587 11.67-25.284 26.26-25.284 7.77 0 14.58.972 19.44 3.89v-8.752c-5.83-1.945-10.69-2.918-19.44-2.918-19.45 0-35.99 13.615-35.99 33.064 0 20.422 15.56 34.037 35.99 34.037zm123.5 0c3.89 0 10.7-.972 15.56-2.917v-8.753c-2.92 1.945-10.7 3.89-15.56 3.89-13.61 0-26.26-10.697-26.26-26.257 0-14.587 11.67-25.284 26.26-25.284 4.86 0 11.67.972 15.56 3.89v-8.752c-3.89-1.945-10.7-2.918-15.56-2.918-19.45 0-35.01 13.615-35.01 33.064 0 20.422 14.59 34.037 35.01 34.037zm33.06-1.945h38.9v-6.807h-30.14v-22.367h26.25v-7.78h-26.25v-19.45h30.14v-7.779h-38.9v64.183zm103.09 0h10.69v-64.183h-8.75v53.486l-35.98-53.486h-11.67v64.183h7.78v-53.486h.97l36.96 53.486zm56.4-56.404h23.34v-7.779h-54.46v7.779h23.34v56.404h7.78v-56.404zm37.93 56.404h39.87v-6.807h-31.12v-22.367h26.26v-7.78h-26.26v-19.45h30.15v-7.779h-38.9v64.183zm91.41 0h10.7l-20.43-28.202c9.73-.972 15.56-9.725 15.56-16.532 0-15.56-10.69-19.449-23.33-19.449h-16.54v64.183h8.76v-26.257h6.8l18.48 26.257zm-16.53-56.404c8.75 0 12.64 3.89 12.64 11.67 0 6.807-3.89 11.67-13.61 11.67h-7.78v-23.34h8.75zM643.78 408.44c9.725 0 16.532-1.945 20.422-2.917v-31.119h-22.367v6.807h13.615v18.477c-1.945.973-4.863.973-10.698.973-14.587 0-27.229-9.725-27.229-25.285 0-14.587 11.67-26.257 27.229-26.257 7.78 0 13.615 1.945 18.477 4.863v-8.753c-4.862-1.945-10.697-2.917-18.477-2.917-20.422 0-35.981 12.642-35.981 33.064 0 19.45 15.559 33.064 35.009 33.064zm40.844-.972h37.926v-7.78h-29.174v-56.404h-8.752v64.184zm84.605.972c20.422 0 33.065-13.614 33.065-33.064 0-18.477-12.643-33.064-33.065-33.064-19.449 0-33.064 14.587-33.064 33.064 0 19.45 13.615 33.064 33.064 33.064zm0-59.321c15.56 0 24.312 12.642 24.312 26.257 0 12.642-7.78 25.285-24.312 25.285-15.559 0-24.312-12.643-24.312-25.285 0-13.615 8.753-26.257 24.312-26.257zm68.074 58.349c13.614 0 25.284-3.89 25.284-17.505 0-8.752-6.807-14.587-15.559-15.559 8.752-1.945 13.614-6.808 13.614-15.56 0-11.67-9.725-15.56-22.367-15.56h-16.532v64.184h15.56zm1.945-57.376c5.835 0 12.642 1.945 12.642 9.725 0 9.724-7.78 10.697-16.532 10.697h-5.835v-20.422h9.725zm-2.918 27.229c7.78 0 16.532 1.945 16.532 11.67s-7.779 11.67-15.559 11.67h-7.78v-23.34h6.807zm92.386 30.147h8.752l-26.257-64.184h-8.752l-27.23 64.184h8.753l5.835-16.532h32.091l6.808 16.532zm-22.367-56.404l12.642 33.064h-26.257l13.615-33.064zm46.679 56.404h37.926v-7.78h-30.147v-56.404h-7.779v64.184zM637.945 210.055c29.174 0 50.569-10.697 50.569-43.761 0-33.065-21.395-42.789-50.569-42.789h-33.064v86.55h33.064zm0-69.046c16.532 0 26.257 8.752 26.257 26.257 0 16.532-9.725 25.284-26.257 25.284h-9.725v-51.541h9.725zm62.238 69.046h24.312v-86.55h-24.312v86.55zM785.761 212c8.753 0 19.45 0 34.037-3.89v-47.651h-35.009v15.559h11.67v17.505c-1.945.972-4.863.972-7.78.972-16.532 0-28.202-10.697-28.202-27.229 0-20.422 14.587-28.202 34.037-28.202 5.835 0 15.559 1.945 22.367 5.835V125.45c-7.78-2.918-19.45-3.89-26.257-3.89-32.092 0-55.431 12.642-55.431 45.706 0 33.064 27.229 44.734 50.568 44.734zm47.652-1.945h24.312v-86.55h-24.312v86.55zm84.605-69.046h29.175v-17.504h-81.688v17.504h29.174v69.046h23.339v-69.046zm85.582 69.046h26.25l-33.061-86.55h-30.147l-32.092 86.55h23.34l6.807-18.477h33.064l5.839 18.477zm-21.398-69.046l9.725 34.037h-21.395l10.697-34.037h.973zm53.488 69.046h60.29V192.55H1060v-69.045h-24.31v86.55zm139.06-30.147c21.4 0 35.01-9.725 35.01-28.202 0-19.449-12.64-28.201-35.01-28.201h-32.09v86.55H1166v-30.147h8.75zm-3.89-39.871c8.75 0 14.59 2.917 14.59 11.669 0 8.753-5.84 11.67-13.62 11.67H1166v-23.339h4.86zM1272 210.055h26.26l-33.07-86.55h-30.14l-32.1 86.55h23.34l6.81-18.477h32.09l6.81 18.477zm-22.37-69.046l10.7 34.037h-21.39l10.69-34.037zm88.5 0h28.2v-17.504h-81.69v17.504h29.18v69.046h24.31v-69.046zm96.27 69.046h24.32v-86.55h-24.32v33.064h-36.95v-33.064h-23.34v86.55h23.34v-36.954h36.95v36.954zm83.64 1.945c28.2 0 48.62-18.477 48.62-44.734 0-27.229-19.45-45.706-48.62-45.706-28.21 0-48.63 17.504-48.63 45.706 0 27.229 21.4 44.734 48.63 44.734zm0-72.936c14.58 0 24.31 12.642 24.31 28.202 0 13.615-9.73 27.229-24.31 27.229-14.59 0-24.32-13.614-24.32-27.229 0-15.56 8.76-28.202 24.32-28.202zm59.32 70.991h60.29V192.55h-35.98v-69.045h-24.31v86.55zM1691.14 212c29.17 0 48.62-18.477 48.62-44.734 0-27.229-19.45-45.706-48.62-45.706-28.2 0-47.65 17.504-47.65 45.706 0 27.229 20.42 44.734 47.65 44.734zm0-72.936c15.56 0 24.31 12.642 24.31 28.202 0 13.615-8.75 27.229-24.31 27.229-14.59 0-23.34-13.614-23.34-27.229 0-15.56 8.75-28.202 23.34-28.202zM1798.11 212c8.75 0 19.45 0 34.04-3.89v-47.651h-35.01v15.559h12.64v17.505c-2.92.972-5.84.972-8.75.972-16.53 0-28.2-10.697-28.2-27.229 0-20.422 15.56-28.202 34.03-28.202 5.84 0 15.56 1.945 23.34 5.835V125.45c-8.75-2.918-20.42-3.89-27.23-3.89-31.12 0-54.46 12.642-54.46 45.706 0 33.064 26.26 44.734 49.6 44.734zm96.28-34.037l32.09-54.458h-27.23l-16.53 35.009-16.54-35.009h-27.23l32.1 54.458v32.092h23.34v-32.092zM295.633 215.89c-27.229-27.229-71.963-27.229-98.22 0-27.23 27.229-27.23 71.963-.973 98.22 12.643 12.642 30.147 21.395 49.597 21.395 19.449 0 36.954-8.753 49.596-21.395a69.26 69.26 0 000-98.22z"/></symbol></svg>