<svg width="64" height="132" viewBox="0 0 64 132" fill="none" xmlns="http://www.w3.org/2000/svg">
<path d="M5.6 31.514C5.57095 31.5199 5.54096 31.5192 5.51218 31.5121C5.48341 31.505 5.45658 31.4916 5.43363 31.4728C5.41068 31.454 5.39219 31.4304 5.37949 31.4036C5.36679 31.3769 5.3602 31.3476 5.3602 31.318C5.3602 31.2883 5.36679 31.259 5.37949 31.2323C5.39219 31.2055 5.41068 31.1819 5.43363 31.1631C5.45658 31.1443 5.48341 31.1309 5.51218 31.1238C5.54096 31.1167 5.57095 31.1161 5.6 31.122V31.514ZM6.223 31.314H5.21V31.262V31.211L5.2 31.164L5.191 31.115L5.18 31.066L5.166 31.018L5.15 30.971L5.132 30.925L5.112 30.881L5.09 30.838L5.064 30.8L5.038 30.759L5.01 30.719L4.98 30.681L4.948 30.645L4.915 30.61L4.88 30.576L4.843 30.544L4.8 30.51L4.76 30.482L4.719 30.456L4.677 30.432L4.634 30.41L4.59 30.39L4.544 30.372L4.5 30.355L4.453 30.341L4.404 30.33L4.354 30.321L4.304 30.314H4.253H4.2V29.3H4.3L4.4 29.308L4.5 29.321L4.6 29.339L4.7 29.361L4.8 29.388L4.894 29.42L4.986 29.456L5.075 29.497L5.162 29.541L5.246 29.59L5.328 29.642L5.407 29.698L5.483 29.758L5.556 29.821L5.626 29.888L5.693 29.958L5.756 30.031L5.816 30.107L5.872 30.186L5.924 30.268L5.973 30.352L6.018 30.439L6.059 30.528L6.095 30.62L6.127 30.714L6.154 30.814L6.177 30.914L6.195 31.014L6.208 31.114L6.216 31.214L6.223 31.314ZM4.2 29.3V30.31H4.15H4.099L4.049 30.317L4 30.331L3.951 30.342L3.904 30.356L3.857 30.372L3.811 30.39L3.766 30.41L3.723 30.432L3.681 30.456L3.64 30.482L3.6 30.51L3.562 30.54L3.525 30.572L3.49 30.606L3.456 30.641L3.424 30.677L3.394 30.715L3.366 30.755L3.34 30.8L3.316 30.842L3.294 30.885L3.274 30.929L3.256 30.975L3.24 31.022L3.226 31.07L3.215 31.119L3.206 31.168L3.2 31.219V31.27V31.322H2.186V31.222L2.194 31.122L2.207 31.022L2.225 30.922L2.248 30.822L2.275 30.722L2.307 30.628L2.343 30.536L2.383 30.447L2.428 30.36L2.477 30.276L2.53 30.194L2.586 30.115L2.646 30.039L2.71 29.966L2.777 29.896L2.847 29.829L2.92 29.766L3 29.7L3.079 29.644L3.161 29.592L3.245 29.543L3.332 29.499L3.421 29.458L3.513 29.422L3.607 29.39L3.707 29.363L3.807 29.341L3.907 29.323L4.007 29.31L4.107 29.302L4.2 29.3ZM2.186 31.318H3.194V31.37V31.421L3.2 31.472L3.209 31.521L3.22 31.569L3.234 31.617L3.25 31.664L3.268 31.71L3.288 31.754L3.31 31.797L3.334 31.839L3.36 31.88L3.388 31.92L3.418 31.958L3.457 32L3.491 32.035L3.526 32.069L3.563 32.101L3.601 32.131L3.641 32.159L3.682 32.185L3.724 32.209L3.767 32.231L3.812 32.251L3.858 32.269L3.905 32.285L3.952 32.299L4 32.306L4.05 32.315L4.1 32.322H4.151H4.203V33.33H4.103L4 33.324L3.9 33.311L3.8 33.293L3.7 33.271L3.6 33.244L3.506 33.212L3.414 33.176L3.325 33.135L3.238 33.091L3.154 33.043L3.072 32.991L3 32.933L2.924 32.873L2.851 32.81L2.781 32.743L2.714 32.673L2.648 32.6L2.588 32.524L2.532 32.445L2.479 32.363L2.43 32.279L2.385 32.192L2.345 32.103L2.309 32.011L2.277 31.917L2.25 31.817L2.227 31.717L2.209 31.617L2.196 31.517L2.188 31.417L2.186 31.318ZM4.2 33.334V32.326H4.252H4.303L4.353 32.319L4.403 32.31L4.452 32.299L4.499 32.285L4.546 32.269L4.592 32.251L4.636 32.231L4.679 32.209L4.721 32.185L4.762 32.159L4.802 32.131L4.84 32.101L4.877 32.069L4.912 32.035L4.948 32L4.98 31.963L5.01 31.925L5.038 31.885L5.064 31.844L5.088 31.802L5.11 31.759L5.13 31.715L5.148 31.669L5.164 31.622L5.178 31.574L5.189 31.526L5.198 31.477L5.204 31.426V31.375V31.323H6.218V31.423L6.21 31.523L6.197 31.623L6.179 31.723L6.156 31.823L6.129 31.923L6.097 32.017L6.061 32.109L6.02 32.198L5.975 32.285L5.926 32.369L5.874 32.451L5.818 32.53L5.758 32.606L5.695 32.679L5.628 32.749L5.558 32.816L5.485 32.879L5.409 32.939L5.33 32.995L5.248 33.047L5.164 33.095L5.077 33.139L4.988 33.18L4.896 33.216L4.802 33.248L4.702 33.275L4.602 33.297L4.502 33.315L4.402 33.328L4.302 33.336L4.2 33.334ZM5.6 31.514V31.122H52.734V31.514H5.6ZM52.739 31.514C52.6938 31.5048 52.6531 31.4802 52.6239 31.4445C52.5947 31.4088 52.5788 31.3641 52.5788 31.318C52.5788 31.2718 52.5947 31.2271 52.6239 31.1914C52.6531 31.1557 52.6938 31.1311 52.739 31.122V31.514ZM52.739 31.514V31.122L53.403 31.127L54.047 31.143L54.671 31.171L55.271 31.212L55.854 31.266L56.417 31.335L56.959 31.419L57.481 31.519L57.981 31.637L58.463 31.774L58.925 31.93L59.366 32.107L59.787 32.307L60.187 32.528L60.567 32.773L60.926 33.043L61.263 33.338L61.578 33.658L61.872 34.005L62.143 34.379L62.393 34.779L62.62 35.21L62.825 35.669L63.008 36.159L63.169 36.679L63.308 37.231L63.426 37.815L63.526 38.432L63.601 39.083L63.654 39.769L63.686 40.491L63.697 41.25H63.3L63.29 40.503L63.259 39.794L63.207 39.122L63.134 38.486L63.04 37.886L62.926 37.32L62.792 36.788L62.637 36.288L62.462 35.821L62.267 35.384L62.052 34.977L61.817 34.599L61.562 34.248L61.287 33.923L60.993 33.623L60.678 33.348L60.342 33.096L59.985 32.866L59.607 32.657L59.207 32.469L58.786 32.3L58.344 32.15L57.88 32.018L57.4 31.9L56.893 31.8L56.364 31.718L55.813 31.651L55.241 31.597L54.647 31.557L54.032 31.529L53.395 31.513L52.739 31.514ZM63.3 41.251C63.3092 41.2057 63.3337 41.1651 63.3694 41.1359C63.4052 41.1067 63.4499 41.0908 63.496 41.0908C63.5421 41.0908 63.5868 41.1067 63.6226 41.1359C63.6583 41.1651 63.6828 41.2057 63.692 41.251H63.3ZM63.3 41.251H63.692V120.5H63.3V41.251ZM63.3 120.496H63.692V121.141L63.682 121.77L63.664 122.382L63.636 122.982L63.596 123.562L63.544 124.125L63.477 124.671L63.394 125.2L63.294 125.711L63.174 126.205L63.034 126.681L62.871 127.138L62.684 127.577L62.472 127.997L62.232 128.397L61.964 128.777L61.664 129.136L61.334 129.474L60.971 129.79L60.571 130.084L60.14 130.355L59.673 130.604L59.173 130.829L58.63 131.029L58.048 131.208L57.424 131.363L56.757 131.495L56.046 131.604L55.29 131.688L54.49 131.748L53.638 131.784L52.738 131.796V131.4L53.629 131.388L54.469 131.352L55.259 131.292L56.001 131.209L56.695 131.103L57.344 130.975L57.944 130.824L58.506 130.652L59.026 130.458L59.507 130.243L59.949 130.007L60.356 129.751L60.728 129.475L61.067 129.175L61.375 128.859L61.654 128.523L61.905 128.168L62.13 127.792L62.33 127.392L62.507 126.976L62.662 126.54L62.797 126.084L62.912 125.608L63.012 125.108L63.092 124.593L63.157 124.059L63.209 123.507L63.248 122.936L63.275 122.347L63.293 121.74L63.303 121.116L63.3 120.496ZM52.734 131.4C52.763 131.394 52.793 131.395 52.8218 131.402C52.8506 131.409 52.8774 131.422 52.9004 131.441C52.9233 131.46 52.9418 131.483 52.9545 131.51C52.9672 131.537 52.9738 131.566 52.9738 131.596C52.9738 131.626 52.9672 131.655 52.9545 131.682C52.9418 131.708 52.9233 131.732 52.9004 131.751C52.8774 131.77 52.8506 131.783 52.8218 131.79C52.793 131.797 52.763 131.798 52.734 131.792V131.4ZM52.734 131.4V131.792H11.146V131.4H52.734ZM11.146 131.4C11.1912 131.409 11.2319 131.434 11.2611 131.469C11.2903 131.505 11.3062 131.55 11.3062 131.596C11.3062 131.642 11.2903 131.687 11.2611 131.723C11.2319 131.758 11.1912 131.783 11.146 131.792V131.4ZM11.146 131.4V131.792L10.319 131.784L9.532 131.761L8.784 131.722L8.073 131.666L7.4 131.6L6.762 131.507L6.162 131.395L5.593 131.262L5.056 131.108L4.556 130.931L4.083 130.731L3.64 130.506L3.227 130.257L2.843 129.982L2.488 129.682L2.161 129.353L1.861 128.996L1.588 128.612L1.341 128.199L1.119 127.758L0.919 127.288L0.744 126.788L0.59 126.257L0.457 125.695L0.338 125.1L0.243 124.474L0.165 123.814L0.1 123.116L0.054 122.387L0.023 121.621L0.005 120.821L0 119.978H0.395L0.401 120.812L0.419 121.612L0.45 122.37L0.495 123.09L0.555 123.773L0.631 124.421L0.724 125.034L0.834 125.612L0.963 126.156L1.111 126.667L1.279 127.146L1.467 127.593L1.676 128.01L1.908 128.397L2.163 128.756L2.442 129.088L2.742 129.394L3.072 129.675L3.43 129.932L3.818 130.166L4.236 130.377L4.686 130.567L5.168 130.736L5.684 130.884L6.235 131.012L6.822 131.121L7.445 131.211L8.106 131.283L8.806 131.339L9.544 131.378L10.323 131.401L11.146 131.4ZM0.395 119.978C0.385819 120.023 0.361291 120.064 0.32557 120.093C0.28985 120.122 0.245134 120.138 0.199 120.138C0.152866 120.138 0.10815 120.122 0.0724297 120.093C0.0367092 120.064 0.0121806 120.023 0.003 119.978H0.395ZM0.395 119.978H0V19.176H0.395V119.976V119.978ZM0.395 19.178C0.385819 19.2232 0.361291 19.2638 0.32557 19.293C0.28985 19.3222 0.245134 19.3382 0.199 19.3382C0.152866 19.3382 0.10815 19.3222 0.0724297 19.293C0.0367092 19.2638 0.0121806 19.2232 0.003 19.178H0.395ZM0.395 19.178H0V17.013V16.352L0.009 15.718L0.025 15.109L0.05 14.523L0.087 13.959L0.137 13.414L0.203 12.887L0.287 12.377L0.387 11.877L0.519 11.4L0.668 10.928L0.843 10.466L1.043 10.012L1.275 9.56495L1.539 9.12395L1.839 8.68695L2.171 8.25195L2.54 7.81795L2.947 7.38195L3.395 6.94395L3.885 6.50095L4.419 6.05095L5 5.58895L5.629 5.12095L6.308 4.64095L7.039 4.14695L7.824 3.63695L8.666 3.10995L9.566 2.56395L9.766 2.89995L8.866 3.44395L8.029 3.96795L7.249 4.47395L6.524 4.96395L5.852 5.43895L5.236 5.89995L4.665 6.35095L4.14 6.79195L3.661 7.22495L3.224 7.65195L2.829 8.07395L2.473 8.49295L2.154 8.91095L1.87 9.32995L1.618 9.75195L1.4 10.18L1.207 10.612L1.041 11.053L0.9 11.5L0.78 11.964L0.68 12.443L0.6 12.943L0.536 13.457L0.486 13.99L0.45 14.545L0.425 15.123L0.409 15.723L0.4 16.353V17.011V19.173L0.395 19.178ZM9.565 2.56295C9.60834 2.54837 9.65536 2.54908 9.69824 2.56495C9.74112 2.58083 9.77726 2.61092 9.80065 2.65021C9.82403 2.6895 9.83325 2.73562 9.82677 2.78088C9.82028 2.82614 9.79848 2.86781 9.765 2.89895L9.565 2.56295ZM9.131 3.05095L9.08 2.96095L9.034 2.86895L8.993 2.77595L8.957 2.68095L8.926 2.58095L8.9 2.48995L8.879 2.38995L8.863 2.28995L8.852 2.18995L8.845 2.08995V1.98995V1.88995L8.853 1.78995L8.866 1.68995L8.883 1.58995L8.904 1.49595L8.93 1.40295L8.96 1.31095L9 1.24895L9.039 1.15995L9.082 1.07295L9.127 0.987953L9.178 0.904953L9.234 0.824953L9.294 0.746953L9.359 0.670953L9.427 0.599953L9.5 0.528953L9.575 0.462953L9.655 0.399953L9.738 0.340953L9.825 0.285953L10.343 1.15095L10.299 1.17895L10.257 1.20895L10.217 1.23995L10.179 1.27295L10.143 1.30695L10.109 1.34295L10.077 1.38095L10.047 1.41995L10.019 1.45995L9.995 1.49995L9.971 1.54295L9.949 1.58595L9.929 1.63095L9.912 1.67595L9.9 1.72295L9.887 1.76995L9.876 1.81695L9.868 1.86495L9.862 1.91295V1.96095V2.00995V2.05895V2.10695L9.868 2.15595L9.876 2.20395L9.886 2.25195L9.899 2.29995L9.914 2.34695L9.932 2.39395L9.952 2.44095L9.975 2.48695L10 2.53295L9.131 3.05095ZM9.825 0.285953L9.915 0.234953L10.007 0.188953L10.1 0.148953L10.194 0.112953L10.294 0.0819531L10.394 0.0559531L10.494 0.0349531L10.594 0.0189531L10.694 0.00795313L10.794 0.00195312H10.894H10.994L11.094 0.00995312L11.194 0.0219531L11.294 0.0389531L11.388 0.0599531L11.481 0.0859531L11.573 0.115953L11.663 0.150953L11.752 0.189953L11.8 0.232953L11.885 0.279953L11.968 0.331953L12.049 0.387953L12.127 0.447953L12.2 0.511953L12.273 0.579953L12.343 0.651953L12.409 0.727953L12.472 0.807953L12.531 0.891953L12.586 0.978953L11.721 1.49695L11.7 1.45395L11.67 1.41195L11.639 1.37195L11.6 1.33395L11.569 1.29995L11.533 1.26595L11.5 1.23195L11.461 1.20195L11.421 1.17395L11.38 1.14795L11.338 1.12395L11.289 1.09995L11.244 1.08095L11.2 1.06595L11.154 1.05095L11.107 1.03795L11.06 1.02795L11.012 1.01895L10.964 1.01295H10.916H10.816H10.767L10.718 1.01895L10.67 1.02695L10.622 1.03695L10.574 1.04995L10.527 1.06495L10.48 1.08295L10.434 1.10395L10.388 1.12695L10.343 1.15295L9.825 0.285953ZM12.591 0.979953L12.642 1.06995L12.688 1.16195L12.729 1.25495L12.765 1.34995L12.796 1.44995L12.822 1.54995L12.843 1.64995L12.859 1.74995L12.87 1.84995L12.877 1.94995V2.04995V2.14995L12.869 2.24995L12.856 2.34995L12.839 2.44995L12.818 2.54395L12.79 2.59995L12.76 2.69195L12.725 2.78195L12.686 2.87095L12.643 2.95795L12.595 3.04295L12.543 3.12595L12.487 3.20695L12.427 3.28495L12.363 3.35995L12.295 3.43295L12.223 3.50295L12.147 3.56895L12.067 3.63195L11.984 3.69095L11.897 3.74595L11.379 2.88095L11.423 2.85295L11.465 2.82295L11.505 2.79195L11.543 2.75895L11.579 2.72495L11.613 2.68895L11.645 2.65095L11.675 2.61195L11.703 2.57195L11.729 2.53095L11.753 2.48795L11.775 2.44495L11.795 2.39995L11.812 2.35495L11.827 2.30895L11.84 2.26195L11.851 2.21495L11.86 2.16695L11.866 2.11895V2.07095V2.02195V1.97195V1.92395L11.86 1.87495L11.852 1.82695L11.842 1.77895L11.829 1.73095L11.814 1.68395L11.796 1.63695L11.776 1.59095L11.753 1.54495L11.726 1.49995L12.591 0.979953ZM11.9 3.74495L11.811 3.79595L11.719 3.84195L11.626 3.88295L11.532 3.91895L11.432 3.94995L11.332 3.97595L11.24 3.99995L11.14 4.01595L11.04 4.02695L10.94 4.03295H10.84H10.74L10.64 4.02495L10.54 4.01295L10.44 3.99595L10.346 3.97495L10.253 3.94895L10.161 3.91895L10.1 3.87995L10.011 3.84095L9.92 3.79995L9.835 3.75295L9.752 3.69995L9.671 3.64395L9.593 3.58395L9.517 3.51995L9.445 3.44995L9.375 3.37795L9.309 3.29995L9.246 3.21995L9.187 3.13595L9.132 3.04895L10 2.53295L10.028 2.57695L10.058 2.61895L10.089 2.65895L10.122 2.69695L10.157 2.73295L10.193 2.76695L10.231 2.79895L10.27 2.82895L10.31 2.85695L10.351 2.88295L10.394 2.90595L10.438 2.92795L10.483 2.94695L10.529 2.96495L10.575 2.97995L10.622 2.99295L10.669 3.00295L10.717 3.01095L10.765 3.01695H10.814H10.914H10.963L11 3.01295L11.048 3.00495L11.1 2.99995L11.148 2.98695L11.195 2.97195L11.242 2.95395L11.288 2.93395L11.334 2.91095L11.379 2.88595L11.9 3.74495Z" fill="white"/>
</svg>
