<svg width="373" height="629" viewBox="0 0 373 629" fill="none" xmlns="http://www.w3.org/2000/svg">
<path d="M32.7 142.67C32.5481 142.687 32.3944 142.673 32.2479 142.63C32.1013 142.586 31.9649 142.514 31.8465 142.418C31.7282 142.321 31.6303 142.202 31.5585 142.067C31.4868 141.932 31.4426 141.784 31.4287 141.632C31.4147 141.48 31.4312 141.326 31.4772 141.181C31.5233 141.035 31.5979 140.9 31.6967 140.783C31.7955 140.667 31.9165 140.571 32.0527 140.502C32.189 140.433 32.3376 140.391 32.49 140.38H32.7V142.67ZM35.3 141.52H31.1V140.47L31.04 140.27L30.97 140.08L30.9 139.89L30.81 139.7L30.72 139.52L30.62 139.34L30.51 139.17L30.39 139L30.26 138.84L30.13 138.69L29.99 138.54L29.84 138.4L29.69 138.27L29.53 138.15L29.36 138.03L29.19 137.92L29.01 137.82L28.83 137.73L28.64 137.65L28.45 137.57L28.26 137.51L28.06 137.45H26.9V133.25H27.76L28.18 133.3L28.59 133.37L29 133.46L29.4 133.57L29.79 133.7L30.17 133.85L30.54 134.02L30.9 134.21L31.25 134.41L31.59 134.63L31.92 134.86L32.24 135.11L32.54 135.37L32.83 135.65L33.11 135.94L33.37 136.24L33.62 136.56L33.85 136.89L34.07 137.23L34.27 137.58L34.46 137.94L34.63 138.31L34.78 138.69L34.91 139.08L35.02 139.48L35.11 139.89L35.18 140.3V140.72V141.15L35.3 141.52ZM26.9 133.12V137.32H25.9L25.7 137.38L25.51 137.44L25.32 137.52L25.13 137.6L24.95 137.69L24.77 137.79L24.6 137.9L24.44 138.02L24.28 138.14L24.13 138.27L23.98 138.41L23.84 138.56L23.71 138.71L23.59 138.87L23.47 139.04L23.36 139.21L23.26 139.39L23.17 139.57L23.08 139.76L23 140L22.93 140.19L22.87 140.39V141.39H18.5V140.53L18.55 140.11L18.62 139.7L18.71 139.29L18.82 138.89L18.95 138.5L19.1 138.12L19.27 137.75L19.46 137.39L19.66 137.04L19.88 136.7L20.11 136.37L20.36 136.05L20.62 135.75L20.9 135.46L21.19 135.18L21.49 134.92L21.81 134.67L22.14 134.44L22.48 134.22L22.83 134.02L23.19 133.83L23.56 133.66L23.94 133.51L24.33 133.38L24.73 133.27L25.14 133.18L25.55 133.11L25.97 133.06H26.4L26.9 133.12ZM18.5 141.52H22.7V142.52L22.76 142.72L22.83 142.92L22.9 143.11L22.99 143.3L23.08 143.48L23.18 143.66L23.29 143.83L23.41 144L23.53 144.16L23.66 144.31L23.8 144.46L23.95 144.6L24.1 144.73L24.26 144.86L24.42 144.98L24.59 145.09L24.77 145.19L24.95 145.28L25.14 145.36L25.33 145.44L25.52 145.51L25.72 145.57H26.77V149.77H25.91H25.49L25.08 149.7L24.67 149.61L24.27 149.5L23.88 149.37L23.5 149.22L23.13 149.05L22.77 148.86L22.42 148.66L22.08 148.44L21.75 148.21L21.43 147.96L21.13 147.7L20.84 147.42L20.56 147.13L20.3 146.83L20.05 146.51L19.82 146.18L19.6 145.84L19.4 145.49L19.21 145.13L19.04 144.76L18.89 144.38L18.76 143.99L18.65 143.59L18.56 143.18L18.49 142.77V142.35V141.92L18.5 141.52ZM26.9 149.92V145.72H28L28.2 145.66L28.39 145.59L28.58 145.51L28.77 145.43L28.95 145.34L29.13 145.24L29.3 145.13L29.47 145.01L29.63 144.88L29.78 144.75L29.93 144.61L30.07 144.46L30.2 144.31L30.33 144.15L30.45 143.98L30.56 143.81L30.66 143.63L30.75 143.45L30.84 143.26L30.91 143.07L30.98 142.87L31.04 142.67V141.67H35.24V142.48V142.9L35.17 143.31L35.08 143.72L34.97 144.12L34.84 144.51L34.69 144.89L34.52 145.26L34.33 145.62L34.13 145.97L33.91 146.31L33.68 146.64L33.43 146.96L33.17 147.26L32.89 147.55L32.6 147.83L32.3 148.09L31.98 148.34L31.65 148.57L31.31 148.79L30.96 148.99L30.6 149.18L30.23 149.35L29.85 149.5L29.46 149.63L29.06 149.74L28.65 149.83L28.24 149.9L27.82 149.95H27.39L26.9 149.92ZM32.7 142.67V140.38H308.24V142.67H32.7ZM308.23 142.67C307.945 142.643 307.68 142.511 307.487 142.299C307.294 142.088 307.187 141.811 307.187 141.525C307.187 141.239 307.294 140.962 307.487 140.751C307.68 140.539 307.945 140.407 308.23 140.38V142.67ZM308.23 142.67V140.38H312.11L315.87 140.47L319.51 140.63L323.04 140.87L326.45 141.19L329.74 141.59L332.91 142.08L335.91 142.67L338.85 143.36L341.67 144.16L344.37 145.08L346.95 146.08L349.41 147.24L351.75 148.53L354 150L356.1 151.57L358.1 153.29L359.94 155.16L361.66 157.16L363.25 159.35L364.71 161.7L366.04 164.22L367.24 166.91L368.31 169.77L369.25 172.77L370.07 175.99L370.76 179.4L371.32 183.01L371.76 186.82L372.07 190.82L372.26 195.04L372.32 199.47H370L369.94 195.1L369.76 190.95L369.46 187.02L369 183.3L368.45 179.79L367.78 176.48L366.97 173.48L366.07 170.56L365.07 167.83L363.97 165.27L362.71 162.89L361.34 160.68L359.85 158.68L358.24 156.78L356.52 155L354.68 153.39L352.68 151.92L350.59 150.57L348.38 149.35L346.05 148.25L343.59 147.25L341 146.37L338.29 145.6L335.45 144.93L332.45 144.36L329.36 143.88L326.14 143.49L322.8 143.18L319.4 143L315.8 142.84L312.08 142.75L308.23 142.67ZM370 199.59C369.983 199.438 369.997 199.284 370.04 199.138C370.084 198.991 370.156 198.855 370.252 198.737C370.349 198.618 370.468 198.52 370.603 198.449C370.738 198.377 370.886 198.333 371.038 198.319C371.19 198.305 371.344 198.321 371.489 198.367C371.635 198.413 371.77 198.488 371.887 198.587C372.003 198.685 372.099 198.807 372.168 198.943C372.237 199.079 372.279 199.228 372.29 199.38C372.3 199.45 372.3 199.52 372.29 199.59H370ZM370 199.59H372.29V562.25H370V199.59ZM370 562.25H372.29V566L372.23 569.68L372.12 573.26L371.96 576.75L371.73 580.14L371.42 583.43L371.03 586.62L370.55 589.71L369.96 592.71L369.26 595.59L368.44 598.37L367.44 601.04L366.35 603.61L365.11 606.06L363.71 608.4L362.14 610.62L360.4 612.72L358.47 614.72L356.35 616.57L354 618.31L351.48 619.9L348.75 621.35L345.8 622.67L342.63 623.85L339.22 624.85L335.57 625.76L331.68 626.53L327.53 627.16L323.11 627.65L318.41 628L313.41 628.21L308.13 628.28V626L313.34 625.93L318.25 625.72L322.87 625.37L327.2 624.89L331.26 624.27L335.05 623.52L338.58 622.64L341.86 621.64L344.86 620.51L347.67 619.25L350.26 617.88L352.63 616.38L354.8 614.77L356.8 613.04L358.6 611.2L360.23 609.2L361.7 607.12L363.02 604.92L364.19 602.61L365.19 600.18L366.1 597.63L367 595L367.68 592.22L368.25 589.33L368.72 586.33L369.1 583.21L369.4 579.98L369.63 576.64L369.79 573.2L369.89 569.65L370 566V562.25ZM308.24 626C308.392 625.983 308.546 625.997 308.692 626.04C308.839 626.084 308.975 626.156 309.093 626.252C309.212 626.349 309.31 626.468 309.381 626.603C309.453 626.738 309.497 626.886 309.511 627.038C309.525 627.19 309.509 627.344 309.463 627.489C309.417 627.635 309.342 627.77 309.243 627.887C309.145 628.003 309.023 628.099 308.887 628.168C308.751 628.237 308.602 628.279 308.45 628.29H308.24V626ZM308.24 626V628.29H65.15V626H308.24ZM65.15 626C65.3019 625.983 65.4556 625.997 65.6021 626.04C65.7487 626.084 65.8851 626.156 66.0035 626.252C66.1218 626.349 66.2197 626.468 66.2915 626.603C66.3632 626.738 66.4074 626.886 66.4213 627.038C66.4353 627.19 66.4188 627.344 66.3727 627.489C66.3267 627.635 66.2521 627.77 66.1533 627.887C66.0545 628.003 65.9335 628.099 65.7973 628.168C65.661 628.237 65.5124 628.279 65.36 628.29H65.15V626ZM65.15 626V628.29H60.32L55.72 628.16L51.35 627.93L47.2 627.6L43.26 627.17L39.53 626.63L36 625.93L32.67 625.15L29.53 624.25L26.53 623.25L23.76 622.08L21.17 620.77L18.76 619.31L16.51 617.7L14.43 615.93L12.58 614L10.83 611.92L9.23 609.67L7.79 607.26L6.49 604.68L5.33 601.93L4.33 599.01L3.43 595.91L2.65 592.63L2 589.14L1.45 585.48L1 581.62L0.64 577.56L0.34 573.3L0.16 568.83L0 564.13V559.22H2.31V564.1L2.41 568.75L2.59 573.18L2.85 577.39L3.2 581.39L3.65 585.18L4.19 588.76L4.84 592.14L5.59 595.32L6.45 598.32L7.45 601.12L8.55 603.73L9.77 606.17L11.12 608.43L12.61 610.53L14.24 612.47L16 614.23L18 615.87L20.09 617.37L22.36 618.74L24.78 620L27.41 621.11L30.23 622.11L33.23 622.98L36.45 623.73L39.88 624.37L43.53 624.9L47.39 625.32L51.48 625.64L55.8 625.87L60.35 626H65.15ZM2.31 559.22C2.28332 559.505 2.15115 559.77 1.93937 559.963C1.7276 560.156 1.45145 560.263 1.165 560.263C0.878546 560.263 0.602404 560.156 0.390626 559.963C0.178848 559.77 0.0466829 559.505 0.02 559.22H2.31ZM2.31 559.22H0V195.22H2.31V559.22ZM2.31 195.22C2.28332 195.505 2.15115 195.77 1.93937 195.963C1.7276 196.156 1.45145 196.263 1.165 196.263C0.878546 196.263 0.602404 196.156 0.390626 195.963C0.178848 195.77 0.0466829 195.505 0.02 195.22H2.31ZM2.31 195.22H0V177.22L0.08 173.22L0.21 169.39L0.42 165.72L0.72 162.19L1.13 158.79L1.66 155.51L2.33 152.33L3.15 149.24L4.15 146.24L5.33 143.29L6.71 140.4L8.3 137.55L10.12 134.73L12.19 131.93L14.51 129.14L17.1 126.34L20 123.56L23.18 120.71L26.67 117.81L30.49 114.81L34.66 111.81L39.19 108.68L44.09 105.45L49.38 102.1L55.08 98.62L61.21 95L67.77 91.21L74.77 87.21L75.89 89.21L68.89 93.21L62.37 97L56.27 100.61L50.6 104.08L45.34 107.41L40.47 110.62L36 113.7L31.88 116.7L28.11 119.62L24.68 122.47L21.57 125.26L18.76 128L16.25 130.71L14 133.39L12 136.08L10.26 138.78L8.74 141.5L7.43 144.26L6.31 147.07L5.36 150L4.57 153L3.94 156L3.43 159.18L3 162.48L2.71 165.94L2.5 169.55L2.37 173.34L2.3 177.34V195.22H2.31ZM75.91 89.22C75.6474 89.3399 75.3493 89.3567 75.075 89.267C74.8006 89.1773 74.57 88.9877 74.4289 88.7358C74.2879 88.4839 74.2467 88.1882 74.3136 87.9074C74.3805 87.6266 74.5506 87.3812 74.79 87.22L75.91 89.22ZM75.91 89.22L74.79 87.22L76.68 86.16L78.57 85.1L80.46 84L82.35 83L84.23 82L86.12 80.94L88 79.87L89.89 78.81L91.78 77.75L93.67 76.69L95.56 75.63L97.45 74.57L99.34 73.51L101.23 72.45L103.12 71.39L105 70.39L106.89 69.33L108.78 68.27L110.67 67.21L112.56 66.15L114.45 65.09L116.33 64L118.22 63L120.11 61.94L122 60.86L123.89 59.8L125.78 58.74L127.67 57.68L129.56 56.62L131.45 55.56L133.34 54.5L135.23 53.44L136.35 55.44L134.46 56.5L132.57 57.56L130.68 58.62L128.79 59.68L126.9 60.74L125 61.8L123.11 62.86L121.22 63.92L119.34 65L117.45 66L115.56 67.06L113.67 68.12L111.78 69.18L109.89 70.24L108 71.31L106.11 72.37L104.22 73.43L102.33 74.49L100.44 75.55L98.55 76.61L96.66 77.67L94.79 78.67L92.9 79.76L91 80.76L89.11 81.82L87.22 82.88L85.35 84L83.46 85L81.57 86.06L79.68 87.12L77.8 88.2L75.91 89.22ZM136.32 55.43C136.188 55.5188 136.039 55.5793 135.883 55.6076C135.726 55.636 135.566 55.6316 135.411 55.5948C135.257 55.558 135.111 55.4895 134.984 55.3936C134.858 55.2978 134.752 55.1767 134.674 55.038C134.597 54.8993 134.549 54.746 134.533 54.5878C134.518 54.4295 134.535 54.2698 134.585 54.1187C134.634 53.9676 134.714 53.8284 134.82 53.7099C134.926 53.5913 135.055 53.496 135.2 53.43V53.43L136.32 55.43ZM135.2 53.43L212.5 10.23L213.62 12.23L136.33 55.47L135.2 53.43ZM212.5 10.23C212.632 10.1412 212.781 10.0807 212.937 10.0524C213.094 10.024 213.254 10.0284 213.409 10.0652C213.563 10.102 213.709 10.1705 213.836 10.2664C213.962 10.3622 214.068 10.4833 214.146 10.622C214.223 10.7607 214.271 10.914 214.287 11.0722C214.302 11.2305 214.285 11.3902 214.235 11.5413C214.186 11.6924 214.106 11.8316 214 11.9501C213.894 12.0687 213.765 12.164 213.62 12.23L212.5 10.23ZM210.79 12.5L210.59 12.12L210.41 11.73L210.25 11.34L210.11 10.94L209.99 10.54L209.89 10.14L209.81 9.73L209.76 9.32V7.32L209.82 6.92L209.9 6.53L210 6.14L210.12 5.76L210.26 5.38L210.41 5.01L210.58 4.65L210.77 4.29L210.98 3.94L211.21 3.6L211.45 3.27L211.71 2.95L211.99 2.64L212.28 2.35L212.59 2.07L212.91 1.8L213.25 1.55L213.61 1.32L213.98 1.1L216 4.75L215.81 4.86L215.63 4.98L215.46 5.11L215.3 5.24L215.15 5.38L215 5.52L214.86 5.67L214.73 5.83L214.61 5.99L214.5 6.16L214.4 6.33L214.3 6.51L214.21 6.69L214.13 6.88L214.06 7.07L214 7.26L213.95 7.46V9.46L214.01 9.66L214.08 9.86L214.16 10.06L214.25 10.26L214.35 10.45L210.79 12.5ZM214 1.07L214.38 0.87L214.77 0.69L215.16 0.53L215.56 0.39L215.96 0.27L216.36 0.17L216.77 0.09L217.2 0H219.2L219.6 0.06L219.99 0.14L220.38 0.24L220.76 0.36L221.14 0.5L221.51 0.65L221.88 0.82L222.24 1.01L222.59 1.22L222.93 1.45L223.26 1.69L223.58 1.95L223.89 2.23L224.18 2.52L224.46 2.83L224.73 3.16L224.98 3.5L225.22 3.86L225.44 4.23L221.77 6.28L221.66 6.09L221.56 6L221.44 5.83L221.31 5.67L221.17 5.52L221 5.35L220.85 5.21L220.69 5.08L220.54 5L220.37 4.89L220.19 4.79L220.01 4.69L219.83 4.6L219.64 4.52L219.45 4.45L219.26 4.39H217.05L216.85 4.45L216.65 4.52L216.46 4.6L216.27 4.69L216.08 4.79L214 1.07ZM225.46 4.3L225.66 4.68L225.84 5.07L226 5.46L226.14 5.86L226.26 6.26L226.36 6.66L226.44 7.07L226.49 7.48V9.48L226.43 9.88L226.35 10.27L226.25 10.66L226.13 11.04L225.99 11.42L225.84 11.79L225.67 12.15L225.48 12.51L225.27 12.86L225.04 13.2L224.8 13.53L224.54 13.85L224.26 14.16L223.97 14.45L223.66 14.73L223.33 15L222.99 15.25L222.63 15.49L222.26 15.71L220.26 12.04L220.45 11.93L220.63 11.81L220.8 11.68L220.96 11.55L221.11 11.41L221.26 11.26L221.4 11.11L221.53 10.95L221.65 10.79L221.76 10.62L221.86 10.45L221.96 10.27L222.05 10.09L222.13 9.9L222.2 9.71L222.26 9.52V9.32V7.32L222.2 7.12L222.13 6.92L222.05 6.72L221.96 6.52L221.86 6.33L225.46 4.3ZM222.23 15.73L221.85 15.93L221.46 16.11L221.07 16.27L220.67 16.41L220.27 16.53L219.87 16.63L219.46 16.71L219.05 16.76H217.05L216.65 16.7L216.26 16.62L215.87 16.52L215.49 16.4L215.11 16.26L214.74 16.11L214.38 15.94L214.02 15.75L213.67 15.54L213.33 15.31L213 15L212.68 14.74L212.37 14.46L212.08 14.17L211.8 13.86L211.53 13.53L211.28 13.19L211.04 12.83L210.82 12.46L214.49 10.41L214.6 10.6L214.72 10.78L214.85 10.95L214.98 11.11L215.12 11.26L215.27 11.41L215.42 11.55L215.58 11.68L215.74 11.8L215.91 11.91L216.08 12.01L216.26 12.11L216.44 12.2L216.63 12.28L216.82 12.35L217.01 12.41H219.22L219.42 12.35L219.62 12.28L219.81 12.2L220 12.11L220.19 12.01L222.23 15.73Z" fill="#C16FD1"/>
</svg>
