<svg xmlns="http://www.w3.org/2000/svg" viewBox="0 0 1179.6 456.9">
  
  <g id="Слой_2" data-name="Слой 2">
    <g id="Слой_1-2" data-name="Слой 1">
      <path d="M7.2,38.84a1.2,1.2,0,1,1,2.4,0Zm1.2,2.6v-4.2h.22l.21,0,.21,0,.21,0,.2,0,.2-.06L9.84,37,10,36.9l.19-.08.18-.09.18-.1.17-.11.17-.12.16-.13.15-.13.15-.14.14-.15.13-.15.12-.16.12-.17.11-.17.1-.18.09-.18.08-.19.08-.19.06-.19.06-.2,0-.2,0-.21,0-.21,0-.21V33h4.2v.43l0,.42-.05.42-.07.41-.09.41-.11.4-.13.39-.15.38-.17.37-.19.36-.2.35-.22.34-.23.33-.25.32-.26.3-.28.29-.29.28-.3.26-.32.25L13.1,40l-.34.22-.35.2L12,40.6l-.37.17-.38.15-.39.13-.4.11-.41.09-.41.07-.42.05-.43,0ZM16.8,33H12.6v-.22l0-.21,0-.21,0-.21,0-.2-.06-.2-.06-.19-.08-.19-.08-.19L12.09,31l-.1-.18-.11-.17-.12-.17-.12-.16-.13-.15-.14-.15-.15-.14-.15-.13-.16-.13-.17-.12-.17-.11-.18-.1-.18-.09L10,29.16l-.19-.07L9.65,29,9.45,29l-.2,0-.21,0-.21,0-.21,0H8.4v-4.2h.43l.43,0,.42.05.41.07.41.09.4.11.39.13.38.15.37.17.36.19.35.2.34.22.33.23.32.25.3.26.29.28.28.29.26.3.25.32.23.33.22.34.2.35.19.36.17.37.15.38.13.39.11.4.09.41.07.41.05.42,0,.42Zm-8.4-8.4v4.2H8.18l-.21,0-.21,0-.21,0-.2,0-.2.06-.2.07-.19.07-.19.08-.18.09-.18.1-.17.11-.17.12-.16.13-.15.13-.15.14-.14.15-.13.15L5,30.53l-.12.17-.11.17-.1.18-.09.18-.08.19-.08.19-.07.19-.06.2,0,.2,0,.21,0,.21,0,.21V33H0V32.6l0-.42.05-.42.07-.41.09-.41.11-.4.13-.39.15-.38.17-.37L1,29l.2-.35.22-.34L1.67,28l.25-.32.26-.3.28-.29.29-.28.3-.26.32-.25.33-.23L4,25.86l.35-.2.36-.19.37-.17.38-.15L5.9,25l.4-.11.41-.09.41-.07.42-.05.43,0ZM0,33H4.2v.22l0,.21,0,.21,0,.21,0,.2.06.2.07.19.08.19.08.19.09.18.1.18.11.17.12.17.13.16.13.15.14.15.15.14.15.13.16.13.17.12.17.11.18.1.18.09.19.08L7,37l.2.07.2.06.2,0,.21,0,.21,0,.21,0H8.4v4.2H8l-.43,0-.42-.05-.41-.07-.41-.09-.4-.11-.39-.13-.38-.15-.37-.17-.36-.19L4,40.21,3.7,40l-.33-.23-.32-.25-.3-.26L2.46,39l-.28-.29-.26-.3-.25-.32-.23-.33-.22-.34L1,37l-.19-.36L.66,36.3l-.15-.38-.13-.39-.11-.4-.09-.41L.1,34.31,0,33.89l0-.42Zm9.6,5.8V455.7H7.2V38.84ZM8.4,456.9a1.2,1.2,0,0,1,0-2.4Zm0-2.4h1170v2.4H8.4l-1.2-1.2Zm1171.2,1.2a1.2,1.2,0,0,1-2.4,0Zm-2.4,0V8.4h2.4V455.7l-1.2,1.2Zm1.2-448.5a1.2,1.2,0,0,1,0,2.4Zm0,2.4H14.2V7.2H1178.4l1.2,1.2ZM14.2,9.6a1.2,1.2,0,1,1,0-2.4Zm2.6-1.2v.43l0,.43-.05.42-.07.41-.09.41-.11.4-.13.39-.15.38L16,12l-.19.36-.2.35-.22.34-.23.33-.25.32-.26.3-.28.29-.29.28-.3.26-.32.25-.33.23-.34.22-.35.2L12,16l-.37.17-.38.15-.39.13-.4.11-.41.09-.41.07-.42.05-.43,0H8.4V12.6h.22l.21,0,.21,0,.21,0,.2,0,.2-.06.19-.06.19-.08.19-.08.18-.09.18-.1.17-.11.17-.12.16-.13.15-.13.15-.14.14-.15.13-.15.12-.16.12-.16.11-.17.1-.18.09-.18.09-.19.07-.19.07-.2.06-.2,0-.2,0-.21,0-.21,0-.21V8.4ZM8.4,16.8H8l-.43,0-.42-.05-.41-.07-.41-.09-.4-.11-.39-.13-.38-.15L4.76,16l-.36-.19L4,15.58l-.34-.22-.33-.23-.32-.25-.3-.26-.29-.28L2.19,14l-.26-.3-.25-.32-.23-.33-.22-.34L1,12.41.83,12l-.17-.37-.15-.38L.38,10.9l-.11-.4-.09-.41L.1,9.68,0,9.26l0-.43V8.4H4.2v.22l0,.21,0,.21,0,.21,0,.2.06.2.07.2.07.19.08.19.09.18.1.18.11.17.12.16.13.16.13.15.14.15.15.14.15.13.16.13.17.12.17.11.18.1.18.09.19.08.19.08.19.06.2.06.2,0,.21,0,.21,0,.21,0H8.4ZM0,8.4H0V8l0-.43L.1,7.12l.07-.41L.27,6.3l.11-.4.13-.39.15-.38.17-.37L1,4.39,1.22,4l.22-.34.23-.33.25-.32.26-.3.28-.29.29-.28.3-.26.32-.25.33-.23L4,1.22,4.4,1,4.76.83,5.13.66,5.52.51,5.91.38,6.3.26,6.71.17,7.13.1,7.54,0,8,0H8.4V4.2H8.18L8,4.22l-.21,0-.21,0-.2,0-.2.06L7,4.45l-.19.08-.19.08-.18.09-.18.1-.17.11L5.89,5l-.16.13-.15.13-.15.14-.14.15-.13.15L5,5.89l-.12.17-.11.17-.1.18-.09.18-.08.19L4.46,7l-.07.19-.06.2,0,.2,0,.21,0,.21,0,.21V8.4ZM8.4,0h.43l.43,0L9.67.1l.41.07.41.09.4.11.39.13.38.15L12,.83,12.4,1l.35.2.34.22.33.23.32.25.3.26.29.28.28.29.26.3.25.32.23.33.22.34.2.35.19.36.17.37.15.38.13.39.11.4.09.41.07.41.05.42,0,.43V8.4H12.6V8.18l0-.21,0-.21,0-.21,0-.2-.06-.2L12.35,7l-.07-.19-.09-.19-.09-.18L12,6.23l-.11-.17-.12-.17-.12-.16-.13-.15-.14-.15-.15-.14-.15-.13L10.91,5l-.17-.12-.17-.11-.18-.1-.18-.09L10,4.53l-.19-.08-.19-.06-.2-.06-.2,0L9,4.25l-.21,0-.21,0H8.4Z" style="fill: #e6e6e6"/>
    </g>
  </g>
</svg>