<svg width="500" height="587" viewBox="0 0 500 587" fill="none" xmlns="http://www.w3.org/2000/svg">
<path d="M485.916 75.6163H481.267C481.267 74.9985 481.512 74.406 481.947 73.9692C482.383 73.5323 482.975 73.2869 483.591 73.2869C484.208 73.2869 484.799 73.5323 485.235 73.9692C485.671 74.406 485.916 74.9985 485.916 75.6163ZM483.591 80.7056V72.4256H484.021H484.431H484.841H485.252H485.642L486.033 72.3082L486.404 72.1712L486.775 72.0341L487.146 71.8776L487.498 71.7014L487.85 71.5056L488.182 71.2903L488.514 71.0554L488.826 70.8009L489.119 70.5465L489.412 70.2724L489.686 69.9788L489.94 69.6852L490.194 69.372L490.428 69.0392L490.643 68.7065L490.838 68.3541L491.014 68.0018L491.171 67.6299L491.327 67.258L491.444 66.886L491.561 66.4946V66.1031V65.692V65.2809V64.8699V64.4392H500.078V65.2809V66.1031L499.98 66.9252L499.844 67.7278L499.668 68.5303L499.453 69.3133L499.199 70.0767L498.906 70.8205L498.574 71.5448L498.203 72.2495L497.812 72.9346L497.382 73.6001L496.933 74.2461L496.445 74.8724L495.937 75.4597L495.39 76.0273L494.823 76.5754L494.237 77.0844L493.612 77.5737L492.968 78.0239L492.304 78.4546L491.62 78.8461L490.917 79.218L490.194 79.5507L489.451 79.8444L488.69 80.0988L487.908 80.3142L487.107 80.4903L486.306 80.6273L485.486 80.7252H484.646L483.591 80.7056ZM500 64.2631H491.796V63.8324V63.4214V63.0103V62.5992V62.2077L491.678 61.8163L491.561 61.4248L491.405 61.0529L491.249 60.6809L491.073 60.3286L490.877 59.9763L490.663 59.6435L490.428 59.3107L490.174 58.9975L489.92 58.7039L489.647 58.4103L489.354 58.1363L489.061 57.8818L488.748 57.6273L488.416 57.3924L488.084 57.1771L487.732 56.9814L487.381 56.8052L487.01 56.6486L486.639 56.5116L486.267 56.3745L485.877 56.2571H485.486H485.076H484.666H484.255H483.826V48.0358H484.451H485.291L486.111 48.1337L486.912 48.2707L487.713 48.4469L488.494 48.6622L489.256 48.9167L489.998 49.2103L490.721 49.543L491.424 49.915L492.108 50.3065L492.772 50.7371L493.417 51.1873L494.042 51.6767L494.628 52.1856L495.195 52.7337L495.742 53.3014L496.249 53.8886L496.738 54.515L497.187 55.1609L497.617 55.8265L498.008 56.5116L498.379 57.2162L498.711 57.9405L499.004 58.6843L499.258 59.4477L499.473 60.2307L499.648 61.0333L499.785 61.8358L499.883 62.658V63.4801L500 64.2631ZM483.591 47.8205V56.0418H483.161H482.751H482.341H481.931H481.54L481.149 56.1592L480.778 56.2962L480.407 56.4333L480.036 56.5899L479.684 56.766L479.333 56.9618L479.001 57.1771L478.669 57.412L478.356 57.6665L478.063 57.9209L477.77 58.195L477.497 58.4886L477.243 58.7822L476.989 59.0954L476.754 59.4282L476.539 59.7609L476.344 60.1133L476.168 60.4656L476.012 60.8375L475.856 61.2094L475.738 61.6009L475.621 61.9924V62.3839V62.795V63.206V63.6171V64.0478H467.417V63.206V62.3839L467.514 61.5618L467.651 60.7592L467.827 59.9567L468.042 59.1737L468.296 58.4103L468.589 57.6665L468.921 56.9422L469.292 56.2375L469.683 55.5524L470.113 54.8869L470.562 54.2409L471.05 53.6145L471.558 53.0273L472.105 52.4596L472.672 51.9116L473.258 51.4026L473.883 50.9133L474.527 50.4631L475.191 50.0324L475.875 49.6409L476.578 49.269L477.301 48.9362L478.043 48.6426L478.805 48.3882L479.587 48.1728L480.388 47.9967L481.188 47.8596L482.009 47.7618H482.849L483.591 47.8205ZM467.182 64.2631H475.387V64.5958V65.0069V65.418V65.829V66.2205L475.504 66.612L475.621 66.9839L475.777 67.3558L475.934 67.7278L476.11 68.0801L476.305 68.4324L476.52 68.7652L476.754 69.098L477.008 69.4112L477.262 69.7048L477.536 69.9984L477.829 70.2724L478.122 70.5269L478.434 70.7814L478.766 71.0163L479.098 71.2316L479.45 71.4273L479.802 71.6035L480.173 71.7601L480.544 71.8971L480.915 72.0341L481.306 72.1516H481.696H482.107H482.517H482.927H483.357V80.3729H482.517H481.677L480.856 80.275L480.055 80.138L479.255 79.9618L478.473 79.7465L477.711 79.492L476.969 79.1984L476.246 78.8656L475.543 78.4937L474.859 78.1022L474.195 77.6716L473.551 77.2214L472.925 76.732L472.339 76.2231L471.773 75.675L471.226 75.1073L470.718 74.5201L470.23 73.8937L469.78 73.2478L469.351 72.5822L468.96 71.8971L468.589 71.1924L468.257 70.4682L467.964 69.7244L467.71 68.9609L467.495 68.178L467.319 67.3754L467.182 66.5729L467.085 65.7507V64.9286L467.182 64.2631ZM481.267 75.6163H485.916V584.671H481.267V75.6163ZM483.591 587V582.341C484.208 582.341 484.799 582.587 485.235 583.023C485.671 583.46 485.916 584.053 485.916 584.671C485.916 585.288 485.671 585.881 485.235 586.318C484.799 586.755 484.208 587 483.591 587ZM483.591 582.341L485.916 584.671L483.591 587H2.32458V582.341H483.591ZM0 584.671H4.64916C4.64916 585.288 4.40425 585.881 3.96831 586.318C3.53237 586.755 2.9411 587 2.32458 587C1.70806 587 1.1168 586.755 0.680854 586.318C0.244911 585.881 0 585.288 0 584.671H0ZM4.64916 584.671L2.32458 587L0 584.671V16.4426H4.64916V584.671ZM2.32458 14.1132V18.7719C1.70806 18.7719 1.1168 18.5265 0.680854 18.0897C0.244911 17.6528 0 17.0604 0 16.4426C0 15.8248 0.244911 15.2323 0.680854 14.7955C1.1168 14.3586 1.70806 14.1132 2.32458 14.1132V14.1132ZM2.32458 18.7719L0 16.4426L2.32458 14.1132H472.261V18.7719H2.32458ZM472.261 18.7719V14.1132C472.878 14.1132 473.469 14.3586 473.905 14.7955C474.341 15.2323 474.586 15.8248 474.586 16.4426C474.586 17.0604 474.341 17.6528 473.905 18.0897C473.469 18.5265 472.878 18.7719 472.261 18.7719V18.7719ZM467.182 16.4426V15.6596V14.8179L467.28 13.9958L467.417 13.1932L467.593 12.3907L467.807 11.6077L468.061 10.8443L468.354 10.1004L468.687 9.37618L469.058 8.6715L469.448 7.98639L469.878 7.32086L470.327 6.6749L470.816 6.04852L471.324 5.46128L471.871 4.89362L472.437 4.34554L473.023 3.8366L473.648 3.34724L474.293 2.89703L474.957 2.46639L475.641 2.0749L476.344 1.70298L477.067 1.37021L477.809 1.0766L478.571 0.822129L479.352 0.606809L480.153 0.430639L480.954 0.293617L481.775 0.195745H482.595H483.435V8.22129H483.005H482.595H482.185H481.775H481.384L480.993 8.33874L480.622 8.47576L480.251 8.63235L479.88 8.78895L479.528 8.96512L479.176 9.16086L478.844 9.37618L478.512 9.61108L478.2 9.86555L477.907 10.12L477.614 10.3941L477.34 10.6877L477.086 10.9813L476.832 11.2945L476.598 11.6273L476.383 11.96L476.188 12.3124L476.012 12.6647L475.836 13.0366L475.699 13.4085L475.563 13.8L475.445 14.1915V14.583V14.9941V15.4051V15.8162V16.4426H467.182ZM483.591 0H484.451H485.291L486.111 0.0978725L486.912 0.234894L487.713 0.411064L488.494 0.626384L489.256 0.880852L489.998 1.17447L490.721 1.50724L491.424 1.87915L492.108 2.27064L492.772 2.70128L493.417 3.15149L494.042 3.64086L494.628 4.14979L495.195 4.69788L495.742 5.26554L496.249 5.85277L496.738 6.47916L497.187 7.12512L497.617 7.79065L498.008 8.47576L498.379 9.18044L498.711 9.90469L499.004 10.6485L499.258 11.4119L499.473 12.1949L499.648 12.9975L499.785 13.8L499.883 14.6221L500.078 15.6596V16.4426H491.874V16.0119V15.6009V15.1898V14.7787V14.3873L491.757 13.9958L491.62 13.6043L491.483 13.2324L491.307 12.8604L491.131 12.5081L490.936 12.1558L490.311 11.8621L490.077 11.5294L489.842 11.2162L489.588 10.9226L489.315 10.629L489.022 10.3549L488.729 10.1004L488.494 9.78725L488.162 9.55235L487.83 9.33703L487.479 9.14129L487.127 8.96512L486.756 8.80852L486.404 8.71065L486.033 8.57363L485.642 8.45618H485.252H484.841H484.431H484.021H483.591V0ZM500.078 16.4426V17.2843V18.126L499.98 18.9481L499.844 19.7507L499.668 20.5532L499.453 21.3362L499.199 22.0996L498.906 22.8434L498.574 23.5677L498.203 24.2724L497.812 24.9575L497.382 25.623L496.933 26.269L496.445 26.8954L495.937 27.4826L495.39 28.0503L494.823 28.5983L494.237 29.1073L493.612 29.5966L492.968 30.0469L492.304 30.4775L491.62 30.869L490.917 31.2409L490.194 31.5737L489.451 31.8673L488.69 32.1217L487.908 32.3371L487.107 32.5132L486.306 32.6503L485.486 32.7481H484.646H483.806V24.6639H484.236H484.646H485.056H485.467H485.857L486.248 24.5464L486.619 24.429L486.99 24.2724L487.361 24.1158L487.713 23.9396L488.065 23.7439L488.397 23.5285L488.729 23.2936L489.041 23.0392L489.334 22.7847L489.627 22.5107L489.901 22.2171L490.155 21.9234L490.389 21.6102L490.624 21.2775L490.838 20.9447L491.034 20.5924L491.21 20.24L491.385 19.8681L491.522 19.4962L491.659 19.1243L491.776 18.7328V18.3413V17.9302V17.5192V17.1081V16.4426H500.078ZM483.669 32.8852H482.829H482.009L481.188 32.7873L480.388 32.6503L479.587 32.4741L478.805 32.2588L478.043 32.0043L477.301 31.7107L476.578 31.3779L475.875 31.006L475.191 30.6145L474.527 30.1839L473.883 29.7337L473.258 29.2443L472.672 28.7354L472.105 28.1873L471.558 27.6196L471.05 27.0324L470.562 26.406L470.113 25.76L469.683 25.0945L469.292 24.4094L468.823 23.4894L468.491 22.7651L468.198 22.0213L467.944 21.2579L467.729 20.4749L467.554 19.6724L467.417 18.8698L467.319 18.0477V17.206V16.4426H475.524V16.8732V17.2843V17.6953V18.1064V18.4979L475.641 18.8894L475.777 19.2613L475.914 19.6332L476.09 20.0051L476.266 20.3575L476.461 20.7098L476.676 21.0426L476.91 21.3753L477.164 21.6885L477.418 21.9822L477.692 22.2758L477.985 22.5498L478.278 22.8043L478.59 23.0588L478.923 23.2936L479.255 23.509L479.606 23.7047L479.958 23.8809L480.329 24.0375L480.7 24.1941L481.071 24.3115L481.462 24.429H481.853H482.263H482.673H483.083H483.513L483.669 32.8852Z" fill="white"/>
</svg>
