<svg width="500" height="587" viewBox="0 0 500 587" fill="none" xmlns="http://www.w3.org/2000/svg">
<path d="M14.0842 511.384H18.7334C18.7334 512.002 18.4885 512.594 18.0525 513.031C17.6166 513.468 17.0253 513.713 16.4088 513.713C15.7923 513.713 15.201 513.468 14.7651 513.031C14.3291 512.594 14.0842 512.002 14.0842 511.384ZM16.4088 506.294V514.574H15.979H15.5688H15.1586H14.7484H14.3577L13.967 514.692L13.5959 514.829L13.2247 514.966L12.8535 515.122L12.5019 515.299L12.1503 515.494L11.8182 515.71L11.4861 515.945L11.1736 516.199L10.8806 516.454L10.5876 516.728L10.3141 517.021L10.0602 517.315L9.8062 517.628L9.57179 517.961L9.35692 518.294L9.16156 518.646L8.98576 518.998L8.82948 519.37L8.6732 519.742L8.556 520.114L8.4388 520.505V520.897V521.308V521.719V522.13V522.561H-0.0781555V521.719V520.897L0.019522 520.075L0.156247 519.272L0.332078 518.47L0.546956 517.687L0.800882 516.923L1.09391 516.179L1.42599 515.455L1.79715 514.751L2.18783 514.065L2.61759 513.4L3.06687 512.754L3.55523 512.128L4.06311 511.54L4.61007 510.973L5.17658 510.425L5.76261 509.916L6.38769 509.426L7.03233 508.976L7.69649 508.545L8.3802 508.154L9.08344 507.782L9.8062 507.449L10.5485 507.156L11.3103 506.901L12.0917 506.686L12.8926 506.51L13.6935 506.373L14.514 506.275H15.3539L16.4088 506.294ZM-3.14209e-05 522.737H8.2044V523.168V523.579V523.99V524.401V524.792L8.3216 525.184L8.4388 525.575L8.59508 525.947L8.75136 526.319L8.92716 526.671L9.12251 527.024L9.33739 527.357L9.57179 527.689L9.82575 528.002L10.0797 528.296L10.3532 528.59L10.6462 528.864L10.9392 529.118L11.2517 529.373L11.5838 529.608L11.9159 529.823L12.2675 530.019L12.6191 530.195L12.9903 530.351L13.3615 530.488L13.7326 530.625L14.1233 530.743H14.514H14.9242H15.3344H15.7446H16.1744V538.964H15.5493H14.7093L13.8889 538.866L13.088 538.729L12.2871 538.553L11.5057 538.338L10.7438 538.083L10.0016 537.79L9.27876 537.457L8.57553 537.085L7.89184 536.694L7.22768 536.263L6.58305 535.813L5.95794 535.323L5.3719 534.814L4.80542 534.266L4.25846 533.699L3.75058 533.111L3.26222 532.485L2.81291 531.839L2.38316 531.174L1.99248 530.488L1.62132 529.784L1.28924 529.059L0.996237 528.316L0.742282 527.552L0.527403 526.769L0.351602 525.967L0.214847 525.164L0.117199 524.342V523.52L-3.14209e-05 522.737ZM16.4088 539.18V530.958H16.8386H17.2488H17.659H18.0692H18.4599L18.8506 530.841L19.2217 530.704L19.5929 530.567L19.964 530.41L20.3157 530.234L20.6673 530.038L20.9993 529.823L21.3315 529.588L21.644 529.334L21.937 529.079L22.23 528.805L22.5035 528.511L22.7574 528.218L23.0114 527.905L23.2458 527.572L23.4607 527.239L23.656 526.887L23.8318 526.534L23.9881 526.162L24.1444 525.791L24.2616 525.399L24.3788 525.008V524.616V524.205V523.794V523.383V522.952H32.5832V523.794V524.616L32.4855 525.438L32.3488 526.241L32.173 527.043L31.9581 527.826L31.7042 528.59L31.4111 529.334L31.0791 530.058L30.7079 530.762L30.3172 531.448L29.8875 532.113L29.4382 532.759L28.9498 533.385L28.4419 533.973L27.895 534.54L27.3285 535.088L26.7424 535.597L26.1174 536.087L25.4727 536.537L24.8086 536.968L24.1248 537.359L23.4216 537.731L22.6988 538.064L21.9565 538.357L21.1947 538.612L20.4133 538.827L19.6124 539.003L18.8115 539.14L17.9911 539.238H17.1511L16.4088 539.18ZM32.8176 522.737H24.6132V522.404V521.993V521.582V521.171V520.779L24.496 520.388L24.3788 520.016L24.2225 519.644L24.0662 519.272L23.8904 518.92L23.6951 518.568L23.4802 518.235L23.2458 517.902L22.9919 517.589L22.7379 517.295L22.4644 517.002L22.1714 516.728L21.8784 516.473L21.5659 516.219L21.2338 515.984L20.9017 515.768L20.5501 515.573L20.1985 515.396L19.8273 515.24L19.4561 515.103L19.085 514.966L18.6943 514.848H18.3036H17.8934H17.4832H17.073H16.6432V506.627H17.4832H18.3232L19.1436 506.725L19.9445 506.862L20.7454 507.038L21.5268 507.254L22.2886 507.508L23.0309 507.802L23.7537 508.134L24.4569 508.506L25.1406 508.898L25.8048 509.328L26.4494 509.779L27.0745 510.268L27.6605 510.777L28.2271 511.325L28.774 511.893L29.2819 512.48L29.7703 513.106L30.2195 513.752L30.6493 514.418L31.04 515.103L31.4111 515.808L31.7432 516.532L32.0362 517.276L32.2902 518.039L32.505 518.822L32.6809 519.625L32.8176 520.427L32.9153 521.249V522.071L32.8176 522.737ZM18.7334 511.384H14.0842V2.32939H18.7334V511.384ZM16.4088 1.77697e-05V4.65876C15.7923 4.65876 15.201 4.41335 14.7651 3.97651C14.3291 3.53966 14.0842 2.94717 14.0842 2.32939C14.0842 1.7116 14.3291 1.11911 14.7651 0.68227C15.201 0.245429 15.7923 1.77697e-05 16.4088 1.77697e-05ZM16.4088 4.65876L14.0842 2.32939L16.4088 1.77697e-05H497.675V4.65876H16.4088ZM500 2.32939H495.351C495.351 1.7116 495.596 1.11911 496.032 0.68227C496.468 0.245429 497.059 1.77697e-05 497.675 1.77697e-05C498.292 1.77697e-05 498.883 0.245429 499.319 0.68227C499.755 1.11911 500 1.7116 500 2.32939V2.32939ZM495.351 2.32939L497.675 1.77697e-05L500 2.32939V570.557H495.351V2.32939ZM497.675 572.887V568.228C498.292 568.228 498.883 568.473 499.319 568.91C499.755 569.347 500 569.94 500 570.557C500 571.175 499.755 571.768 499.319 572.205C498.883 572.641 498.292 572.887 497.675 572.887V572.887ZM497.675 568.228L500 570.557L497.675 572.887H27.7387V568.228H497.675ZM27.7387 568.228V572.887C27.1222 572.887 26.5309 572.641 26.095 572.205C25.659 571.768 25.4141 571.175 25.4141 570.557C25.4141 569.94 25.659 569.347 26.095 568.91C26.5309 568.473 27.1222 568.228 27.7387 568.228V568.228ZM32.8176 570.557V571.34V572.182L32.7199 573.004L32.5832 573.807L32.4074 574.609L32.1925 575.392L31.9386 576.156L31.6456 576.9L31.3135 577.624L30.9423 578.328L30.5516 579.014L30.1219 579.679L29.6726 580.325L29.1842 580.951L28.6763 581.539L28.1294 582.106L27.5629 582.654L26.9769 583.163L26.3518 583.653L25.7071 584.103L25.043 584.534L24.3592 584.925L23.656 585.297L22.9333 585.63L22.1909 585.923L21.4291 586.178L20.6477 586.393L19.8468 586.569L19.0459 586.706L18.2255 586.804H17.405H16.5651V578.779H16.9948H17.405H17.8153H18.2255H18.6162L19.0069 578.661L19.378 578.524L19.7492 578.368L20.1203 578.211L20.4719 578.035L20.8235 577.839L21.1556 577.624L21.4877 577.389L21.8003 577.134L22.0933 576.88L22.3863 576.606L22.6598 576.312L22.9137 576.019L23.1677 575.706L23.4021 575.373L23.617 575.04L23.8123 574.688L23.9881 574.335L24.1639 573.963L24.3006 573.591L24.4374 573.2L24.5546 572.808V572.417V572.006V571.595V571.184V570.557H32.8176ZM16.4088 587H15.5493H14.7093L13.8889 586.902L13.088 586.765L12.2871 586.589L11.5057 586.374L10.7438 586.119L10.0016 585.826L9.27876 585.493L8.57553 585.121L7.89184 584.729L7.22768 584.299L6.58305 583.849L5.95794 583.359L5.3719 582.85L4.80542 582.302L4.25846 581.734L3.75058 581.147L3.26222 580.521L2.81291 579.875L2.38316 579.209L1.99248 578.524L1.62132 577.82L1.28924 577.095L0.996237 576.351L0.742282 575.588L0.527403 574.805L0.351602 574.003L0.214847 573.2L0.117199 572.378L-0.0781555 571.34V570.557H8.12625V570.988V571.399V571.81V572.221V572.613L8.24345 573.004L8.3802 573.396L8.51693 573.768L8.69276 574.14L8.86856 574.492L9.06388 574.844L9.689 575.138L9.9234 575.471L10.1578 575.784L10.4118 576.077L10.6852 576.371L10.9783 576.645L11.2713 576.9L11.5057 577.213L11.8378 577.448L12.1699 577.663L12.5215 577.859L12.8731 578.035L13.2443 578.191L13.5959 578.289L13.967 578.426L14.3577 578.544H14.7484H15.1586H15.5688H15.979H16.4088V587ZM-0.0781555 570.557V569.716V568.874L0.019522 568.052L0.156247 567.249L0.332078 566.447L0.546956 565.664L0.800882 564.9L1.09391 564.157L1.42599 563.432L1.79715 562.728L2.18783 562.043L2.61759 561.377L3.06687 560.731L3.55523 560.105L4.06311 559.517L4.61007 558.95L5.17658 558.402L5.76261 557.893L6.38769 557.403L7.03233 556.953L7.69649 556.523L8.3802 556.131L9.08344 555.759L9.8062 555.426L10.5485 555.133L11.3103 554.878L12.0917 554.663L12.8926 554.487L13.6935 554.35L14.514 554.252H15.3539H16.1939V562.336H15.7642H15.3539H14.9437H14.5335H14.1428L13.7521 562.454L13.381 562.571L13.0098 562.728L12.6387 562.884L12.2871 563.06L11.9354 563.256L11.6033 563.471L11.2713 563.706L10.9587 563.961L10.6657 564.215L10.3727 564.489L10.0992 564.783L9.84527 565.077L9.61087 565.39L9.37644 565.723L9.16156 566.055L8.96624 566.408L8.7904 566.76L8.6146 567.132L8.47788 567.504L8.34112 567.876L8.22392 568.267V568.659V569.07V569.481V569.892V570.557H-0.0781555ZM16.3306 554.115H17.1706H17.9911L18.8115 554.213L19.6124 554.35L20.4133 554.526L21.1947 554.741L21.9565 554.996L22.6988 555.289L23.4216 555.622L24.1248 555.994L24.8086 556.385L25.4727 556.816L26.1174 557.266L26.7424 557.756L27.3285 558.265L27.895 558.813L28.4419 559.38L28.9498 559.968L29.4382 560.594L29.8875 561.24L30.3172 561.905L30.7079 562.591L31.1767 563.511L31.5088 564.235L31.8018 564.979L32.0558 565.742L32.2706 566.525L32.4464 567.328L32.5832 568.13L32.6809 568.952V569.794V570.557H24.4765V570.127V569.716V569.305V568.894V568.502L24.3592 568.111L24.2225 567.739L24.0858 567.367L23.91 566.995L23.7342 566.643L23.5388 566.29L23.3239 565.957L23.0895 565.625L22.8356 565.311L22.5816 565.018L22.3082 564.724L22.0151 564.45L21.7221 564.196L21.4096 563.941L21.0775 563.706L20.7454 563.491L20.3938 563.295L20.0422 563.119L19.671 562.963L19.2999 562.806L18.9287 562.688L18.538 562.571H18.1474H17.7371H17.3269H16.9167H16.4869L16.3306 554.115Z" fill="white"/>
</svg>
