<svg width="500" height="587" viewBox="0 0 500 587" fill="none" xmlns="http://www.w3.org/2000/svg">
<path d="M14.0842 75.6163H18.7334C18.7334 74.9985 18.4885 74.406 18.0525 73.9692C17.6166 73.5323 17.0253 73.2869 16.4088 73.2869C15.7923 73.2869 15.201 73.5323 14.7651 73.9692C14.3291 74.406 14.0842 74.9985 14.0842 75.6163ZM16.4088 80.7056V72.4256H15.979H15.5688H15.1586H14.7484H14.3577L13.967 72.3082L13.5959 72.1712L13.2247 72.0341L12.8535 71.8776L12.5019 71.7014L12.1503 71.5056L11.8182 71.2903L11.4861 71.0554L11.1736 70.8009L10.8806 70.5465L10.5876 70.2724L10.3141 69.9788L10.0602 69.6852L9.8062 69.372L9.57179 69.0392L9.35692 68.7065L9.16156 68.3541L8.98576 68.0018L8.82948 67.6299L8.6732 67.258L8.556 66.886L8.4388 66.4946V66.1031V65.692V65.2809V64.8699V64.4392H-0.0781555V65.2809V66.1031L0.019522 66.9252L0.156247 67.7278L0.332078 68.5303L0.546956 69.3133L0.800882 70.0767L1.09391 70.8205L1.42599 71.5448L1.79715 72.2495L2.18783 72.9346L2.61759 73.6001L3.06687 74.2461L3.55523 74.8724L4.06311 75.4597L4.61007 76.0273L5.17658 76.5754L5.76261 77.0844L6.38769 77.5737L7.03233 78.0239L7.69649 78.4546L8.3802 78.8461L9.08344 79.218L9.8062 79.5507L10.5485 79.8444L11.3103 80.0988L12.0917 80.3142L12.8926 80.4903L13.6935 80.6273L14.514 80.7252H15.3539L16.4088 80.7056ZM-3.14209e-05 64.2631H8.2044V63.8324V63.4214V63.0103V62.5992V62.2077L8.3216 61.8163L8.4388 61.4248L8.59508 61.0529L8.75136 60.6809L8.92716 60.3286L9.12251 59.9763L9.33739 59.6435L9.57179 59.3107L9.82575 58.9975L10.0797 58.7039L10.3532 58.4103L10.6462 58.1363L10.9392 57.8818L11.2517 57.6273L11.5838 57.3924L11.9159 57.1771L12.2675 56.9814L12.6191 56.8052L12.9903 56.6486L13.3615 56.5116L13.7326 56.3745L14.1233 56.2571H14.514H14.9242H15.3344H15.7446H16.1744V48.0358H15.5493H14.7093L13.8889 48.1337L13.088 48.2707L12.2871 48.4469L11.5057 48.6622L10.7438 48.9167L10.0016 49.2103L9.27876 49.543L8.57553 49.915L7.89184 50.3065L7.22768 50.7371L6.58305 51.1873L5.95794 51.6767L5.3719 52.1856L4.80542 52.7337L4.25846 53.3014L3.75058 53.8886L3.26222 54.515L2.81291 55.1609L2.38316 55.8265L1.99248 56.5116L1.62132 57.2162L1.28924 57.9405L0.996237 58.6843L0.742282 59.4477L0.527403 60.2307L0.351602 61.0333L0.214847 61.8358L0.117199 62.658V63.4801L-3.14209e-05 64.2631ZM16.4088 47.8205V56.0418H16.8386H17.2488H17.659H18.0692H18.4599L18.8506 56.1592L19.2217 56.2962L19.5929 56.4333L19.964 56.5899L20.3157 56.766L20.6673 56.9618L20.9993 57.1771L21.3315 57.412L21.644 57.6665L21.937 57.9209L22.23 58.195L22.5035 58.4886L22.7574 58.7822L23.0114 59.0954L23.2458 59.4282L23.4607 59.7609L23.656 60.1133L23.8318 60.4656L23.9881 60.8375L24.1444 61.2094L24.2616 61.6009L24.3788 61.9924V62.3839V62.795V63.206V63.6171V64.0478H32.5832V63.206V62.3839L32.4855 61.5618L32.3488 60.7592L32.173 59.9567L31.9581 59.1737L31.7042 58.4103L31.4111 57.6665L31.0791 56.9422L30.7079 56.2375L30.3172 55.5524L29.8875 54.8869L29.4382 54.2409L28.9498 53.6145L28.4419 53.0273L27.895 52.4596L27.3285 51.9116L26.7424 51.4026L26.1174 50.9133L25.4727 50.4631L24.8086 50.0324L24.1248 49.6409L23.4216 49.269L22.6988 48.9362L21.9565 48.6426L21.1947 48.3882L20.4133 48.1728L19.6124 47.9967L18.8115 47.8596L17.9911 47.7618H17.1511L16.4088 47.8205ZM32.8176 64.2631H24.6132V64.5958V65.0069V65.418V65.829V66.2205L24.496 66.612L24.3788 66.9839L24.2225 67.3558L24.0662 67.7278L23.8904 68.0801L23.6951 68.4324L23.4802 68.7652L23.2458 69.098L22.9919 69.4112L22.7379 69.7048L22.4644 69.9984L22.1714 70.2724L21.8784 70.5269L21.5659 70.7814L21.2338 71.0163L20.9017 71.2316L20.5501 71.4273L20.1985 71.6035L19.8273 71.7601L19.4561 71.8971L19.085 72.0341L18.6943 72.1516H18.3036H17.8934H17.4832H17.073H16.6432V80.3729H17.4832H18.3232L19.1436 80.275L19.9445 80.138L20.7454 79.9618L21.5268 79.7465L22.2886 79.492L23.0309 79.1984L23.7537 78.8656L24.4569 78.4937L25.1406 78.1022L25.8048 77.6716L26.4494 77.2214L27.0745 76.732L27.6605 76.2231L28.2271 75.675L28.774 75.1073L29.2819 74.5201L29.7703 73.8937L30.2195 73.2478L30.6493 72.5822L31.04 71.8971L31.4111 71.1924L31.7432 70.4682L32.0362 69.7244L32.2902 68.9609L32.505 68.178L32.6809 67.3754L32.8176 66.5729L32.9153 65.7507V64.9286L32.8176 64.2631ZM18.7334 75.6163H14.0842V584.671H18.7334V75.6163ZM16.4088 587V582.341C15.7923 582.341 15.201 582.587 14.7651 583.023C14.3291 583.46 14.0842 584.053 14.0842 584.671C14.0842 585.288 14.3291 585.881 14.7651 586.318C15.201 586.755 15.7923 587 16.4088 587ZM16.4088 582.341L14.0842 584.671L16.4088 587H497.675V582.341H16.4088ZM500 584.671H495.351C495.351 585.288 495.596 585.881 496.032 586.318C496.468 586.755 497.059 587 497.675 587C498.292 587 498.883 586.755 499.319 586.318C499.755 585.881 500 585.288 500 584.671V584.671ZM495.351 584.671L497.675 587L500 584.671V16.4426H495.351V584.671ZM497.675 14.1132V18.7719C498.292 18.7719 498.883 18.5265 499.319 18.0897C499.755 17.6528 500 17.0604 500 16.4426C500 15.8248 499.755 15.2323 499.319 14.7955C498.883 14.3586 498.292 14.1132 497.675 14.1132V14.1132ZM497.675 18.7719L500 16.4426L497.675 14.1132H27.7387V18.7719H497.675ZM27.7387 18.7719V14.1132C27.1222 14.1132 26.5309 14.3586 26.095 14.7955C25.659 15.2323 25.4141 15.8248 25.4141 16.4426C25.4141 17.0604 25.659 17.6528 26.095 18.0897C26.5309 18.5265 27.1222 18.7719 27.7387 18.7719V18.7719ZM32.8176 16.4426V15.6596V14.8179L32.7199 13.9958L32.5832 13.1932L32.4074 12.3907L32.1925 11.6077L31.9386 10.8443L31.6456 10.1004L31.3135 9.37618L30.9423 8.6715L30.5516 7.98639L30.1219 7.32086L29.6726 6.6749L29.1842 6.04852L28.6763 5.46128L28.1294 4.89362L27.5629 4.34554L26.9769 3.8366L26.3518 3.34724L25.7071 2.89703L25.043 2.46639L24.3592 2.0749L23.656 1.70298L22.9333 1.37021L22.1909 1.0766L21.4291 0.822129L20.6477 0.606809L19.8468 0.430639L19.0459 0.293617L18.2255 0.195745H17.405H16.5651V8.22129H16.9948H17.405H17.8153H18.2255H18.6162L19.0069 8.33874L19.378 8.47576L19.7492 8.63235L20.1203 8.78895L20.4719 8.96512L20.8235 9.16086L21.1556 9.37618L21.4877 9.61108L21.8003 9.86555L22.0933 10.12L22.3863 10.3941L22.6598 10.6877L22.9137 10.9813L23.1677 11.2945L23.4021 11.6273L23.617 11.96L23.8123 12.3124L23.9881 12.6647L24.1639 13.0366L24.3006 13.4085L24.4374 13.8L24.5546 14.1915V14.583V14.9941V15.4051V15.8162V16.4426H32.8176ZM16.4088 0H15.5493H14.7093L13.8889 0.0978725L13.088 0.234894L12.2871 0.411064L11.5057 0.626384L10.7438 0.880852L10.0016 1.17447L9.27876 1.50724L8.57553 1.87915L7.89184 2.27064L7.22768 2.70128L6.58305 3.15149L5.95794 3.64086L5.3719 4.14979L4.80542 4.69788L4.25846 5.26554L3.75058 5.85277L3.26222 6.47916L2.81291 7.12512L2.38316 7.79065L1.99248 8.47576L1.62132 9.18044L1.28924 9.90469L0.996237 10.6485L0.742282 11.4119L0.527403 12.1949L0.351602 12.9975L0.214847 13.8L0.117199 14.6221L-0.0781555 15.6596V16.4426H8.12625V16.0119V15.6009V15.1898V14.7787V14.3873L8.24345 13.9958L8.3802 13.6043L8.51693 13.2324L8.69276 12.8604L8.86856 12.5081L9.06388 12.1558L9.689 11.8621L9.9234 11.5294L10.1578 11.2162L10.4118 10.9226L10.6852 10.629L10.9783 10.3549L11.2713 10.1004L11.5057 9.78725L11.8378 9.55235L12.1699 9.33703L12.5215 9.14129L12.8731 8.96512L13.2443 8.80852L13.5959 8.71065L13.967 8.57363L14.3577 8.45618H14.7484H15.1586H15.5688H15.979H16.4088V0ZM-0.0781555 16.4426V17.2843V18.126L0.019522 18.9481L0.156247 19.7507L0.332078 20.5532L0.546956 21.3362L0.800882 22.0996L1.09391 22.8434L1.42599 23.5677L1.79715 24.2724L2.18783 24.9575L2.61759 25.623L3.06687 26.269L3.55523 26.8954L4.06311 27.4826L4.61007 28.0503L5.17658 28.5983L5.76261 29.1073L6.38769 29.5966L7.03233 30.0469L7.69649 30.4775L8.3802 30.869L9.08344 31.2409L9.8062 31.5737L10.5485 31.8673L11.3103 32.1217L12.0917 32.3371L12.8926 32.5132L13.6935 32.6503L14.514 32.7481H15.3539H16.1939V24.6639H15.7642H15.3539H14.9437H14.5335H14.1428L13.7521 24.5464L13.381 24.429L13.0098 24.2724L12.6387 24.1158L12.2871 23.9396L11.9354 23.7439L11.6033 23.5285L11.2713 23.2936L10.9587 23.0392L10.6657 22.7847L10.3727 22.5107L10.0992 22.2171L9.84527 21.9234L9.61087 21.6102L9.37644 21.2775L9.16156 20.9447L8.96624 20.5924L8.7904 20.24L8.6146 19.8681L8.47788 19.4962L8.34112 19.1243L8.22392 18.7328V18.3413V17.9302V17.5192V17.1081V16.4426H-0.0781555ZM16.3306 32.8852H17.1706H17.9911L18.8115 32.7873L19.6124 32.6503L20.4133 32.4741L21.1947 32.2588L21.9565 32.0043L22.6988 31.7107L23.4216 31.3779L24.1248 31.006L24.8086 30.6145L25.4727 30.1839L26.1174 29.7337L26.7424 29.2443L27.3285 28.7354L27.895 28.1873L28.4419 27.6196L28.9498 27.0324L29.4382 26.406L29.8875 25.76L30.3172 25.0945L30.7079 24.4094L31.1767 23.4894L31.5088 22.7651L31.8018 22.0213L32.0558 21.2579L32.2706 20.4749L32.4464 19.6724L32.5832 18.8698L32.6809 18.0477V17.206V16.4426H24.4765V16.8732V17.2843V17.6953V18.1064V18.4979L24.3592 18.8894L24.2225 19.2613L24.0858 19.6332L23.91 20.0051L23.7342 20.3575L23.5388 20.7098L23.3239 21.0426L23.0895 21.3753L22.8356 21.6885L22.5816 21.9822L22.3082 22.2758L22.0151 22.5498L21.7221 22.8043L21.4096 23.0588L21.0775 23.2936L20.7454 23.509L20.3938 23.7047L20.0422 23.8809L19.671 24.0375L19.2999 24.1941L18.9287 24.3115L18.538 24.429H18.1474H17.7371H17.3269H16.9167H16.4869L16.3306 32.8852Z" fill="white"/>
</svg>
