<svg width="1927" height="530" viewBox="0 0 1927 530" fill="none" xmlns="http://www.w3.org/2000/svg">
<path fill-rule="evenodd" clip-rule="evenodd" d="M344.257 96.2752C348.147 93.3578 352.037 91.4128 355.927 89.4679C377.321 80.7156 399.688 79.7431 420.11 84.6055C435.67 89.4679 450.257 97.2477 461.927 107.945L429.835 126.422C424 122.532 418.165 119.615 411.358 117.67C377.321 108.917 342.312 128.367 333.56 162.404C322.862 201.303 350.092 240.202 390.936 243.119C421.083 245.064 448.312 225.615 457.064 195.468C458.037 189.633 459.009 181.853 459.009 175.046L490.128 157.541C494.018 173.101 493.046 189.633 489.156 204.22C483.321 226.587 469.706 246.037 450.257 259.651C447.339 261.596 444.422 263.541 441.505 265.486C444.422 266.459 447.339 268.404 451.229 270.349C470.679 283.963 483.321 304.385 489.156 325.78C493.046 341.339 494.018 356.899 490.128 373.431L459.009 354.954C459.009 348.147 458.037 341.339 457.064 334.532C447.339 300.495 412.33 280.073 378.294 289.798C344.257 298.55 324.807 333.56 333.56 367.596C342.312 401.633 377.321 422.055 411.358 412.33C418.165 410.385 424 408.44 429.835 404.55L461.927 422.055C450.257 433.725 435.67 441.505 420.11 445.395C395.798 452.202 369.541 449.284 346.202 435.67L344.257 434.697V436.642C344.257 463.872 333.56 488.183 315.083 505.688C304.385 517.358 290.771 525.138 275.211 530V494.018C296.606 483.321 310.22 460.954 310.22 436.642C310.22 419.138 303.413 403.578 291.743 391.908C280.073 380.239 263.541 373.431 246.037 373.431C211.028 373.431 182.826 401.633 182.826 436.642C182.826 460.954 196.44 483.321 217.835 494.018V530C202.275 525.138 188.661 517.358 176.991 505.688C159.486 488.183 148.789 463.872 148.789 436.642V434.697L146.844 435.67H145.872C122.532 449.284 96.2752 452.202 71.9633 445.395C57.3761 441.505 42.789 433.725 31.1193 422.055L62.2385 404.55C68.0734 408.44 74.8807 410.385 80.7156 412.33C95.3028 416.22 110.862 415.248 124.477 408.44C127.394 407.468 131.284 405.523 133.229 403.578C146.844 394.826 155.596 382.183 159.486 367.596C163.376 352.037 161.431 334.532 152.679 318.972C143.927 303.413 130.312 293.688 113.78 289.798C98.2202 284.936 80.7156 286.881 66.1284 295.633C50.5688 304.385 39.8716 318.972 35.9817 334.532C34.0367 341.339 34.0367 348.147 34.0367 354.954L2.91743 373.431C-0.972477 356.899 -0.972477 341.339 2.91743 325.78C9.72477 302.44 24.3119 281.046 46.6789 267.431L51.5413 265.486L48.6239 263.541C26.2569 250.899 9.72477 229.505 2.91743 204.22C-0.972477 189.633 -0.972477 173.101 2.91743 157.541L34.0367 175.046C34.0367 181.853 34.0367 189.633 35.9817 195.468C37.9266 203.248 41.8165 211.028 46.6789 217.835C62.2385 238.257 89.4679 247.982 113.78 241.174C130.312 236.312 143.927 226.587 152.679 211.028C161.431 195.468 163.376 178.936 159.486 162.404C154.624 146.844 144.899 133.229 129.339 124.477C114.752 115.725 97.2477 113.78 80.7156 117.67C74.8807 119.615 68.0734 122.532 62.2385 126.422L31.1193 107.945C42.789 97.2477 57.3761 89.4679 71.9633 84.6055C96.2752 78.7706 122.532 80.7156 145.872 94.3303H146.844L148.789 96.2752V93.3578C148.789 66.1284 159.486 41.8165 176.991 24.3119C188.661 13.6147 202.275 4.86239 217.835 0V35.9817C212.972 38.8991 207.138 42.789 203.248 46.6789C201.303 47.6514 200.33 49.5963 199.358 50.5688C188.661 62.2385 182.826 76.8257 182.826 93.3578C182.826 108.917 188.661 123.505 197.413 134.202C199.358 137.119 202.275 139.064 204.22 141.982C215.89 151.706 230.477 157.541 246.037 157.541C263.541 157.541 280.073 149.761 291.743 138.092C303.413 127.394 310.22 110.862 310.22 93.3578C310.22 77.7982 304.385 64.1835 295.633 52.5138C289.798 45.7064 282.991 39.8716 275.211 35.9817V0C290.771 4.86239 304.385 13.6147 315.083 24.3119C333.56 41.8165 344.257 66.1284 344.257 93.3578V96.2752ZM636 259.651H659.339V251.872H604.881V259.651H627.248V316.055H636V259.651ZM706.991 316.055H717.688L698.239 287.853C707.963 286.881 712.826 278.128 712.826 271.321C712.826 255.761 702.128 251.872 689.486 251.872H673.927V316.055H682.679V289.798H688.514L706.991 316.055ZM691.431 259.651C699.211 259.651 704.073 263.541 704.073 271.321C704.073 278.128 700.183 282.991 689.486 282.991H682.679V259.651H691.431ZM780.899 316.055H789.651L763.395 251.872H753.67L726.44 316.055H735.193L742 299.523H774.092L780.899 316.055ZM758.532 259.651L771.174 292.716H744.917L758.532 259.651ZM805.211 316.055H812.991V251.872H805.211V316.055ZM881.064 316.055H891.761V251.872H883.009V305.358L846.055 251.872H835.358V316.055H843.138V262.569H844.11L881.064 316.055ZM913.156 316.055H921.908V251.872H913.156V316.055ZM989.009 316.055H999.706V251.872H990.954V305.358L954.972 251.872H943.303V316.055H952.055V262.569L989.009 316.055ZM1054.17 318C1063.89 318 1069.72 316.055 1074.59 314.11V282.991H1052.22V289.798H1065.83V308.275C1062.92 309.248 1060 310.22 1054.17 310.22C1039.58 310.22 1027.91 299.523 1027.91 283.963C1027.91 269.376 1039.58 258.679 1054.17 258.679C1061.94 258.679 1068.75 259.651 1073.61 262.569V253.817C1067.78 251.872 1062.92 250.899 1054.17 250.899C1034.72 250.899 1018.18 264.514 1018.18 283.963C1018.18 304.385 1033.74 318 1054.17 318ZM1177.67 318C1181.56 318 1188.37 317.028 1193.23 315.083V306.33C1190.31 308.275 1182.53 310.22 1177.67 310.22C1164.06 310.22 1151.41 299.523 1151.41 283.963C1151.41 269.376 1163.08 258.679 1177.67 258.679C1182.53 258.679 1189.34 259.651 1193.23 262.569V253.817C1189.34 251.872 1182.53 250.899 1177.67 250.899C1158.22 250.899 1142.66 264.514 1142.66 283.963C1142.66 304.385 1157.25 318 1177.67 318ZM1210.73 316.055H1249.63V309.248H1219.49V286.881H1245.74V279.101H1219.49V259.651H1249.63V251.872H1210.73V316.055ZM1313.82 316.055H1324.51V251.872H1315.76V305.358L1279.78 251.872H1268.11V316.055H1275.89V262.569H1276.86L1313.82 316.055ZM1370.22 259.651H1393.56V251.872H1339.1V259.651H1362.44V316.055H1370.22V259.651ZM1408.15 316.055H1448.02V309.248H1416.9V286.881H1443.16V279.101H1416.9V259.651H1447.05V251.872H1408.15V316.055ZM1499.56 316.055H1510.26L1489.83 287.853C1499.56 286.881 1505.39 278.128 1505.39 271.321C1505.39 255.761 1494.7 251.872 1482.06 251.872H1465.52V316.055H1474.28V289.798H1481.08L1499.56 316.055ZM1483.03 259.651C1491.78 259.651 1495.67 263.541 1495.67 271.321C1495.67 278.128 1491.78 282.991 1482.06 282.991H1474.28V259.651H1483.03ZM643.78 408.44C653.505 408.44 660.312 406.495 664.202 405.523V374.404H641.835V381.211H655.45V399.688C653.505 400.661 650.587 400.661 644.752 400.661C630.165 400.661 617.523 390.936 617.523 375.376C617.523 360.789 629.193 349.119 644.752 349.119C652.532 349.119 658.367 351.064 663.229 353.982V345.229C658.367 343.284 652.532 342.312 644.752 342.312C624.33 342.312 608.771 354.954 608.771 375.376C608.771 394.826 624.33 408.44 643.78 408.44ZM684.624 407.468H722.55V399.688H693.376V343.284H684.624V407.468ZM769.229 408.44C789.651 408.44 802.294 394.826 802.294 375.376C802.294 356.899 789.651 342.312 769.229 342.312C749.78 342.312 736.165 356.899 736.165 375.376C736.165 394.826 749.78 408.44 769.229 408.44ZM769.229 349.119C784.789 349.119 793.541 361.761 793.541 375.376C793.541 388.018 785.761 400.661 769.229 400.661C753.67 400.661 744.917 388.018 744.917 375.376C744.917 361.761 753.67 349.119 769.229 349.119ZM837.303 407.468C850.917 407.468 862.587 403.578 862.587 389.963C862.587 381.211 855.78 375.376 847.028 374.404C855.78 372.459 860.642 367.596 860.642 358.844C860.642 347.174 850.917 343.284 838.275 343.284H821.743V407.468H837.303ZM839.248 350.092C845.083 350.092 851.89 352.037 851.89 359.817C851.89 369.541 844.11 370.514 835.358 370.514H829.523V350.092H839.248ZM836.33 377.321C844.11 377.321 852.862 379.266 852.862 388.991C852.862 398.716 845.083 400.661 837.303 400.661H829.523V377.321H836.33ZM928.716 407.468H937.468L911.211 343.284H902.459L875.229 407.468H883.982L889.817 390.936H921.908L928.716 407.468ZM906.349 351.064L918.991 384.128H892.734L906.349 351.064ZM953.028 407.468H990.954V399.688H960.807V343.284H953.028V407.468ZM637.945 210.055C667.119 210.055 688.514 199.358 688.514 166.294C688.514 133.229 667.119 123.505 637.945 123.505H604.881V210.055H637.945ZM637.945 141.009C654.477 141.009 664.202 149.761 664.202 167.266C664.202 183.798 654.477 192.55 637.945 192.55H628.22V141.009H637.945ZM700.183 210.055H724.495V123.505H700.183V210.055ZM785.761 212C794.514 212 805.211 212 819.798 208.11V160.459H784.789V176.018H796.459V193.523C794.514 194.495 791.596 194.495 788.679 194.495C772.147 194.495 760.477 183.798 760.477 167.266C760.477 146.844 775.064 139.064 794.514 139.064C800.349 139.064 810.073 141.009 816.881 144.899V125.45C809.101 122.532 797.431 121.56 790.624 121.56C758.532 121.56 735.193 134.202 735.193 167.266C735.193 200.33 762.422 212 785.761 212ZM833.413 210.055H857.725V123.505H833.413V210.055ZM918.018 141.009H947.193V123.505H865.505V141.009H894.679V210.055H918.018V141.009ZM1003.6 210.055H1029.85L996.789 123.505H966.642L934.55 210.055H957.89L964.697 191.578H997.761L1003.6 210.055ZM982.202 141.009L991.927 175.046H970.532L981.229 141.009H982.202ZM1035.69 210.055H1095.98V192.55H1060V123.505H1035.69V210.055ZM1174.75 179.908C1196.15 179.908 1209.76 170.183 1209.76 151.706C1209.76 132.257 1197.12 123.505 1174.75 123.505H1142.66V210.055H1166V179.908H1174.75ZM1170.86 140.037C1179.61 140.037 1185.45 142.954 1185.45 151.706C1185.45 160.459 1179.61 163.376 1171.83 163.376H1166V140.037H1170.86ZM1272 210.055H1298.26L1265.19 123.505H1235.05L1202.95 210.055H1226.29L1233.1 191.578H1265.19L1272 210.055ZM1249.63 141.009L1260.33 175.046H1238.94L1249.63 141.009ZM1338.13 141.009H1366.33V123.505H1284.64V141.009H1313.82V210.055H1338.13V141.009ZM1434.4 210.055H1458.72V123.505H1434.4V156.569H1397.45V123.505H1374.11V210.055H1397.45V173.101H1434.4V210.055ZM1518.04 212C1546.24 212 1566.66 193.523 1566.66 167.266C1566.66 140.037 1547.21 121.56 1518.04 121.56C1489.83 121.56 1469.41 139.064 1469.41 167.266C1469.41 194.495 1490.81 212 1518.04 212ZM1518.04 139.064C1532.62 139.064 1542.35 151.706 1542.35 167.266C1542.35 180.881 1532.62 194.495 1518.04 194.495C1503.45 194.495 1493.72 180.881 1493.72 167.266C1493.72 151.706 1502.48 139.064 1518.04 139.064ZM1577.36 210.055H1637.65V192.55H1601.67V123.505H1577.36V210.055ZM1691.14 212C1720.31 212 1739.76 193.523 1739.76 167.266C1739.76 140.037 1720.31 121.56 1691.14 121.56C1662.94 121.56 1643.49 139.064 1643.49 167.266C1643.49 194.495 1663.91 212 1691.14 212ZM1691.14 139.064C1706.7 139.064 1715.45 151.706 1715.45 167.266C1715.45 180.881 1706.7 194.495 1691.14 194.495C1676.55 194.495 1667.8 180.881 1667.8 167.266C1667.8 151.706 1676.55 139.064 1691.14 139.064ZM1798.11 212C1806.86 212 1817.56 212 1832.15 208.11V160.459H1797.14V176.018H1809.78V193.523C1806.86 194.495 1803.94 194.495 1801.03 194.495C1784.5 194.495 1772.83 183.798 1772.83 167.266C1772.83 146.844 1788.39 139.064 1806.86 139.064C1812.7 139.064 1822.42 141.009 1830.2 144.899V125.45C1821.45 122.532 1809.78 121.56 1802.97 121.56C1771.85 121.56 1748.51 134.202 1748.51 167.266C1748.51 200.33 1774.77 212 1798.11 212ZM1894.39 177.963L1926.48 123.505H1899.25L1882.72 158.514L1866.18 123.505H1838.95L1871.05 177.963V210.055H1894.39V177.963ZM295.633 215.89C268.404 188.661 223.67 188.661 197.413 215.89C170.183 243.119 170.183 287.853 196.44 314.11C209.083 326.752 226.587 335.505 246.037 335.505C265.486 335.505 282.991 326.752 295.633 314.11C322.862 286.881 322.862 243.119 295.633 215.89Z" fill="#666666"/>
</svg>
